<?xml version="1.0" encoding="UTF-8"?>
<svg id="Layer_1" data-name="Layer 1" xmlns="http://www.w3.org/2000/svg" version="1.1" viewBox="0 0 5400 3600">
  <defs>
    <style>
      .cls-1 {
        stroke: #63cbe7;
      }

      .cls-1, .cls-2 {
        fill: none;
        fill-rule: evenodd;
        stroke-linecap: round;
        stroke-linejoin: round;
        stroke-width: 12px;
      }

      .cls-2 {
        stroke: #332f2f;
      }
    </style>
  </defs>
  <path class="cls-1" d="M24,2696c177.6-393.6,603.8-553.5,821.1-545.8,217.3,7.8,333.7,139.7,457.9,108.7,124.2-31,157.8-150,10.3-152.6-147.5-2.6-144.9,263.9,64.7,256.1,209.6-7.8,174.5-256.2-94.5-584.8-269.1-328.6-392.5-614.4-366.7-746.3,25.9-131.9,121.6-232.8,163-31,41.4,201.8-7.8,369.9-126.8,579.5-119,209.5-67.3,582.1,266.5,527.8,333.7-54.3,413.9-439.8,204.4-584.7-209.5-144.9-463.1,263.9-320.8,406.2,142.3,142.3,375.1-126.8,256.1-227.6,0,0-134.1-90.7-192.8,58.3-58.7,149,194.2,284.5,433.5,239.3,239.3-45.1,257.4-284.5,370.3-338.7,112.9-54.2,183.7,18.7,183.7,18.7,0,0-150.1-25.3-206.6,78-56.5,103.3-52.6,222.2,81.8,194.9,134.5-27.3,185.1-148.1,177.3-220.2-7.8-72.1-243.6-413.2-274.8-502.8-31.2-89.6-85.8-165.7-74.1-124.7,11.7,40.9,70.2,54.6,220.2,101.3,150.1,46.8,175.4,155.9,179.3,161.8,3.9,5.8-66.3-66.3-163.7-76-97.4-9.7-111.1-17.5-128.6-46.8-17.5-29.2-31.2-54.6-19.5-37,11.7,17.5,272.8,479.4,300.1,524.2,27.3,44.8,253.3,185.1,380,68.2,126.7-116.9,157.9-210.5,210.5-237.8,0,0,51.1-23.8,108.2-7.4,57.2,16.3,61.2,26.5,61.2,26.5,0,0-110.2-10.2-163.3,67.4-53.1,77.6-22.5,202.1,104.1,153.1,126.5-49,104.1-183.7,75.5-249-28.6-65.3-165.3-418.4-187.8-408.2-22.5,10.2,340.9-214.3,318.4-212.3-22.5,2,159.2,398,159.2,398,0,0-144.9,38.8-128.6,169.4,16.3,130.6,134.7,81.6,157.2,10.2,22.4-71.4-24.5-157.2-24.5-157.2l-142.9-308.2s-269.4,151-269.4,163.3,136.8,349,136.8,349c0,0,63.3,85.7,212.3,102.1,149,16.3,291.9-16.3,353.1-71.4,0,0,55.6-80.7,151.8-91.6,96.1-11,119.2,68.1,97.3,126.5-21.9,58.4-165.5,96.1-210.5,85.2-45-10.9-23.1-101-28-102.2-4.9-1.2-23.1,11-17,45,6.1,34.1,148.3,469.9,130.1,476.4-18.2,6.5,378.1-206.6,378.1-206.6,0,0-139-474.2-139-487.2s27.3-206.6,178-166.3c150.7,40.3-36.4,236.5-109.1,223.5-72.8-13-63.7-74.1-53.3-49.4,0,0,24.3-33.6,73,84,48.7,117.5,288.3,130.1,368.6-16.1,80.3-146.2-329.6-17.2-108.9,51.6,268.7,114.4,611.2-174.5,1071.4-7.8"/>
  <path class="cls-2" d="M18,2705c177.6-393.6,603.8-553.5,821.1-545.8,217.3,7.8,333.7,139.7,457.9,108.7,124.2-31,157.8-150,10.3-152.6-147.5-2.6-144.9,263.9,64.7,256.1,209.6-7.8,174.5-256.2-94.5-584.8-269.1-328.6-392.5-614.4-366.7-746.3,25.9-131.9,121.6-232.8,163-31,41.4,201.8-7.8,369.9-126.8,579.5-119,209.5-67.3,582.1,266.5,527.8,333.7-54.3,413.9-439.8,204.4-584.7-209.5-144.9-463.1,263.9-320.8,406.2,142.3,142.3,375.1-126.8,256.1-227.6,0,0-134.1-90.7-192.8,58.3-58.7,149,194.2,284.5,433.5,239.3,239.3-45.1,257.4-284.5,370.3-338.7,112.9-54.2,183.7,18.7,183.7,18.7,0,0-150.1-25.3-206.6,78-56.5,103.3-52.6,222.2,81.8,194.9,134.5-27.3,185.1-148.1,177.3-220.2-7.8-72.1-243.6-413.2-274.8-502.8-31.2-89.6-85.8-165.7-74.1-124.7,11.7,40.9,70.2,54.6,220.2,101.3,150.1,46.8,175.4,155.9,179.3,161.8,3.9,5.8-66.3-66.3-163.7-76-97.4-9.7-111.1-17.5-128.6-46.8-17.5-29.2-31.2-54.6-19.5-37,11.7,17.5,272.8,479.4,300.1,524.2,27.3,44.8,253.3,185.1,380,68.2,126.7-116.9,157.9-210.5,210.5-237.8,0,0,51.1-23.8,108.2-7.4,57.2,16.3,61.2,26.5,61.2,26.5,0,0-110.2-10.2-163.3,67.4-53.1,77.6-22.5,202.1,104.1,153.1,126.5-49,104.1-183.7,75.5-249-28.6-65.3-165.3-418.4-187.8-408.2-22.5,10.2,340.9-214.3,318.4-212.3-22.5,2,159.2,398,159.2,398,0,0-144.9,38.8-128.6,169.4,16.3,130.6,134.7,81.6,157.2,10.2,22.4-71.4-24.5-157.2-24.5-157.2l-142.9-308.2s-269.4,151-269.4,163.3,136.8,349,136.8,349c0,0,63.3,85.7,212.3,102.1,149,16.3,291.9-16.3,353.1-71.4,0,0,55.6-80.7,151.8-91.6,96.1-11,119.2,68.1,97.3,126.5-21.9,58.4-165.5,96.1-210.5,85.2-45-10.9-23.1-101-28-102.2-4.9-1.2-23.1,11-17,45,6.1,34.1,148.3,469.9,130.1,476.4-18.2,6.5,378.1-206.6,378.1-206.6,0,0-139-474.2-139-487.2s27.3-206.6,178-166.3c150.7,40.3-36.4,236.5-109.1,223.5-72.8-13-63.7-74.1-53.3-49.4,0,0,24.3-33.6,73,84,48.7,117.5,288.3,130.1,368.6-16.1,80.3-146.2-329.6-17.2-108.9,51.6,268.7,114.4,611.2-174.5,1071.4-7.8"/>
</svg>