<?xml version="1.0" encoding="utf-8"?>
<!-- Generator: Adobe Illustrator 27.8.1, SVG Export Plug-In . SVG Version: 6.00 Build 0)  -->
<svg version="1.1" id="Piano" xmlns="http://www.w3.org/2000/svg" xmlns:xlink="http://www.w3.org/1999/xlink" x="0px" y="0px"
	 viewBox="0 0 2340 1560" style="enable-background:new 0 0 2340 1560;" xml:space="preserve">
<style type="text/css">
	.st0{fill:#DBDBDB;}
	.st1{fill:#C8C5CC;}
	.st2{fill:#FFFFFF;}
	.st3{fill:#EE9F87;}
	.st4{fill:#465A65;}
	.st5{fill:#D1F1FF;}
	.st6{fill:#253336;}
	.st7{fill:#374750;}
	.st8{fill:#2F3D44;}
	.st9{fill:#29ABE2;}
	.st10{fill:#EE735F;}
</style>
<g id="Object">
	<path class="st0" d="M2075.5,1420.2H237.3c-69.6-54.1-107.6-145.7-101.7-233.7c5.9-88,57.7-171.6,133.9-216
		c49.1-28.6,107.6-42.1,150.1-79.9c56.3-50.1,72-131.4,75-206.7c3-75.3-3.1-153,22.6-223.9c31.9-88.2,114.6-155.8,207.3-169.6
		c92.7-13.8,191.6,26.8,247.8,101.8c27.1,36.1,44.4,78.6,69.8,115.9c25.5,37.3,62.9,70.7,107.9,73.8c66.4,4.5,116.6-55.1,169.4-95.7
		c92.9-71.5,223.9-89.9,333-47c109,43,192.2,145.9,211.3,261.6c14.6,88.3-3.1,188.8,51.6,259.6c30.1,38.9,76.8,60.8,114.1,92.8
		C2126.7,1136.9,2150.6,1316.1,2075.5,1420.2z"/>
	<path class="st1" d="M1921.6,1417.8H329.6c-34.9-33-14.2-84.2,6-127.7c20.2-43.5,58-76,96-105.2c38.1-29.2,78.2-57.3,106.5-96
		c61.4-84.3,53.8-198.2,53-302.5c-0.7-104.3,16.8-224.1,104.5-280.6c89.6-57.7,213.9-18.9,291.7,53.9
		c77.8,72.8,123.7,172.4,181.7,261.8c33.5,51.6,82.7,105.7,143.9,99.8c59-5.6,96.7-63.4,146.1-96.2c51.8-34.4,121.3-40.4,178.3-15.4
		c57,25,99.6,80.3,109.3,141.7c6.6,41.6-1,84.2,2.8,126.1c3.9,41.9,24.1,87.3,64.1,100.5c32.6,10.8,68.1-2.9,102.4-0.7
		c51.4,3.4,97,47.7,101.9,98.9C2022.7,1327.3,1973.1,1417.8,1921.6,1417.8z"/>
	<path class="st0" d="M417.1,713.8c4.9-34.7-19.8-71.1-53.8-79.5c-14.8-3.6-31.4-2.1-43.5,7.1c-12.1,9.2-18.1,24.5-19.9,39.6
		c-3.6,28.9,11.1,84.3,43.8,94.1C376.9,785,413.1,742.2,417.1,713.8z"/>
	<path class="st0" d="M1987.3,533.3c6.1,10,15.6,18.2,26.8,21.7c11.2,3.5,24.1,2,33.5-5c27.6-20.5,11.8-71.5-16.9-83.7
		C1991,449.5,1969.3,504.1,1987.3,533.3z"/>
	<path class="st2" d="M1180.7,514.4c1.7,0,3.4,0,5.2-0.1c24-0.6,44.1-9.6,58.3-26c14.8-17,21.7-40.7,19.1-65
		c-15.8-1.5-27.8,0.3-30.9,0.8l-0.8,18.9c0,0.1,0,0.1,0,0.2c-0.1,0.5-3.2,12.2-14.2,22.6c-8,7.6-21.7,15.6-43.6,15.6
		c-5.7,0-12-0.5-18.9-1.8c-35.3-6.3-51.8-23.2-59.4-36.3c-8.3-14.2-8.2-26.7-8.2-27.2c0,0,0-0.1,0-0.1l1.2-7.7
		c-3.2-0.7-14.8-2.9-32.1-3.1c0.5,5.6,3.6,30.8,18.5,55.3C1089.9,485.3,1120.4,514.4,1180.7,514.4z"/>
	<rect x="1062.3" y="810.9" class="st2" width="119.7" height="29.7"/>
	<path class="st3" d="M668.7,883.6c-0.2,0-0.3,0-0.5,0c-3.3,0-6.4-1.5-8.6-4c-21.1-25.5-69.7-89.7-70-140.1
		c-3.5,2.3-12.4,8.7-19.4,18.8c-11.9,17.1-13.3,36.1-4,56.4c10.6,23.3,30.6,47.3,48.6,66.3c0.5-3.2,1.9-9,6.2-12.3
		c3-2.3,7-3,11.6-1.9c0.5,0.1,0.9,0.7,0.7,1.2c-0.1,0.5-0.7,0.9-1.2,0.7c-4.1-0.9-7.4-0.4-9.9,1.5c-4.6,3.5-5.5,10.8-5.6,12.6
		c8.1,8.4,15.8,15.7,21.9,21.4c4.8,4.4,11.5,5.9,17.7,4c6.1-1.9,10.7-6.6,12.2-12.8c0.9-3.8,1.1-7.8,0.7-11.9
		C668.9,883.6,668.8,883.6,668.7,883.6z"/>
	<path class="st4" d="M884.3,667.6c26.7,12.4,45.9,26.2,51.2,30.1c2.6-24.8,4.4-47,4.7-62.7c0-0.6,0.4-1,1-1c0.6,0,1,0.5,1,1
		c-0.8,39.7-11.1,120.2-19.7,181.5l487.4-295.3c-49-42-77.5-66.4-87.1-74.4c-18.7-15.6-40.1-21.5-57.4-23.4
		c2.5,24.7-4.6,48.8-19.6,66.1c-14.6,16.8-35.2,26-59.7,26.7c-1.8,0-3.6,0.1-5.3,0.1c-26.3,0-49.2-5.4-68.2-16.2
		c-16.2-9.2-29.4-22.2-39.5-38.8c-15.3-25.2-18.3-51-18.7-56.3c-22.5-0.2-53.8,2.9-88.5,16c-59.3,22.5-140.2,80-196.6,224.9
		C812.8,639.9,855.8,654.3,884.3,667.6z"/>
	<path class="st3" d="M683.4,847.9c-1.8,0.8-3.8,1.2-5.7,1.2c-2.5,0-5-0.6-7.3-1.9c-4.7-2.6-7.6-7.3-7.9-12.6l-7.1-144.3
		c-0.1-2.1-0.1-4.2,0.1-6.3c-5.3-0.4-30.6-1.7-47.6,13.2c-10.6,9.2-16.1,22.8-16.4,40.6c-0.6,32.5,20,71.3,40.3,101.5
		c0.9-2.8,2.9-7.5,7.3-10.4c3.8-2.5,8.5-3.1,14-1.8c0.5,0.1,0.9,0.7,0.7,1.2c-0.1,0.5-0.7,0.9-1.2,0.7c-4.9-1.2-9.1-0.7-12.4,1.5
		c-5,3.3-6.6,9.5-6.9,10.9c10.4,15.3,20.7,28.3,27.7,36.9c1.8,2.2,4.5,3.4,7.4,3.3c2.9-0.1,5.4-1.5,7-3.9
		C679.5,872,684,862.3,683.4,847.9z"/>
	<path class="st3" d="M1292.4,184.4c-11.6-14.8-45.5-17.6-50.1-17.9c-2.8,3.5-22.6,28.2-44.5,38.4c-19.9,9.2-35.1-3.9-39.8-8.8
		c-1,8.5-5.2,38.2-13.6,46.2c-8,7.6-18.3,4.9-22,3.6c-0.1,1.5-0.4,2.9-1,4.2c-0.2,0.5-0.8,0.7-1.3,0.5c-0.5-0.2-0.7-0.8-0.5-1.3
		c2-4.4,0.6-10.3-3.5-14.3c-3.2-3.2-7.8-5.5-14.5-7.1c-8.6-2.1-15.3-1.8-20.7,0.8c-5.6,2.8-10.1,8.6-12.2,16c-2,6.7-2,13.8-1.9,21
		c0.2,9.5,0.8,19.3,5.7,27.2c3.4,5.4,8.8,9.5,14.8,11.4c7.1,2.2,12.8,2.1,18-0.1c0.3-0.1,0.7-0.1,1,0.1c0.3,0.2,0.4,0.6,0.4,1
		l-17.4,111.1c0,1,0.2,13,8,26.2c7.4,12.7,23.5,29,58,35.2c25.7,4.6,46.7,0,60.7-13.2c10.1-9.5,13.4-20.5,13.7-21.6l2.1-52
		c-5.4,2-11.1,3-17.2,3c-1.5,0-3-0.1-4.5-0.2c-30.2-2.4-54.9-20.3-73.3-53.3c-0.3-0.5-0.1-1.1,0.4-1.4c0.5-0.3,1.1-0.1,1.4,0.4
		c18.1,32.4,42.2,49.9,71.7,52.2c14.8,1.2,27.9-3.6,38.8-14.2c15.5-14.9,25.5-39.9,31.9-67.1c3.7-15.3,6.2-31.4,7.9-46.7
		C1293.5,223.4,1292.5,188.1,1292.4,184.4z M1115.4,276.4c-0.2,0.2-0.5,0.3-0.7,0.3c-0.2,0-0.5-0.1-0.7-0.3l-13.3-12.2l-8,12
		c-0.2,0.3-0.5,0.4-0.8,0.4c-0.2,0-0.4,0-0.5-0.2c-0.5-0.3-0.6-0.9-0.3-1.4l8.2-12.2l-13.5-12.4c-0.4-0.4-0.4-1-0.1-1.4
		c0.4-0.4,1-0.4,1.4-0.1l28.3,25.9C1115.7,275.4,1115.8,276,1115.4,276.4z M1167.4,223.3c0.2-0.1,23.8-13.4,46.8-14.2
		c0.5,0,1,0.4,1,1c0,0.6-0.4,1-1,1c-22.5,0.7-45.6,13.8-45.9,13.9c-0.2,0.1-0.3,0.1-0.5,0.1c-0.4,0-0.7-0.2-0.9-0.5
		C1166.7,224.2,1166.9,223.6,1167.4,223.3z M1165.8,252.3c0.3-0.5,1-0.5,1.4-0.2c0.9,0.6,21.5,15.5,42.2,0c0.4-0.3,1.1-0.2,1.4,0.2
		c0.3,0.4,0.2,1.1-0.2,1.4c-7.3,5.5-14.7,7.3-21.3,7.3c-13.1,0-23.1-7.2-23.2-7.3C1165.5,253.4,1165.4,252.8,1165.8,252.3z
		 M1189.8,354.9c-0.2,0.4-0.5,0.6-0.9,0.6c-0.1,0-0.3,0-0.4-0.1c-12.2-6-15.7-16.9-15.8-17.4c-0.2-0.5,0.1-1.1,0.7-1.2
		c0.5-0.2,1.1,0.1,1.2,0.7c0,0.1,3.4,10.5,14.8,16.1C1189.8,353.8,1190,354.4,1189.8,354.9z M1218.5,353.4c-0.1,0.4-0.5,0.7-0.9,0.7
		c-0.1,0-0.2,0-0.3,0c-40-12.2-51.6-59.1-51.7-59.5c-0.1-0.5,0.2-1.1,0.7-1.2c0.5-0.1,1.1,0.2,1.2,0.7c0.1,0.5,11.4,46.3,50.3,58.1
		C1218.4,352.3,1218.7,352.8,1218.5,353.4z M1236.2,327l-23.9,1.8h-0.1c-0.5,0-1-0.4-1-0.9c0-0.6,0.4-1,0.9-1.1l22.9-1.7
		c-0.5-10.3-4.6-89.3-4.6-90.3c0-0.5,0.4-1,1-1c0.6,0,1,0.4,1,1c0,1.1,4.6,90.3,4.7,91.2C1237.1,326.5,1236.7,326.9,1236.2,327z
		 M1250.7,209.1c1,0.1,24.8,3.1,36.1,17c0.3,0.4,0.3,1.1-0.2,1.4c-0.2,0.1-0.4,0.2-0.6,0.2c-0.3,0-0.6-0.1-0.8-0.4
		c-10.8-13.3-34.5-16.2-34.7-16.3c-0.5-0.1-0.9-0.6-0.9-1.1C1249.7,209.5,1250.1,209.1,1250.7,209.1z M1249.8,253.5
		c-0.3-0.5-0.2-1.1,0.2-1.4c0.5-0.3,1.1-0.2,1.4,0.2c0.5,0.7,13.2,17.5,31.2,4.4c0.5-0.3,1.1-0.2,1.4,0.2c0.3,0.4,0.2,1.1-0.2,1.4
		c-5.4,3.9-10.3,5.3-14.7,5.3C1257.4,263.6,1249.9,253.6,1249.8,253.5z"/>
	<path class="st4" d="M1422.3,546.6l3,10.5c1.1,3.7-0.5,7.7-3.9,9.7c0,0,0,0,0,0l-4.9,2.9l8.7,32.9c17.3-11,35.3-18.5,53.5-22.4
		c-16.6-14.3-32.1-27.6-46.3-39.8L1422.3,546.6z"/>
	<polygon class="st5" points="1507.8,922 1414.7,570.8 1397,581.4 1406.6,617.7 1406.6,617.7 1487.4,922 	"/>
	<path class="st4" d="M798.8,922l117-70.9c0,0,0,0,0,0l461.1-279.4c0,0,0,0,0,0l43.7-26.5l32.3-19.6l-12.7-20.5l-28.1,17L752.3,922
		H798.8z"/>
	<path class="st6" d="M1079.9,226.7c5.8-2.8,13-3.2,22-1c7,1.7,12,4.1,15.4,7.7c2.9,2.9,4.6,6.6,4.9,10.3c2.4,1,12.7,4.7,20.7-2.9
		c9.1-8.7,13.2-46.8,13.2-47.1c0-0.4,0.3-0.7,0.7-0.9c0.4-0.1,0.8,0,1.1,0.3c0.7,0.8,16.4,20.4,39,9.9c23-10.7,43.9-37.9,44.1-38.2
		c0.2-0.3,0.5-0.4,0.8-0.4c1.6,0.1,39.6,2.1,52.3,18.9c0.1,0.2,0.2,0.4,0.2,0.6c0,0.3,0.8,20.8-0.8,48.8
		c8.4-6.1,46.1-35.1,51.6-69.3c2.3-14.5-1.4-28.2-11.1-40.7c-26.1-33.7-72-6.5-72.5-6.2c-0.2,0.2-0.5,0.2-0.8,0.1
		c-0.3-0.1-0.5-0.3-0.6-0.6c-0.1-0.2-7.2-16.7-24-30.8c-15.4-13-42.5-26.6-83.6-17.5c-32.4,7.2-48.4,31.2-56.1,50.1
		c-8.4,20.6-9.1,39.7-9.1,39.9c0,0.4-0.2,0.7-0.6,0.9c-0.3,0.1-29,13.2-32.9,38.7c-3.3,21.4,8.1,42.9,12,49.6
		c0.2-1.1,0.5-2.1,0.8-3.2C1069,236,1073.8,229.7,1079.9,226.7z"/>
	<path class="st7" d="M793,1136.6h782.2V987.4H793V1136.6z M1085,1050.3c0-0.6,0.4-1,1-1h196c0.6,0,1,0.4,1,1v23.5c0,0.6-0.4,1-1,1
		h-196c-0.6,0-1-0.4-1-1V1050.3z"/>
	<polygon class="st8" points="1259.3,1182.2 1259.3,1163.5 1102.5,1163.5 1102.5,1182.2 1119.2,1182.2 1135.6,1182.2 1226.8,1182.2 
		1243.2,1182.2 	"/>
	<path class="st4" d="M1607.9,1161.5v-199H760.2v199h22.5H916h23.3h133.3h28.9h158.8h189.6h133.3H1607.9z M1577.1,1137.6
		c0,0.6-0.4,1-1,1H792c-0.6,0-1-0.4-1-1V986.4c0-0.6,0.4-1,1-1h784.2c0.6,0,1,0.4,1,1V1137.6z"/>
	<path class="st4" d="M1227.8,1315.4v82.8h14.4v-214h-14.4V1315.4C1227.8,1315.4,1227.8,1315.4,1227.8,1315.4z"/>
	<path class="st9" d="M1211.7,1215.4c-42.4,49.2-49.5,143.2-50.6,182.8h45.7L1211.7,1215.4z"/>
	<path class="st3" d="M920.3,817.9c5.2-36.5,11-80.1,15-117.9c-3.2-2.4-23.2-17.2-51.8-30.6c-28.5-13.3-71.6-27.7-115-21.2
		c-2.7,7-5.4,14.3-7.9,21.7c5.5,2.5,10.8,5.1,15.9,7.6c13.2,6.3,24.5,11.8,33.4,14.7c16.1,5.2,39.4,7.5,69.3,6.8
		c9.4-0.2,17.3,5.4,20.2,14.3c2.9,8.9-0.1,18.1-7.7,23.4c-20.7,14.6-43.7,19-62.7,19.6l28.6,70.5c0.2,0.5,0,1.1-0.6,1.3
		c-0.1,0-0.2,0.1-0.4,0.1c-0.4,0-0.8-0.2-0.9-0.6l-28.9-71.2c-1.9,0-3.8,0-5.7,0c-3.1,29.6-21.1,44.1-21.3,44.2
		c-0.2,0.1-0.4,0.2-0.6,0.2c-0.3,0-0.6-0.1-0.8-0.4c-0.3-0.4-0.3-1.1,0.2-1.4c0.2-0.1,17.4-14.1,20.5-42.7
		c-17.6-0.7-29.9-4.3-30.2-4.4c-0.5-0.2-0.8-0.7-0.7-1.2c0.2-0.5,0.7-0.8,1.2-0.7c0.6,0.2,56.3,16.6,101-14.8
		c6.9-4.8,9.6-13.2,7-21.2c-2.7-8.1-9.8-13.1-18.3-12.9c-30.1,0.7-53.6-1.6-70-6.9c-9-2.9-20.4-8.4-33.6-14.8
		c-32.3-15.6-72.6-34.9-97.2-25.1c-8.5,3.4-14.5,9.8-18.3,19.8c-1.1,3-1.9,6-2.3,9.2c0,0,0,0,0,0c0,0,0,0,0,0
		c-0.3,2.3-0.4,4.6-0.2,6.9l4.4,89.6c3-1.8,9.9-5.2,17.6-3c8,2.3,14.4,9.9,19,22.6c0.2,0.5-0.1,1.1-0.6,1.3c-0.1,0-0.2,0.1-0.3,0.1
		c-0.4,0-0.8-0.3-0.9-0.7c-4.4-12.1-10.3-19.3-17.6-21.4c-7.9-2.3-15.2,2.2-17,3.4l2.6,52.4c0.2,4.6,2.8,8.7,6.8,11
		c3.9,2.2,8.6,2.2,12.5,0.1c7.3-4,13.1-10.5,17.3-19.1c13-26.6,20.5-137.9,20.6-139c0-0.6,0.5-1,1.1-0.9c0.6,0,1,0.5,0.9,1.1
		c-0.3,4.6-7.6,112.8-20.8,139.7c-4.3,8.8-10.2,15.4-17.6,19.7c0.8,15.4-4,25.9-8.1,31.9c-0.4,0.5-0.8,1-1.2,1.4
		c7.2,1,32,2.8,56.9-12.5c0.5-0.3,1.1-0.1,1.4,0.3c0.3,0.5,0.1,1.1-0.3,1.4c-11.2,6.9-22.4,10.4-32.1,12.1
		c1.4,5.7,9.7,34.7,30.6,51.1V923c0-0.6,0.4-1,1-1h14.9L920.3,817.9z"/>
	<polygon class="st4" points="1608.9,960.5 1633.6,960.5 1633.6,924 1350.1,924 1330.9,924 1035.1,924 1015.8,924 734.5,924 
		734.5,960.5 759.2,960.5 	"/>
	<rect x="1087" y="1051.3" class="st8" width="194" height="21.5"/>
	<polygon class="st8" points="1582.3,1194.3 1582.3,1163.5 1450.9,1163.5 1450.9,1194.3 1468.8,1194.3 1564.4,1194.3 	"/>
	<polygon class="st7" points="1488,1221.1 1488,1221.1 1545.2,1221.1 1545.2,1221.1 1563.4,1221.1 1563.4,1196.3 1469.8,1196.3 
		1469.8,1221.1 	"/>
	<path class="st9" d="M1432.1,289.8c15.7,12.9,36.6,13.7,46.4,1.7c9.9-12,5.1-32.3-10.7-45.2c-7.7-6.3-16.7-9.9-25.5-10.2
		c-0.4,0-0.8,0-1.1,0c-8.2,0-15.2,3-19.7,8.5c-4.7,5.8-6.3,13.6-4.3,22.1C1419.1,275.3,1424.4,283.5,1432.1,289.8z"/>
	
		<rect x="772.4" y="192.8" transform="matrix(0.568 -0.823 0.823 0.568 127.3577 752.7291)" class="st5" width="16.8" height="124.4"/>
	<path class="st9" d="M767.8,339.6c-5.1-3.5-11-5.5-16.5-5.5c-0.4,0-0.8,0-1.2,0c-5.8,0.3-10.6,2.7-13.4,6.8c0,0,0,0,0,0
		c-2.8,4.1-3.4,9.4-1.6,15c1.8,5.7,5.9,10.9,11.4,14.7c5.5,3.8,11.8,5.7,17.7,5.4c5.8-0.3,10.6-2.7,13.4-6.8c2.8-4.1,3.4-9.4,1.6-15
		C777.3,348.6,773.3,343.4,767.8,339.6z"/>
	<path class="st9" d="M238.4,403.4c8.9,3.3,19.4,3.5,29.6,0.4c21-6.3,34.1-24.5,29.2-40.5c-3.7-12.2-16.8-19.6-32.2-19.6
		c-4.7,0-9.7,0.7-14.6,2.2c-10.2,3.1-18.9,9-24.4,16.7c-5.5,7.6-7.2,16-4.9,23.7C223.5,394,229.6,400.1,238.4,403.4z"/>
	<path class="st9" d="M642.3,298.8c5.5,3.8,11.8,5.7,17.7,5.4c5.8-0.3,10.6-2.7,13.4-6.8c5.9-8.6,1.5-21.9-9.8-29.6
		c-5.3-3.7-11.2-5.5-16.6-5.5c-6.1,0-11.5,2.3-14.6,6.8c-2.8,4.1-3.4,9.4-1.6,15C632.8,289.8,636.8,295,642.3,298.8z"/>
	<path class="st9" d="M2127,324.8c-4-1.3-8.2-1.9-12.6-1.9c-5.5,0-11.2,1-16.7,3c-10,3.6-18.3,9.9-23.4,17.8
		c-5,7.8-6.3,16.3-3.6,23.8c2.7,7.5,9.1,13.2,17.9,16.1c9,2.9,19.4,2.5,29.4-1.1c10-3.6,18.3-9.9,23.4-17.8c5-7.8,6.3-16.3,3.6-23.8
		C2142.2,333.4,2135.9,327.7,2127,324.8z"/>
	
		<rect x="1904.3" y="219.1" transform="matrix(0.9413 -0.3375 0.3375 0.9413 38.8836 689.2833)" class="st5" width="195.8" height="27.4"/>
	<rect x="1184" y="810.9" class="st2" width="119.7" height="29.7"/>
	<path class="st9" d="M1931.7,449.3c10-3.6,18.3-9.9,23.4-17.8c5-7.8,6.3-16.3,3.6-23.8c-2.7-7.5-9.1-13.2-17.9-16.1
		c-9-2.9-19.4-2.5-29.4,1.1c-20.5,7.3-32.6,26-27,41.6C1890,449.9,1911.2,456.6,1931.7,449.3z"/>
	<path class="st5" d="M1586.8,220.6c5.7,3,11.9,5.5,17.9,7.9c4.1,1.6,8.4,3.4,12.5,5.2c7.9,3.6,19.1,9.7,25.9,20.4
		c5,7.8,6.6,17.4,4.8,27c5.3-10.6,8.1-21.9,8-32.6c-0.1-13.2-4.6-25-12.6-33.2c-7.3-7.4-17.4-11.7-27.1-15.9
		c-2.6-1.1-5.3-2.2-7.8-3.4c-7.6-3.5-12.6-9.6-17.4-15.6c-3-3.7-6.1-7.5-9.8-10.7l-22.3,27.1
		C1566.5,206.8,1575.8,214.8,1586.8,220.6z"/>
	<path class="st8" d="M1384.5,583.5c1.9,0.7,4,0.5,5.7-0.5l30.1-17.9c2.6-1.5,3.8-4.6,3-7.4l-2.8-10l-41.9,25.4l2,6.3
		C1381.2,581.3,1382.6,582.8,1384.5,583.5z"/>
	<path class="st3" d="M915.1,853.9c-1.5,10.4-3,20.1-4.3,28.7c-3.2,21.1-5.5,35.8-6.1,39.4h-102l71.6-43.4L915.1,853.9z"/>
	<path class="st3" d="M1463.2,838.7l-58.1-218.9c-42.7,35.3-67.5,82.2-70.3,87.6l30.3,44.8l53.1-46.1c0.4-0.4,1-0.3,1.4,0.1
		c0.4,0.4,0.3,1-0.1,1.4l-100.8,87.7c5.3-1,11-1.8,17-2.3C1367.1,790.5,1414.5,796.6,1463.2,838.7z"/>
	<path class="st3" d="M1614.5,875.5c-2.4,2.6-4.9,5.1-7.4,7.5l-42,39h-55.1l-84.2-317.3c17.7-11.3,36.2-19,54.8-22.8
		c26.7,23,56.4,48.5,88.9,76.5c11,9.5,22.3,19.2,33.9,29.2c28.2,24.3,44.8,59.6,45.5,96.8C1649.5,818.2,1637.1,850.8,1614.5,875.5z"
		/>
	<path class="st3" d="M1394.8,922h90.4l-21.2-79.9c-48.9-43.3-96.7-49.6-128.2-47.2c-26.3,2-45.9,10.2-53.7,14h22.4c0.6,0,1,0.4,1,1
		v30.7h54.4c0.3,0,0.6,0.1,0.7,0.3c0.2,0.2,0.3,0.5,0.2,0.8l-8,66.4l29.1-26.6c0.4-0.4,1-0.3,1.4,0.1c0.4,0.4,0.3,1-0.1,1.4
		l-30.8,28.1l-1.3,10.8h40.6l22.8-20.2c0.4-0.4,1-0.3,1.4,0.1c0.4,0.4,0.3,1-0.1,1.4L1394.8,922z"/>
	<path class="st5" d="M1358.9,842.6h-54.2h-243.3h-54.2l9.6,79.4h17.2l-8.6-62.3c0-0.3,0-0.6,0.2-0.8c0.2-0.2,0.5-0.3,0.8-0.3h313.3
		c0.3,0,0.6,0.1,0.8,0.3c0.2,0.2,0.3,0.5,0.2,0.8L1332,922h17.2L1358.9,842.6z"/>
	<polygon class="st8" points="1035.9,922 1330,922 1338.5,860.6 1027.5,860.6 	"/>
	<path class="st4" d="M1005,841.7c0-0.3,0.1-0.6,0.2-0.8c0.2-0.2,0.5-0.3,0.7-0.3h54.4v-30.7c0-0.6,0.4-1,1-1h216.6
		c1.8-1,13.5-7.2,31.7-11.7l7.3-112.8l-15.3-22.7c-0.3-0.5-0.2-1.1,0.3-1.4c0.5-0.3,1.1-0.2,1.4,0.3l30.3,44.9
		c4.6-8.8,29.5-53.8,71-87.8l-9.3-35.2l-3.9,2.3c-1.4,0.8-2.9,1.2-4.4,1.2c-1,0-2.1-0.2-3.1-0.6c-2.5-0.9-4.3-2.9-5.1-5.4l-1.8-5.8
		L917.3,852.5c-5.3,36.1-9.7,63.6-10.6,69.5h108L1005,841.7z"/>
	<path class="st2" d="M1260.4,1440.1C1260.4,1440.1,1260.4,1440.1,1260.4,1440.1C1260.3,1440.1,1260.3,1440.1,1260.4,1440.1l-57.7,0
		l-0.6,2.8c-1.4,6.2,2.4,12.3,8.5,13.9c26.3,7,91.3,22.2,135.3,15.6C1336.4,1465.8,1295,1438.3,1260.4,1440.1z"/>
	<polygon class="st4" points="989.3,1495.2 1022.6,1495.2 1023.7,1468.6 988.2,1468.6 	"/>
	<polygon class="st7" points="1032.9,1448.2 1025.6,1448.2 986.4,1448.2 979,1448.2 979,1466.6 987.2,1466.6 1024.7,1466.6 
		1032.9,1466.6 	"/>
	<path class="st8" d="M1259.3,1400.2h-16.1h-16.4h-66.7c0,0,0,0,0,0c0,0,0,0,0,0h-24.5h-16.4h-16.7v37.9h156.8V1400.2z"/>
	<path class="st2" d="M978,1468.6c-0.6,0-1-0.4-1-1v-20.4c0-0.6,0.4-1,1-1h7.3l-1.7-42.2c-22.6,11.3-33.1,32.8-31.3,63.8
		c0.2,3.4,1.8,6.5,4.4,8.7c2.6,2.2,6,3.2,9.4,2.8l20.4-2.4l-0.3-8.3H978z"/>
	<path class="st2" d="M1101.5,1440.1c-0.6,0-1-0.4-1-1v-23.4L1082,1292c-3.7-1.1-24.5-6.5-49-5l-4.2,105.7
		c30.8-0.4,59.5,7.8,59.8,7.9c0.5,0.2,0.8,0.7,0.7,1.2c-0.1,0.4-0.5,0.7-1,0.7c-0.1,0-0.2,0-0.3,0c-0.3-0.1-28.8-8.2-59.3-7.8
		l-2.1,51.5h7.3c0.6,0,1,0.4,1,1v20.4c0,0.6-0.4,1-1,1h-8.2l-0.2,3.8l75.3-8.8c3.1-0.4,6-2.1,7.8-4.7c1.8-2.6,2.4-5.9,1.6-8.9
		l-2.5-9.9H1101.5z"/>
	<path class="st2" d="M1337.1,1419.8c-4.1-4.3-9-8.2-14.9-11.6c-31.1-17.8-53.9-13.3-63-10.1h1.1c0.6,0,1,0.4,1,1v38.9
		c36.2-1.3,79.1,28,86.5,33.3c1-3.1,3.3-11.8,2.3-22.2C1349.1,1437.8,1344.7,1428,1337.1,1419.8
		C1337.1,1419.9,1337.1,1419.9,1337.1,1419.8z"/>
	<path class="st9" d="M983.5,1401.8l-2.5-61.6l-10-30.6c0,0,0,0,0,0l-47.9-146H917v31.8c0,0.6-0.4,1-1,1h-17.9v25.7c0,0.6-0.4,1-1,1
		h-18.2l-7.8,195.1h91.8C968.1,1411.4,975,1405.9,983.5,1401.8z"/>
	<polygon class="st4" points="832.7,1495.2 866,1495.2 867.1,1468.6 831.6,1468.6 	"/>
	<polygon class="st9" points="802.6,1347.1 802.6,1418.2 827.6,1418.2 824.3,1336.2 	"/>
	<polygon class="st7" points="829.7,1448.2 822.4,1448.2 822.4,1466.6 830.6,1466.6 868.1,1466.6 876.3,1466.6 876.3,1448.2 
		868.9,1448.2 	"/>
	<path class="st4" d="M821.8,1223.1l4.5,111.5c0,0,0,0,0,0l3.4,84.6c0,0,0,0,0,0c0,0,0,0,0,0l1.1,27H868l1.1-27c0,0,0,0,0,0
		c0,0,0,0,0,0l7.9-196.1H821.8z"/>
	<path class="st9" d="M1340.4,1209.2l-26.6,192.5c3,1.4,6.2,3,9.4,4.8c6.2,3.5,11.1,7.5,15,11.6h6.9c1.6-5.3,12.3-41.1,17.1-82.7
		C1366.9,1294.8,1366.8,1240.3,1340.4,1209.2z"/>
	<path class="st5" d="M2008.1,939.4c-39.8,64.9-97.1,139.6-170.3,222c-11,12.4-22,24.6-33,36.5
		c-110.8,120.4-215.9,214.8-221.9,220.2h-44.5l4.6-114.3l394.7-520.6c0.3-0.4,0.2-1.1-0.2-1.4c-0.4-0.3-1.1-0.2-1.4,0.2l-393,518.3
		l3.1-77.3h18.2c0.6,0,1-0.4,1-1v-25.7h17.9c0.5,0,1-0.4,1-1v-31.8h24.7c0.5,0,1-0.4,1-1v-200h24.7c0.6,0,1-0.5,1-1v-37.9
		c71.2-100.8,137.5-175,197.2-220.5c58.1-44.3,110.3-61.5,155.5-51.5c10.9,2.4,21.4,6.4,31.5,12c32.5,18,51,44.9,54.9,80
		C2080.2,792.5,2057.8,858.4,2008.1,939.4z"/>
	<path class="st4" d="M1489,1223.1l5.8,143.9c0,0,0,0,0,0l2.1,52.2c0,0,0,0,0,0c0,0,0,0,0,0l1.1,27h37.3l1.1-27c0,0,0,0,0,0
		c0,0,0,0,0,0l7.9-196.1H1489z"/>
	<path class="st9" d="M1926.2,1291.4c-0.1,0.1-0.3,0.1-0.4,0.1c-0.2,0-0.4-0.1-0.6-0.2c-0.3-0.2-0.4-0.6-0.4-0.9l11-78.1
		c-47.9-34.9-95.7-43.4-101.1-44.3c-115,128.7-232.4,235.4-248.8,250.2h179.6v-14.9l-65.9-46.4c-0.5-0.3-0.6-0.9-0.2-1.4
		c0.3-0.5,0.9-0.6,1.4-0.2l64.7,45.6V1293c0-0.6,0.4-1,1-1c0.6,0,1,0.4,1,1v50.7l40.5-29.5c0.4-0.3,1.1-0.2,1.4,0.2
		c0.3,0.4,0.2,1.1-0.2,1.4l-41.6,30.4v71.9h274.2c-4.8-61-22.9-112.9-53.7-154.4L1926.2,1291.4z"/>
	<path class="st5" d="M802.6,1344.8V1263c0-0.5-0.4-1-1-1c-0.5,0-1,0.5-1,1v41.2l-40.9-23c-0.5-0.3-1.1-0.1-1.4,0.4
		c-0.3,0.5-0.1,1.1,0.4,1.4l41.9,23.6v89.3l-82.9-50.3c-0.5-0.3-1.1-0.1-1.4,0.3c-0.3,0.5-0.1,1.1,0.3,1.4l84,50.9v20H508.1
		c-0.2-8.9-0.6-78.5,27.2-154c27.3-73.9,88.1-168.7,222.8-200.9v99.2c0,0.6,0.4,1,1,1h22.5v31.8c0,0.6,0.5,1,1,1h17.9v25.7
		c0,0.6,0.5,1,1,1h18.2l4.4,111L802.6,1344.8z"/>
	<path class="st5" d="M2187.2,1344.6c-2.2-30.2-15.5-52.3-39.4-65.7c-33.3-18.7-65.3-18.8-95-0.2c-20.4,12.8-32.7,30.5-34.6,33.4
		c13.9,31.4,22.4,66.9,25.4,106.1h34.6l1.6-4l-33.2-48.6c-0.3-0.5-0.2-1.1,0.3-1.4c0.5-0.3,1.1-0.2,1.4,0.3l32.4,47.5l22.8-55.7
		l-19.4-33c-0.3-0.5-0.1-1.1,0.4-1.4c0.5-0.3,1.1-0.1,1.4,0.4l18.6,31.7l12.9-31.5c0.2-0.5,0.8-0.8,1.3-0.5c0.5,0.2,0.8,0.8,0.5,1.3
		l-26,63.6l51.4-14.1c0.5-0.1,1.1,0.2,1.2,0.7c0.1,0.5-0.2,1.1-0.7,1.2l-52.9,14.5l-11.9,29.2h95.3
		C2182.1,1399.1,2189.2,1371.2,2187.2,1344.6z"/>
	<path class="st5" d="M1492.8,1366.8l-39,51.4h-100.6c5.8-12.5,49.6-105.7,113.9-221.8h0.8v25.7c0,0.6,0.4,1,1,1h18.2L1492.8,1366.8
		z"/>
	<polygon class="st9" points="1456.3,1418.2 1494.8,1418.2 1492.9,1369.9 	"/>
	<polygon class="st7" points="1497,1448.2 1489.7,1448.2 1489.7,1466.6 1497.8,1466.6 1535.4,1466.6 1543.5,1466.6 1543.5,1448.2 
		1536.2,1448.2 	"/>
	<polygon class="st4" points="1499.9,1495.2 1533.3,1495.2 1534.3,1468.6 1498.9,1468.6 	"/>
	<rect x="1120.2" y="1184.2" class="st4" width="14.4" height="214"/>
	<polygon class="st7" points="977.3,1221.1 977.3,1221.1 1034.6,1221.1 1034.6,1221.1 1052.7,1221.1 1052.7,1196.3 959.2,1196.3 
		959.2,1221.1 	"/>
	<path class="st2" d="M979.6,1304.5c-2.2,1.6-4.4,3.3-6.5,5.1l7.6,23.3L979.6,1304.5z"/>
	<polygon class="st8" points="915,1194.3 915,1163.5 783.7,1163.5 783.7,1194.3 801.6,1194.3 897.1,1194.3 	"/>
	<path class="st2" d="M1311.9,1400.8l11.1-80.5c-5-2.2-38.7-16.4-78.8-8.6v86.5h9.9C1256.7,1396.8,1278.6,1386.3,1311.9,1400.8z"/>
	<path class="st4" d="M1344.7,1163.5h-83.4v19.7c0,0.6-0.4,1-1,1h-16.1v125.5c39.3-7.5,72.4,5.7,79.1,8.6L1344.7,1163.5z"/>
	<path class="st4" d="M1081.7,1289.8l-14-93.5h-13v25.7c0,0.6-0.4,1-1,1h-18.2l-2.5,61.9C1056.3,1283.6,1076.2,1288.3,1081.7,1289.8
		z"/>
	<polygon class="st8" points="1071.6,1194.3 1071.6,1163.5 940.3,1163.5 940.3,1194.3 958.2,1194.3 1053.7,1194.3 	"/>
	<path class="st4" d="M1225.8,1184.2h-11.3l-3.6,136.9c4.9-2.5,9.9-4.6,14.9-6.4V1184.2z"/>
	<path class="st2" d="M1225.8,1316.8c-5.1,1.8-10.1,4-15,6.6l-2,74.9h17V1316.8z"/>
	<path class="st4" d="M1033.5,1223.1h-55.2l8.9,223.1h37.3l6.4-160.1c0,0,0,0,0,0c0,0,0,0,0,0L1033.5,1223.1z"/>
	<path class="st4" d="M925.2,1163.5l47.2,144c2.3-1.9,4.6-3.7,7.1-5.4l-3.2-79h-18.2c-0.6,0-1-0.4-1-1v-25.7h-17.9c-0.6,0-1-0.4-1-1
		v-31.8H925.2z"/>
	<path class="st9" d="M615.2,1136.2c-2.4,2.3-4.9,4.7-7.2,7c-0.2,0.2-0.4,0.4-0.6,0.7c-31.6,32.2-56.5,72.4-73.9,119.6
		c-0.5,1.4-1,2.7-1.5,4.1L279.9,834c-0.3-0.5-0.9-0.6-1.4-0.4c-0.5,0.3-0.6,0.9-0.4,1.4l253,435.1c-25.5,73-25.1,139.1-24.9,148.1
		h-94.7c-5.3-6.7-79-101.2-148.7-221.1c-66.3-114.2-142.4-275.4-127.9-394.9c6-49.8,27.3-89.2,63.2-117.2c0.3-0.3,0.7-0.5,1-0.8
		c25-19,52.4-25,81.4-17.7c52.5,13.2,111.8,69.7,176.3,167.8C507.1,911,560.4,1012.5,615.2,1136.2z"/>
	<polygon class="st7" points="820.7,1221.1 820.7,1221.1 878,1221.1 878,1221.1 896.1,1221.1 896.1,1196.3 802.6,1196.3 
		802.6,1221.1 	"/>
	<path class="st5" d="M209,1307c-18.5,51.2,6.2,105.2,9,111.1h154.2l-20.1-27H292c-0.6,0-1-0.4-1-1c0-0.6,0.4-1,1-1h58.6l-46.3-62.1
		c-0.3-0.4-0.2-1.1,0.2-1.4c0.4-0.3,1.1-0.2,1.4,0.2l23.2,31.2l3.5-33c0.1-0.5,0.6-1,1.1-0.9c0.5,0.1,0.9,0.6,0.9,1.1l-3.7,35.2
		l43.8,58.8h34.2c-9.1-11.7-66.2-85.8-125.8-183.2C245.1,1251.6,220.2,1275.8,209,1307z"/>
	
		<ellipse transform="matrix(0.7071 -0.7071 0.7071 0.7071 130.7726 892.1404)" class="st10" cx="1142.3" cy="288.2" rx="24.6" ry="24.6"/>
	<path class="st10" d="M1288.9,263.8c-1.7,15.3-4.2,31.3-7.9,46.7c-8.3-4-14.1-12.4-14.1-22.2C1267,275.5,1276.6,265.1,1288.9,263.8
		z"/>
	<path class="st10" d="M1614.5,875.5c-45.3-24.4-76.1-72.3-76.1-127.4c0-33.8,11.6-65,31.1-89.6c11,9.5,22.3,19.2,33.9,29.2
		c28.2,24.3,44.8,59.6,45.5,96.8C1649.5,818.2,1637.1,850.8,1614.5,875.5z"/>
	<path class="st10" d="M910.8,882.6c-3.2,21.1-5.5,35.8-6.1,39.4h-102l71.6-43.4c0.9,0,1.8,0,2.7,0
		C888.6,878.6,899.9,880,910.8,882.6z"/>
	<path class="st9" d="M802.6,1344.8V1263c0-0.5-0.4-1-1-1c-0.5,0-1,0.5-1,1v41.2l-40.9-23c-0.5-0.3-1.1-0.1-1.4,0.4
		c-0.3,0.5-0.1,1.1,0.4,1.4l41.9,23.6v89.3l-82.9-50.3c-0.5-0.3-1.1-0.1-1.4,0.3c-0.3,0.5-0.1,1.1,0.3,1.4l84,50.9v20H637.1
		c3.3-68.3,23.7-189.5,121.1-259.1v3.5c0,0.6,0.4,1,1,1h22.5v31.8c0,0.6,0.5,1,1,1h17.9v25.7c0,0.6,0.5,1,1,1h18.2l4.4,111
		L802.6,1344.8z"/>
	<path class="st9" d="M1487,1223.1l5.8,143.7l-39,51.4h-89.2c6.5-13.6,45.9-94.9,103.3-196.8v0.7c0,0.6,0.4,1,1,1H1487z"/>
	<path class="st9" d="M1804.8,1198c-110.8,120.4-215.9,214.8-221.9,220.2h-44.5l4.6-114.3l394.7-520.6c0.3-0.4,0.2-1.1-0.2-1.4
		c-0.4-0.3-1.1-0.2-1.4,0.2l-393,518.3l3.1-77.3h18.2c0.6,0,1-0.4,1-1v-25.7h17.9c0.5,0,1-0.4,1-1v-31.8h24.7c0.5,0,1-0.4,1-1V992.6
		c7.1-10.2,14.3-20.2,21.5-30.1c1.4-1.9,2.8-3.8,4.2-5.7c109.7-149.1,231.4-262.7,322.2-204.1
		C2064.9,821.6,1947.5,1019.1,1804.8,1198z"/>
	<g>
		<g>
			<path class="st6" d="M1915,454.2c5.6,0,11.5-1,17.4-3.1c10.4-3.7,19-10.3,24.4-18.6c5.4-8.4,6.8-17.4,3.8-25.6l-45.3-126.4
				l184.3-66.1l42,117.1c-3.5-3.9-8.3-6.8-14-8.7c-9.4-3-20.3-2.6-30.7,1.1c-10.4,3.7-19,10.3-24.4,18.6c-5.4,8.4-6.8,17.4-3.8,25.6
				c2.9,8.1,9.7,14.3,19.2,17.3c4.2,1.3,8.6,2,13.2,2c5.7,0,11.7-1,17.4-3.1c10.4-3.7,19-10.3,24.4-18.6c5.4-8.4,6.8-17.4,3.8-25.6
				l-45.6-127.3l-9.9-27.7c-0.1-0.2-0.3-0.5-0.5-0.6c-0.2-0.1-0.5-0.1-0.8,0l-186.2,66.7c-0.5,0.2-0.8,0.8-0.6,1.3l9.9,27.7
				l42.3,118c-3.5-3.9-8.3-6.8-14-8.7c-9.4-3-20.3-2.6-30.7,1.1c-21.5,7.7-34.2,27.5-28.2,44.2
				C1886.9,447.1,1899.9,454.2,1915,454.2z M2141.3,364.7c-5.1,7.9-13.4,14.2-23.4,17.8c-10,3.6-20.4,4-29.4,1.1
				c-8.9-2.8-15.2-8.6-17.9-16.1c-2.7-7.5-1.4-16,3.6-23.8c5.1-7.9,13.4-14.2,23.4-17.8c5.6-2,11.2-3,16.7-3c4.4,0,8.6,0.6,12.6,1.9
				c8.9,2.8,15.2,8.6,17.9,16.1C2147.6,348.4,2146.3,356.9,2141.3,364.7z M1905.4,252.9l184.3-66.1l9.2,25.8l-184.3,66.1
				L1905.4,252.9z M1911.4,392.7c10-3.6,20.4-4,29.4-1.1c8.9,2.8,15.2,8.6,17.9,16.1c2.7,7.5,1.4,16-3.6,23.8
				c-5.1,7.9-13.4,14.2-23.4,17.8c-20.5,7.3-41.7,0.6-47.3-15C1878.8,418.7,1890.9,400,1911.4,392.7z"/>
			<path class="st6" d="M641.2,300.5c5.5,3.8,11.7,5.8,17.7,5.8c0.4,0,0.9,0,1.3,0c6.5-0.3,11.8-3.1,15-7.7l48.5-70.3L826,298.9
				l-44,63.8c0.3-2.9,0-5.9-1-9.1c-2-6.1-6.3-11.6-12.1-15.7c-5.9-4-12.6-6.1-19-5.8c-6.5,0.3-11.8,3.1-15,7.7
				c-3.2,4.6-3.9,10.6-1.9,16.7c2,6.1,6.3,11.6,12.1,15.7c5.5,3.8,11.7,5.8,17.7,5.8c0.4,0,0.9,0,1.3,0c6.5-0.3,11.8-3.1,15-7.7
				l49.1-71.1l10.7-15.5c0.2-0.2,0.2-0.5,0.2-0.7c0-0.3-0.2-0.5-0.4-0.6l-104-71.8c-0.5-0.3-1.1-0.2-1.4,0.3l-10.7,15.5L678,290.9
				c1-8.5-3.9-18.4-13.1-24.8c-12.2-8.4-27.4-7.6-34,1.9c-3.2,4.6-3.9,10.6-1.9,16.7C631,290.8,635.3,296.4,641.2,300.5z
				 M777.5,369.2c-2.8,4.1-7.6,6.5-13.4,6.8c-5.9,0.3-12.2-1.6-17.7-5.4c-5.5-3.8-9.5-9-11.4-14.7c-1.8-5.6-1.2-10.9,1.6-15
				c0,0,0,0,0,0c2.8-4.1,7.6-6.5,13.4-6.8c0.4,0,0.8,0,1.2,0c5.6,0,11.4,1.9,16.5,5.5c5.5,3.8,9.5,9,11.4,14.7
				C780.9,359.8,780.3,365.1,777.5,369.2z M734.3,212.8l102.4,70.7l-9.5,13.8l-102.4-70.7L734.3,212.8z M632.5,269.2
				c3.1-4.5,8.5-6.8,14.6-6.8c5.4,0,11.3,1.8,16.6,5.5c11.3,7.8,15.7,21.1,9.8,29.6c-2.8,4.1-7.6,6.5-13.4,6.8
				c-5.9,0.3-12.2-1.6-17.7-5.4c-5.5-3.8-9.5-9-11.4-14.7C629.1,278.6,629.7,273.3,632.5,269.2z"/>
			<path class="st6" d="M1430.8,291.3c8.6,7.1,18.7,10.7,27.9,10.7c8.5,0,16.2-3.1,21.3-9.2l77.5-94.3c7.7,10,17.2,18,28.2,23.9
				c5.8,3.1,12.1,5.6,18.1,8c4.1,1.6,8.4,3.3,12.4,5.2c12.2,5.6,20.1,11.8,25.1,19.6c6.1,9.6,6.9,21.9,2.1,33.8
				c-0.2,0.5,0,1,0.5,1.3c0.5,0.2,1,0.1,1.3-0.4c8.2-13,12.7-27.7,12.6-41.3c-0.1-13.7-4.8-26-13.2-34.5
				c-7.6-7.7-17.9-12.1-27.8-16.3c-2.6-1.1-5.2-2.2-7.8-3.4c-7.2-3.3-11.8-9-16.7-15c-3.2-4-6.6-8.1-10.8-11.6
				c-0.4-0.4-1.1-0.3-1.4,0.1l-95.7,116.4c3.6-12.5-2.2-28.5-15.4-39.4c-8-6.6-17.5-10.4-26.8-10.7c-9.3-0.3-17.3,3-22.5,9.2
				c-5.1,6.3-6.8,14.7-4.7,23.8C1417.3,276.2,1422.8,284.8,1430.8,291.3z M1581.1,169.8c3.7,3.2,6.8,7,9.8,10.7
				c4.8,5.9,9.8,12.1,17.4,15.6c2.6,1.2,5.3,2.3,7.8,3.4c9.7,4.2,19.8,8.5,27.1,15.9c8.1,8.2,12.5,19.9,12.6,33.2
				c0.1,10.7-2.7,22-8,32.6c1.8-9.6,0.2-19.2-4.8-27c-6.8-10.7-18.1-16.8-25.9-20.4c-4.1-1.9-8.4-3.6-12.5-5.2
				c-6-2.4-12.2-4.9-17.9-7.9c-10.9-5.8-20.3-13.8-27.9-23.7L1581.1,169.8z M1421.4,244.6c4.5-5.5,11.5-8.5,19.7-8.5
				c0.4,0,0.8,0,1.1,0c8.8,0.3,17.9,3.9,25.5,10.2c15.7,12.9,20.5,33.2,10.7,45.2c-9.9,12-30.7,11.2-46.4-1.7
				c-7.7-6.3-13-14.5-15-23.1C1415.1,258.2,1416.7,250.4,1421.4,244.6z"/>
			<path class="st6" d="M237.7,405.3c4.8,1.8,10.1,2.7,15.6,2.7c5,0,10.2-0.8,15.2-2.3c22-6.7,35.7-25.9,30.6-43l-38.4-126.6
				l-11.5-37.8c-0.2-0.5-0.7-0.8-1.2-0.7c-0.5,0.2-0.8,0.7-0.7,1.2l11.5,37.8l35.5,117.2c-8.9-10.9-26.7-15.3-44.5-9.9
				c-10.6,3.2-19.6,9.4-25.4,17.5c-5.8,8.1-7.7,17.2-5.2,25.5C221.8,395.2,228.3,401.7,237.7,405.3z M226.1,362.6
				c5.5-7.7,14.2-13.6,24.4-16.7c4.9-1.5,9.9-2.2,14.6-2.2c15.3,0,28.5,7.4,32.2,19.6c4.8,16-8.3,34.1-29.2,40.5
				c-10.2,3.1-20.7,2.9-29.6-0.4c-8.8-3.3-14.9-9.4-17.2-17C218.9,378.7,220.6,370.2,226.1,362.6z"/>
			<path class="st6" d="M1576.1,985.4H792c-0.6,0-1,0.4-1,1v151.1c0,0.6,0.4,1,1,1h784.2c0.6,0,1-0.4,1-1V986.4
				C1577.1,985.9,1576.7,985.4,1576.1,985.4z M1575.1,1136.6H793V987.4h782.2V1136.6z"/>
			<path class="st6" d="M1086,1074.8h196c0.6,0,1-0.4,1-1v-23.5c0-0.6-0.4-1-1-1h-196c-0.6,0-1,0.4-1,1v23.5
				C1085,1074.3,1085.5,1074.8,1086,1074.8z M1087,1051.3h194v21.5h-194V1051.3z"/>
			<path class="st6" d="M2208,1418.2h-30.2c13.3-39.9,26.4-109.9-29-141c-42.4-23.8-76.2-13.2-97.1-0.1c-19,11.9-31,27.9-34.5,32.9
				c-7.8-17.2-17.2-33.3-28.2-48c0,0,0,0-0.1-0.1c0-0.1-0.1-0.1-0.2-0.1c0,0-0.1-0.1-0.2-0.1c-0.1,0-0.1,0-0.2-0.1
				c-0.1,0-0.1,0-0.2,0c-0.1,0-0.1,0-0.2,0c-0.1,0-0.1,0-0.2,0c0,0-0.1,0-0.1,0l-60.8,27.2l10.8-76.9c0,0,0-0.1,0-0.1
				c0-0.1,0-0.1,0-0.2c0-0.1,0-0.1-0.1-0.2c0-0.1,0-0.1-0.1-0.2c0-0.1-0.1-0.1-0.1-0.2c0,0-0.1-0.1-0.1-0.1
				c-45.8-33.6-91.6-43.1-101.2-44.8c1-1.1,2-2.3,3-3.4c73.3-82.5,130.6-157.3,170.5-222.3c49.9-81.4,72.4-147.8,66.9-197.2
				c-4-35.8-22.8-63.2-55.9-81.5c-52.8-29.1-116.4-15.8-189.2,39.7c-59.7,45.5-126.1,119.7-197.2,220.5H1568l40.4-37.5
				c27.7-25.7,43.2-62.2,42.5-100c-0.7-37.8-17.5-73.6-46.2-98.3c-68.1-58.6-125.4-108-170.5-146.7l20.7-12.5c0,0,0,0,0.1-0.1
				c0.1,0,0.1-0.1,0.2-0.2c0,0,0.1-0.1,0.1-0.1c0-0.1,0.1-0.1,0.1-0.2c0-0.1,0-0.1,0-0.2c0,0,0-0.1,0-0.1c0,0,0-0.1,0-0.1
				c0,0,0-0.1,0-0.1c0-0.1-0.1-0.2-0.1-0.3c0,0,0,0,0,0c0,0,0,0,0,0c0,0,0,0,0,0l-13.7-22.2c-0.3-0.5-0.9-0.6-1.4-0.3l-28.4,17.2
				c-49.3-42.3-78-66.8-87.7-74.8c-19.4-16.1-41.6-22.1-59.4-23.9c-0.2-0.1-0.4-0.1-0.6-0.1c-0.1,0-0.1,0-0.2,0
				c-15.6-1.5-27.7,0.1-31.5,0.7l1.3-32c6-2.5,11.6-6.2,16.7-11.2c25.7-24.7,36.3-76.5,40.6-115.5c1.1-9.8,1.8-19.3,2.4-28.1
				c4.6-3.2,47.7-34.3,53.7-71.5c2.4-15.1-1.5-29.3-11.5-42.3c-11.3-14.5-27.8-20.3-48-16.6c-12.6,2.3-23,7.7-26.2,9.4
				c-1.9-3.9-9.3-18.1-24-30.5c-15.8-13.3-43.4-27.2-85.4-17.9c-33.2,7.4-49.6,32-57.5,51.4c-7.7,18.8-9,36.5-9.2,40
				c-4.1,2-29.8,15.4-33.5,39.9c-3.8,24.9,11.5,49.8,13.5,52.9c-0.7,5.1-0.8,10.2-0.7,15.5c0.2,9.7,0.8,19.9,6,28.2
				c3.6,5.8,9.4,10.2,16,12.2c6.8,2.1,12.5,2.3,17.7,0.5l-15.6,99.8c-3.5-0.7-15.5-2.9-33.1-3.2c-0.1-0.1-0.3-0.1-0.4-0.1
				c-0.1,0-0.2,0-0.3,0.1c-22.7-0.2-54.5,2.8-89.7,16.1c-40.1,15.2-76.8,40.7-108.8,75.8c-35.7,39-65.8,90.1-89.7,151.9
				c0,0,0,0,0,0.1c-2.8,7.2-5.5,14.5-8.1,22c-28.7-13.2-60-25.1-81.1-16.7c-8.9,3.5-15.4,10.6-19.4,20.9c-1.1,2.8-1.8,5.7-2.3,8.7
				c-5.4-0.5-31.5-1.7-49.2,13.6c-10.9,9.5-16.7,23.4-17.1,41.5c-2.4,1.4-12.8,8.2-21,20c-8.5,12.2-16.2,32.2-4.2,58.4
				c11,24.2,31.9,49.1,50.5,68.4c0,0,0,0,0,0c8.3,8.6,16,16,22.3,21.8c3.8,3.5,8.7,5.4,13.7,5.4c2,0,4-0.3,6-0.9
				c6.8-2.1,11.9-7.4,13.5-14.2c1-4.1,1.2-8.4,0.7-12.7c1-0.3,2-0.7,2.9-1.2c1.3,0.2,5.7,0.9,12.1,0.9c4,0,8.7-0.3,13.9-1.1
				c1.4,5.5,10,36.5,32.6,53.3v26.4c0,0.6,0.4,1,1,1h24.7v98.7c-55.6,13.2-103.1,37.9-141.4,73.6c-54.7-123.5-107.9-225-158.3-301.6
				c-64.8-98.6-124.5-155.3-177.5-168.7c-30-7.6-58.3-1.2-84.1,18.8c-36.4,28.3-57.9,68.2-64,118.5c-6.4,53.1,4.2,118.6,31.6,194.7
				c21.8,60.9,54.4,128.6,96.6,201.4c7,12,14,23.7,21,35.2c-38.3,16.8-63.5,41.4-74.9,73.1c-18,50,4.4,102.5,8.7,111.8h-63
				c-0.6,0-1,0.4-1,1s0.4,1,1,1h64.6c0,0,0,0,0,0c0,0,0,0,0,0h610.3l1,26h-7.3c-0.6,0-1,0.4-1,1v20.4c0,0.6,0.4,1,1,1h8.2l1.1,27.5
				c0,0.5,0.5,1,1,1H867c0.5,0,1-0.4,1-1l1.1-27.5h8.2c0.6,0,1-0.4,1-1v-20.4c0-0.6-0.4-1-1-1H870l1-26h90.4
				c-8.5,12.1-12.2,28.1-11,47.8c0.2,4,2.1,7.6,5.1,10.1c2.6,2.2,5.9,3.4,9.2,3.4c0.6,0,1.1,0,1.7-0.1l20.2-2.4l0.7,17.2
				c0,0.5,0.5,1,1,1h35.3c0.5,0,1-0.4,1-1l0.9-21.8l75.6-8.8c3.7-0.4,7.1-2.5,9.2-5.5c2.1-3.1,2.8-6.9,1.9-10.5l-2.4-9.4h90.9
				l-0.5,2.3c-1.6,7.2,2.8,14.3,9.9,16.2c21.9,5.8,70.5,17.3,111.8,17.3c9.4,0,18.5-0.6,26.8-2c0,0,0,0,0,0c0,0,0,0,0.1,0
				c0,0,0.1,0,0.1-0.1c0.1,0,0.2-0.1,0.2-0.1c0,0,0.1-0.1,0.1-0.1c0.1-0.1,0.1-0.1,0.2-0.2c0,0,0,0,0.1-0.1
				c0.1-0.4,10.9-29.5-9.3-53.2h5.8c0,0,0,0,0,0s0,0,0,0h5.8c0,0,0,0,0,0s0,0,0,0h143.3l1,26h-7.3c-0.6,0-1,0.4-1,1v20.4
				c0,0.6,0.4,1,1,1h8.2l1.1,27.5c0,0.5,0.5,1,1,1h35.3c0.5,0,1-0.4,1-1l1.1-27.5h8.2c0.6,0,1-0.4,1-1v-20.4c0-0.6-0.4-1-1-1h-7.3
				l1-26h540.7c0,0,0,0,0,0s0,0,0,0h97.5c0,0,0,0,0,0s0,0,0,0h31.5c0.6,0,1-0.4,1-1S2208.5,1418.2,2208,1418.2z M1603.4,687.7
				c28.2,24.3,44.8,59.6,45.5,96.8c0.7,37.2-14.6,73.1-41.8,98.5l-42,39h-55.2l-84.2-317.3c17.7-11.3,36.2-19,54.9-22.7
				C1516.3,612.7,1557.4,648.1,1603.4,687.7z M1416,901.9c-0.4-0.4-1-0.5-1.4-0.1l-22.8,20.2h-40.6l1.3-10.8l30.8-28.1
				c0.4-0.4,0.4-1,0.1-1.4c-0.4-0.4-1-0.4-1.4-0.1l-29.1,26.6l8-66.4c0-0.3-0.1-0.6-0.2-0.8c-0.2-0.2-0.5-0.3-0.7-0.3h-54.4v-30.7
				c0-0.6-0.4-1-1-1h-22.4c7.7-3.7,27.3-11.9,53.7-14c31.5-2.4,79.2,3.8,128.2,47.2l21.2,79.9h-90.4l21.1-18.7
				C1416.4,902.9,1416.4,902.3,1416,901.9z M1340.6,859.7c0-0.3,0-0.6-0.2-0.8c-0.2-0.2-0.5-0.3-0.8-0.3h-313.3
				c-0.3,0-0.6,0.1-0.8,0.3c-0.2,0.2-0.3,0.5-0.2,0.8l8.6,62.3h-17.2l-9.6-79.4h54.2h243.3h54.2l-9.6,79.4H1332L1340.6,859.7z
				 M1330,922h-294.1l-8.4-61.4h311L1330,922z M917.3,852.5l459.5-278.4l1.8,5.8c0.8,2.5,2.7,4.5,5.1,5.4c1,0.4,2,0.6,3.1,0.6
				c1.5,0,3-0.4,4.4-1.2l3.9-2.3l9.3,35.2c-41.5,34-66.4,79-71,87.8l-30.3-44.9c-0.3-0.5-0.9-0.6-1.4-0.3c-0.5,0.3-0.6,0.9-0.3,1.4
				l15.3,22.7l-7.3,112.8c-18.3,4.5-30,10.8-31.7,11.7h-216.6c-0.6,0-1,0.4-1,1v30.7H1006c-0.3,0-0.6,0.1-0.7,0.3
				c-0.2,0.2-0.3,0.5-0.2,0.8l9.7,80.3h-108C907.6,916.2,912,888.6,917.3,852.5z M904.7,922h-102l112.4-68.1
				C909.8,889.8,905.5,917,904.7,922z M1378.6,573.1l41.9-25.4l2.8,10c0.8,2.9-0.4,5.9-3,7.4l-30.1,17.9c-1.7,1-3.8,1.2-5.7,0.5
				c-1.9-0.7-3.3-2.2-3.9-4.2L1378.6,573.1z M1419.5,707.5c0.4-0.4,0.5-1,0.1-1.4c-0.4-0.4-1-0.5-1.4-0.1l-53.1,46.1l-30.3-44.8
				c2.8-5.4,27.6-52.3,70.3-87.6l58.1,218.9c-48.7-42.1-96.1-48.2-127.5-45.7c-6.1,0.5-11.8,1.3-17,2.3L1419.5,707.5z M1314.7,796
				c-1,0.2-2.1,0.5-3.1,0.7l7.1-109.6l44.9,66.4L1314.7,796z M1303.6,810.9v29.7H1184v-29.7H1303.6z M1182,810.9v29.7h-119.7v-29.7
				H1182z M1406.6,617.7C1406.6,617.7,1406.6,617.7,1406.6,617.7l-9.6-36.4l17.7-10.5l93.2,351.2h-20.5L1406.6,617.7z M1478.6,580.3
				c-18.2,3.9-36.2,11.4-53.5,22.4l-8.7-32.9l4.9-2.9c0,0,0,0,0,0c3.3-2,4.9-6,3.9-9.7l-3-10.5l10-6.1
				C1446.6,552.7,1462,566,1478.6,580.3z M1412.1,522.2l28.1-17l12.7,20.5l-32.3,19.6l-43.7,26.5c0,0,0,0,0,0L915.8,851.1
				c0,0,0,0,0,0l-117,70.9h-46.5L1412.1,522.2z M1053.9,197.5c3.9-25.5,32.6-38.6,32.9-38.7c0.4-0.2,0.6-0.5,0.6-0.9
				c0-0.2,0.7-19.3,9.1-39.9c7.7-18.9,23.7-43,56.1-50.1c41.1-9.1,68.2,4.5,83.6,17.5c16.8,14.1,23.9,30.6,24,30.8
				c0.1,0.3,0.3,0.5,0.6,0.6c0.3,0.1,0.6,0.1,0.8-0.1c0.5-0.3,46.4-27.5,72.5,6.2c9.7,12.6,13.5,26.3,11.1,40.7
				c-5.5,34.1-43.1,63.1-51.6,69.3c1.5-27.9,0.8-48.5,0.8-48.8c0-0.2-0.1-0.4-0.2-0.6c-12.7-16.8-50.7-18.9-52.3-18.9
				c-0.3,0-0.6,0.1-0.8,0.4c-0.2,0.3-21,27.5-44.1,38.2c-22.5,10.5-38.3-9.1-39-9.9c-0.3-0.3-0.7-0.5-1.1-0.3
				c-0.4,0.1-0.7,0.5-0.7,0.9c0,0.4-4.1,38.5-13.2,47.1c-8,7.6-18.3,3.9-20.7,2.9c-0.3-3.6-2-7.4-4.9-10.3
				c-3.5-3.5-8.4-5.9-15.4-7.7c-9.1-2.2-16.3-1.9-22,1c-6.1,3-10.9,9.3-13.3,17.2c-0.3,1-0.6,2.1-0.8,3.2
				C1061.9,240.3,1050.6,218.8,1053.9,197.5z M1106.6,305.1c0.1-0.4-0.1-0.7-0.4-0.9c-0.3-0.2-0.7-0.3-1-0.1
				c-5.2,2.3-10.9,2.3-17.9,0.1c-6.1-1.9-11.5-6-14.8-11.4c-5-7.9-5.5-17.8-5.7-27.2c-0.1-7.3-0.1-14.3,1.9-21
				c2.2-7.4,6.6-13.2,12.2-16c5.3-2.6,12.1-2.9,20.7-0.8c6.7,1.6,11.3,3.9,14.5,7.1c4,4.1,5.5,10,3.5,14.3c-0.2,0.5,0,1.1,0.5,1.3
				c0.5,0.2,1.1,0,1.3-0.5c0.6-1.3,0.9-2.7,1-4.2c3.7,1.3,14,4,22-3.6c8.4-8,12.6-37.7,13.6-46.2c4.7,4.9,20,18,39.8,8.8
				c21.9-10.2,41.7-34.8,44.5-38.4c4.6,0.3,38.5,3,50.1,17.9c0.3,7.7,4.1,147.6-43.3,193.2c-11,10.6-24.1,15.3-38.9,14.2
				c-29.5-2.3-53.7-19.9-71.7-52.2c-0.3-0.5-0.9-0.7-1.4-0.4c-0.5,0.3-0.7,0.9-0.4,1.4c18.4,33,43.1,50.9,73.3,53.3
				c1.5,0.1,3,0.2,4.5,0.2c6,0,11.7-1,17.2-3l-2.1,51.9c-0.3,1.1-3.5,12.1-13.7,21.6c-14.1,13.2-35.1,17.8-60.7,13.2
				c-34.5-6.2-50.6-22.6-58-35.2c-7.8-13.2-8-25.2-8-26.2L1106.6,305.1z M1088.5,408.3l-1.2,7.7c0,0,0,0.1,0,0.1
				c0,0.5-0.1,13,8.2,27.2c7.6,13.1,24.1,29.9,59.4,36.3c6.9,1.2,13.2,1.8,18.9,1.8c21.9,0,35.6-8,43.6-15.6
				c11-10.4,14.1-22.1,14.2-22.6c0-0.1,0-0.1,0-0.2l0.8-18.9c3.1-0.5,15.1-2.3,30.9-0.8c2.6,24.3-4.3,48-19.1,65
				c-14.2,16.4-34.3,25.4-58.3,26c-1.8,0-3.5,0.1-5.2,0.1c-60.3,0-90.9-29.1-105.9-53.9c-14.9-24.6-18-49.8-18.5-55.3
				C1073.6,405.5,1085.3,407.6,1088.5,408.3z M965.8,421.2c34.7-13.2,66.1-16.2,88.5-16c0.5,5.3,3.5,31.2,18.7,56.3
				c10,16.5,23.3,29.6,39.5,38.8c18.9,10.7,41.8,16.2,68.2,16.2c1.8,0,3.5,0,5.3-0.1c24.5-0.7,45.2-9.9,59.7-26.7
				c15-17.4,22.1-41.4,19.6-66.1c17.3,1.9,38.7,7.8,57.4,23.4c9.6,8,38.2,32.3,87.1,74.4L922.5,816.6
				c8.6-61.3,18.9-141.8,19.7-181.5c0-0.6-0.4-1-1-1c-0.6,0-1,0.4-1,1c-0.3,15.7-2.1,37.9-4.7,62.7c-5.2-3.9-24.5-17.6-51.2-30.1
				c-28.5-13.3-71.5-27.7-115.1-21.6C825.6,501.1,906.4,443.7,965.8,421.2z M668.4,895.5c-1.5,6.2-6.1,10.9-12.2,12.8
				c-6.3,1.9-12.9,0.4-17.7-4c-6.2-5.7-13.8-13-21.9-21.4c0.1-1.8,1-9,5.6-12.6c2.5-2,5.9-2.5,9.9-1.5c0.5,0.1,1.1-0.2,1.2-0.7
				c0.1-0.5-0.2-1.1-0.7-1.2c-4.7-1.1-8.6-0.4-11.6,1.9c-4.3,3.3-5.7,9.1-6.2,12.3c-18.1-18.9-38-43-48.6-66.3
				c-9.3-20.3-8-39.3,4-56.4c7.1-10.1,15.9-16.5,19.4-18.8c0.3,50.4,48.9,114.6,70,140.1c2.1,2.6,5.2,4,8.6,4c0.2,0,0.3,0,0.5,0
				c0.1,0,0.3,0,0.4,0C669.6,887.6,669.4,891.6,668.4,895.5z M668.6,881.6c-2.9,0.1-5.6-1.1-7.4-3.3c-7.1-8.6-17.3-21.5-27.7-36.9
				c0.3-1.4,1.9-7.6,6.9-10.9c3.3-2.2,7.5-2.7,12.4-1.5c0.5,0.1,1.1-0.2,1.2-0.7c0.1-0.5-0.2-1.1-0.7-1.2c-5.5-1.3-10.2-0.7-14,1.8
				c-4.4,2.9-6.4,7.6-7.3,10.4c-20.3-30.2-40.9-69.1-40.3-101.5c0.3-17.7,5.8-31.4,16.4-40.6c17.1-14.8,42.4-13.6,47.6-13.2
				c-0.2,2.1-0.2,4.2-0.1,6.3l7.1,144.3c0.3,5.3,3.2,10,7.9,12.6c2.3,1.3,4.8,1.9,7.3,1.9c2,0,3.9-0.4,5.7-1.2
				c0.6,14.4-3.9,24.1-7.8,29.8C674,880.1,671.4,881.5,668.6,881.6z M732.5,923v9.6c-20.9-16.4-29.1-45.4-30.6-51.1
				c9.7-1.7,20.9-5.2,32.1-12.1c0.5-0.3,0.6-0.9,0.3-1.4c-0.3-0.5-0.9-0.6-1.4-0.3c-24.9,15.3-49.7,13.5-56.9,12.5
				c0.4-0.4,0.8-0.9,1.2-1.4c4.2-6.1,9-16.5,8.1-31.9c7.4-4.3,13.3-10.9,17.6-19.7c13.1-27,20.5-135.1,20.8-139.7
				c0-0.6-0.4-1-0.9-1.1c-0.6,0-1,0.4-1.1,0.9c-0.1,1.1-7.6,112.4-20.6,139c-4.2,8.7-10.1,15.1-17.3,19.1c-3.9,2.2-8.6,2.1-12.5-0.1
				c-4.1-2.3-6.6-6.4-6.8-11L662,782c1.8-1.2,9-5.7,17-3.4c7.3,2.1,13.3,9.3,17.6,21.4c0.1,0.4,0.5,0.7,0.9,0.7c0.1,0,0.2,0,0.3-0.1
				c0.5-0.2,0.8-0.8,0.6-1.3c-4.6-12.7-11-20.3-19-22.6c-7.7-2.2-14.6,1.2-17.6,3l-4.4-89.6c-0.1-2.4,0-4.7,0.2-6.9c0,0,0,0,0,0
				c0,0,0,0,0,0c0.4-3.2,1.1-6.3,2.3-9.2c3.8-9.9,9.8-16.4,18.3-19.8c24.7-9.8,64.9,9.5,97.2,25.1c13.2,6.4,24.7,11.9,33.6,14.8
				c16.3,5.3,39.9,7.6,70,6.9c8.4-0.2,15.6,4.9,18.3,12.9c2.6,8-0.1,16.3-7,21.2c-44.7,31.4-100.4,15-101,14.8
				c-0.5-0.2-1.1,0.1-1.2,0.7c-0.2,0.5,0.1,1.1,0.7,1.2c0.3,0.1,12.5,3.7,30.2,4.4c-3.1,28.6-20.3,42.6-20.5,42.7
				c-0.4,0.3-0.5,1-0.2,1.4c0.2,0.3,0.5,0.4,0.8,0.4c0.2,0,0.4-0.1,0.6-0.2c0.2-0.1,18.1-14.6,21.3-44.2c1.8,0,3.7,0.1,5.7,0
				l28.9,71.2c0.2,0.4,0.5,0.6,0.9,0.6c0.1,0,0.3,0,0.4-0.1c0.5-0.2,0.8-0.8,0.6-1.3l-28.6-70.5c19-0.5,42-5,62.7-19.6
				c7.6-5.4,10.7-14.6,7.7-23.4c-2.9-8.9-10.8-14.5-20.2-14.3c-29.9,0.7-53.2-1.5-69.3-6.8c-8.8-2.9-20.2-8.3-33.4-14.7
				c-5.1-2.5-10.5-5-15.9-7.6c2.6-7.4,5.2-14.7,7.9-21.7c43.5-6.5,86.5,7.9,115,21.2c28.6,13.3,48.7,28.2,51.8,30.6
				c-4,37.8-9.8,81.3-15,117.9L748.4,922h-14.9C733,922,732.5,922.5,732.5,923z M734.5,960.5V924h281.3h19.2h295.8h19.2h283.4v36.5
				h-24.7H759.2H734.5z M1468.8,1194.3h-17.9v-30.8h131.3v30.8h-17.9H1468.8z M1563.4,1196.3v24.7h-18.1c0,0,0,0,0,0H1488
				c0,0,0,0,0,0h-18.1v-24.7H1563.4z M1449.9,1161.5h-189.6h-158.8h-28.9H939.3H916H782.7h-22.5v-199h847.7v199h-24.7H1449.9z
				 M1226.8,1182.2h-91.2h-16.4h-16.7v-18.7h156.8v18.7h-16.1H1226.8z M1242.2,1184.2v214h-14.4v-82.8c0,0,0,0,0,0v-131.2H1242.2z
				 M1211.7,1215.4l-4.8,182.8h-45.7C1162.1,1358.6,1169.2,1264.6,1211.7,1215.4z M1159.1,1398.2h-22.5v-214h75.9l-0.7,28.1
				C1167.5,1261.5,1160.2,1357.9,1159.1,1398.2z M1210.8,1323.3c4.9-2.5,9.9-4.7,15-6.6v81.4h-17L1210.8,1323.3z M1210.9,1321.1
				l3.6-136.9h11.3v130.4C1220.8,1316.4,1215.7,1318.6,1210.9,1321.1z M1134.6,1184.2v214h-14.4v-214H1134.6z M1031,1286.1
				l-6.4,160.1h-37.3l-8.9-223.1h55.2L1031,1286.1C1031,1286.1,1031,1286.1,1031,1286.1C1031,1286.1,1031,1286.1,1031,1286.1z
				 M939.3,1196.3h17.9v25.7c0,0.6,0.4,1,1,1h18.2l3.2,79c-2.4,1.7-4.8,3.5-7.1,5.4l-47.2-144h13.1v31.8
				C938.3,1195.9,938.7,1196.3,939.3,1196.3z M958.2,1194.3h-17.9v-30.8h131.3v30.8h-17.9H958.2z M1052.7,1196.3v24.7h-18.1
				c0,0,0,0,0,0h-57.3c0,0,0,0,0,0h-18.1v-24.7H1052.7z M979.6,1304.5l1.1,28.4l-7.6-23.3C975.2,1307.7,977.4,1306.1,979.6,1304.5z
				 M1035.5,1223.1h18.2c0.6,0,1-0.4,1-1v-25.7h13l14,93.5c-5.5-1.5-25.4-6.3-48.6-4.8L1035.5,1223.1z M1069.7,1196.3h2.9
				c0.6,0,1-0.4,1-1v-31.8h26.9v19.7c0,0.6,0.4,1,1,1h16.7v214h-16.7c-0.6,0-1,0.4-1,1v2.9l-16.6-111c0,0,0,0,0,0L1069.7,1196.3z
				 M1244.2,1311.7c40.1-7.8,73.9,6.4,78.8,8.6l-11.1,80.5c-33.3-14.6-55.2-4-57.8-2.6h-9.9V1311.7z M1244.2,1309.7v-125.5h16.1
				c0.6,0,1-0.4,1-1v-19.7h83.4l-21.4,154.8C1316.6,1315.4,1283.5,1302.2,1244.2,1309.7z M801.6,1194.3h-17.9v-30.8H915v30.8h-17.9
				H801.6z M896.1,1196.3v24.7H878c0,0,0,0,0,0h-57.3c0,0,0,0,0,0h-18.1v-24.7H896.1z M374.7,1418.2l-43.8-58.8l3.7-35.2
				c0.1-0.5-0.3-1-0.9-1.1c-0.5-0.1-1,0.3-1.1,0.9l-3.5,33l-23.2-31.2c-0.3-0.4-1-0.5-1.4-0.2c-0.4,0.3-0.5,1-0.2,1.4l46.3,62.1H292
				c-0.6,0-1,0.4-1,1c0,0.6,0.4,1,1,1h60.1l20.1,27H218c-2.9-6-27.5-59.9-9-111.1c11.3-31.2,36.2-55.5,74.1-72.1
				c59.6,97.4,116.7,171.5,125.8,183.2H374.7z M411.4,1418.2c-5.3-6.7-79-101.2-148.7-221.1c-66.3-114.2-142.4-275.4-127.9-394.9
				c6-49.8,27.3-89.2,63.2-117.2c25.3-19.6,53-25.9,82.4-18.4c52.5,13.2,111.8,69.7,176.3,167.9c50.4,76.6,103.7,178.2,158.4,301.9
				c-2.4,2.3-4.9,4.7-7.2,7c-31.9,32.3-57,72.7-74.5,120.2c-0.5,1.4-1,2.7-1.5,4.1L279.9,834c-0.3-0.5-0.9-0.6-1.4-0.4
				c-0.5,0.3-0.6,0.9-0.4,1.4l253,435.1c-25.5,73-25.1,139.1-24.9,148.1H411.4z M801.6,1262c-0.6,0-1,0.4-1,1v41.2l-40.9-23
				c-0.5-0.3-1.1-0.1-1.4,0.4c-0.3,0.5-0.1,1.1,0.4,1.4l41.9,23.6v89.4l-83-50.3c-0.5-0.3-1.1-0.1-1.4,0.3c-0.3,0.5-0.1,1.1,0.3,1.4
				l84,50.9v20H508.1c-0.2-8.9-0.6-78.5,27.2-154c27.3-73.9,88.1-168.7,222.8-200.9v99.2c0,0.6,0.4,1,1,1h22.5v31.8c0,0.6,0.4,1,1,1
				h17.9v25.7c0,0.6,0.4,1,1,1h18.2l4.5,111l-21.6,10.8V1263C802.6,1262.5,802.1,1262,801.6,1262z M802.6,1418.2v-71.1l21.7-10.9
				l3.3,81.9H802.6z M866,1495.2h-33.4l-1.1-26.5h35.5L866,1495.2z M876.3,1448.2v18.4h-8.1h-37.6h-8.1v-18.4h7.3h39.2H876.3z
				 M869.1,1419.1C869.1,1419.1,869.1,1419.2,869.1,1419.1C869.1,1419.2,869.1,1419.2,869.1,1419.1l-1.1,27.1h-37.3l-1.1-27
				c0,0,0,0,0,0c0,0,0,0,0,0l-3.4-84.6c0,0,0,0,0,0l-4.5-111.5h55.2L869.1,1419.1z M871.1,1418.2l7.8-195.1h18.2c0.6,0,1-0.4,1-1
				v-25.7H916c0.6,0,1-0.4,1-1v-31.8h6.1l47.9,146c0,0,0,0,0,0l10,30.6l2.5,61.6c-8.5,4.1-15.4,9.6-20.7,16.4H871.1z M966.2,1479.3
				c-3.4,0.4-6.8-0.6-9.4-2.8c-2.6-2.2-4.2-5.3-4.4-8.7c-1.9-31,8.6-52.5,31.3-63.8l1.7,42.2H978c-0.6,0-1,0.4-1,1v20.4
				c0,0.6,0.4,1,1,1h8.2l0.3,8.3L966.2,1479.3z M1022.6,1495.2h-33.4l-1.1-26.5h35.5L1022.6,1495.2z M1024.7,1466.6h-37.6H979v-18.4
				h7.3h39.2h7.3v18.4H1024.7z M1110.2,1450c0.8,3.1,0.2,6.3-1.6,8.9c-1.8,2.6-4.6,4.3-7.8,4.7l-75.3,8.8l0.2-3.8h8.2
				c0.6,0,1-0.4,1-1v-20.4c0-0.6-0.4-1-1-1h-7.3l2.1-51.5c30.5-0.4,59,7.8,59.3,7.8c0.1,0,0.2,0,0.3,0c0.4,0,0.8-0.3,1-0.7
				c0.2-0.5-0.2-1.1-0.7-1.2c-0.3-0.1-29-8.3-59.8-7.9l4.2-105.7c24.5-1.5,45.3,3.9,49,5l18.5,123.7v23.4c0,0.6,0.4,1,1,1h6.2
				L1110.2,1450z M1102.5,1438.1v-37.9h16.7h16.4h24.5c0,0,0,0,0,0c0,0,0,0,0,0h66.7h16.4h16.1v37.9H1102.5z M1210.5,1456.8
				c-6.1-1.6-9.8-7.7-8.5-13.9l0.6-2.8h57.7c0,0,0,0,0,0c0,0,0,0,0,0c34.6-1.9,76,25.7,85.4,32.3
				C1301.8,1478.9,1236.8,1463.7,1210.5,1456.8z M1350.2,1449.2c0.9,10.4-1.3,19.1-2.3,22.2c-7.4-5.3-50.3-34.6-86.5-33.3v-38.9
				c0-0.6-0.4-1-1-1h-1.1c9.1-3.2,31.8-7.8,63,10.1c5.9,3.4,10.8,7.2,14.9,11.6c0,0,0,0,0,0
				C1344.7,1428,1349.1,1437.8,1350.2,1449.2z M1345.1,1418.2h-6.9c-3.9-4.1-8.8-8.1-15-11.6c-3.2-1.8-6.3-3.4-9.4-4.8l26.6-192.5
				c26.4,31.1,26.5,85.7,21.8,126.3C1357.4,1377.1,1346.8,1412.9,1345.1,1418.2z M1351,1418.2h-3.8c2.1-7,12.3-42,17-82.5
				c4.8-41.6,4.6-97.7-23.4-129.2l5.9-43h102.2v31.8c0,0.6,0.4,1,1,1h14.8C1399,1315.3,1354.8,1410,1351,1418.2z M1353.2,1418.2
				c5.8-12.5,49.6-105.7,113.9-221.8h0.8v25.7c0,0.6,0.4,1,1,1h18.2l5.8,143.7l-39,51.4H1353.2z M1456.3,1418.2l36.6-48.3l1.9,48.3
				H1456.3z M1533.3,1495.2h-33.4l-1.1-26.5h35.5L1533.3,1495.2z M1543.5,1448.2v18.4h-8.1h-37.6h-8.1v-18.4h7.3h39.2H1543.5z
				 M1536.3,1419.2C1536.3,1419.2,1536.3,1419.2,1536.3,1419.2C1536.3,1419.2,1536.3,1419.2,1536.3,1419.2l-1.1,27H1498l-1.1-27
				c0,0,0,0,0,0c0,0,0,0,0,0l-2.1-52.2c0,0,0,0,0,0l-5.8-143.9h55.2L1536.3,1419.2z M1538.4,1418.2l4.6-114.3l394.7-520.6
				c0.3-0.4,0.2-1.1-0.2-1.4c-0.4-0.3-1.1-0.2-1.4,0.2l-393,518.3l3.1-77.3h18.2c0.6,0,1-0.4,1-1v-25.7h17.9c0.6,0,1-0.4,1-1v-31.8
				h24.7c0.6,0,1-0.4,1-1v-200h24.7c0.6,0,1-0.4,1-1v-37.9c71.2-100.9,137.5-175,197.1-220.5c72.1-55,135-68.3,187-39.6
				c32.5,18,51,44.9,54.9,80c5.5,49-16.9,114.9-66.6,195.9c-39.8,64.9-97.1,139.6-170.3,222c-122,137.3-248.3,250.8-254.9,256.7
				H1538.4z M1767.5,1418.2v-71.9l41.6-30.4c0.4-0.3,0.5-1,0.2-1.4c-0.3-0.4-1-0.5-1.4-0.2l-40.5,29.5V1293c0-0.6-0.4-1-1-1
				c-0.6,0-1,0.4-1,1v107.8l-64.7-45.6c-0.5-0.3-1.1-0.2-1.4,0.2c-0.3,0.5-0.2,1.1,0.2,1.4l65.9,46.4v14.9h-179.6
				c16.4-14.8,133.9-121.5,248.8-250.2c5.4,0.9,53.2,9.4,101.1,44.3l-11,78.1c-0.1,0.4,0.1,0.7,0.4,0.9c0.2,0.1,0.4,0.2,0.6,0.2
				c0.1,0,0.3,0,0.4-0.1l61.7-27.6c30.9,41.5,49,93.4,53.7,154.4H1767.5z M2175.7,1418.2h-95.3l11.9-29.2l52.9-14.5
				c0.5-0.1,0.8-0.7,0.7-1.2c-0.1-0.5-0.7-0.8-1.2-0.7l-51.4,14.1l26-63.6c0.2-0.5,0-1.1-0.5-1.3c-0.5-0.2-1.1,0-1.3,0.5l-12.9,31.5
				l-18.6-31.7c-0.3-0.5-0.9-0.6-1.4-0.4c-0.5,0.3-0.6,0.9-0.4,1.4l19.4,33l-22.8,55.7l-32.4-47.5c-0.3-0.5-0.9-0.6-1.4-0.3
				c-0.5,0.3-0.6,0.9-0.3,1.4l33.2,48.6l-1.6,4h-34.6c-3.1-39.2-11.6-74.7-25.4-106.1c1.9-2.9,14.2-20.6,34.6-33.4
				c29.7-18.6,61.7-18.5,95,0.2c23.9,13.4,37.2,35.5,39.4,65.7C2189.2,1371.2,2182.1,1399.1,2175.7,1418.2z"/>
			<path class="st6" d="M1217.8,352.1c-38.9-11.8-50.2-57.6-50.3-58.1c-0.1-0.5-0.7-0.9-1.2-0.7c-0.5,0.1-0.9,0.7-0.7,1.2
				c0.1,0.5,11.6,47.4,51.7,59.5c0.1,0,0.2,0,0.3,0c0.4,0,0.8-0.3,1-0.7C1218.7,352.8,1218.4,352.3,1217.8,352.1z"/>
			<path class="st6" d="M1189.3,353.6c-11.4-5.6-14.8-16-14.8-16.2c-0.2-0.5-0.7-0.8-1.3-0.7c-0.5,0.2-0.8,0.7-0.7,1.3
				c0.1,0.5,3.7,11.4,15.8,17.4c0.1,0.1,0.3,0.1,0.4,0.1c0.4,0,0.7-0.2,0.9-0.6C1190,354.4,1189.8,353.8,1189.3,353.6z"/>
			<path class="st6" d="M1211.2,327.8c0,0.5,0.5,0.9,1,0.9c0,0,0,0,0.1,0l23.9-1.8c0.5,0,1-0.5,0.9-1c0-0.9-4.6-90.1-4.7-91.2
				c0-0.6-0.4-1-1-1c-0.6,0-1,0.5-1,1c0,1,4.1,80,4.6,90.3l-22.9,1.7C1211.6,326.8,1211.2,327.3,1211.2,327.8z"/>
			<path class="st6" d="M1189.2,261.1c6.6,0,14-1.8,21.3-7.3c0.4-0.3,0.5-1,0.2-1.4c-0.3-0.4-1-0.5-1.4-0.2
				c-20.7,15.5-41.3,0.6-42.2,0c-0.4-0.3-1.1-0.2-1.4,0.2c-0.3,0.4-0.2,1.1,0.2,1.4C1166.1,253.8,1176.1,261.1,1189.2,261.1z"/>
			<path class="st6" d="M1282.5,256.7c-18,13.1-30.6-3.6-31.2-4.4c-0.3-0.4-1-0.5-1.4-0.2c-0.4,0.3-0.5,1-0.2,1.4
				c0.1,0.1,7.6,10.1,19.2,10.1c4.4,0,9.3-1.4,14.7-5.3c0.4-0.3,0.5-1,0.2-1.4C1283.6,256.5,1283,256.4,1282.5,256.7z"/>
			<path class="st6" d="M1167.9,225.2c0.2,0,0.3,0,0.5-0.1c0.2-0.1,23.3-13.2,45.9-13.9c0.6,0,1-0.5,1-1c0-0.6-0.5-1-1-1
				c-23,0.7-46.6,14-46.8,14.2c-0.5,0.3-0.6,0.9-0.4,1.4C1167.2,225,1167.5,225.2,1167.9,225.2z"/>
			<path class="st6" d="M1250.5,211.1c0.2,0,24,3,34.7,16.3c0.2,0.2,0.5,0.4,0.8,0.4c0.2,0,0.4-0.1,0.6-0.2c0.4-0.3,0.5-1,0.1-1.4
				c-11.3-13.9-35.1-16.9-36.1-17c-0.6-0.1-1,0.3-1.1,0.9C1249.5,210.6,1249.9,211.1,1250.5,211.1z"/>
			<path class="st6" d="M1114.7,276.7c0.3,0,0.5-0.1,0.7-0.3c0.4-0.4,0.3-1-0.1-1.4l-28.3-25.9c-0.4-0.4-1-0.3-1.4,0.1
				c-0.4,0.4-0.3,1,0.1,1.4l13.5,12.4l-8.2,12.2c-0.3,0.5-0.2,1.1,0.3,1.4c0.2,0.1,0.4,0.2,0.6,0.2c0.3,0,0.6-0.2,0.8-0.4l8-12
				l13.3,12.2C1114.2,276.6,1114.4,276.7,1114.7,276.7z"/>
			<path class="st6" d="M683.6,537.6c0.2,0.4,0.5,0.6,0.9,0.6c0.1,0,0.3,0,0.4-0.1c0.5-0.2,0.7-0.8,0.5-1.3l-93.9-213.6
				c-0.2-0.5-0.8-0.7-1.3-0.5c-0.5,0.2-0.7,0.8-0.5,1.3L683.6,537.6z"/>
			<path class="st6" d="M524.5,366.8c0.2,0.3,0.5,0.5,0.8,0.5c0.2,0,0.4,0,0.5-0.2c0.5-0.3,0.6-0.9,0.3-1.4l-45.6-72
				c-0.3-0.5-0.9-0.6-1.4-0.3c-0.5,0.3-0.6,0.9-0.3,1.4L524.5,366.8z"/>
			<path class="st6" d="M548.9,495.3c0.2,0.2,0.4,0.3,0.7,0.3c0.3,0,0.5-0.1,0.7-0.3c0.4-0.4,0.3-1-0.1-1.4l-99.8-90.5
				c-0.4-0.4-1-0.3-1.4,0.1c-0.4,0.4-0.3,1,0.1,1.4L548.9,495.3z"/>
			<path class="st6" d="M1656.4,460.6c0.1,0.1,0.3,0.1,0.5,0.1c0.4,0,0.7-0.2,0.9-0.5l48.9-92.8c0.3-0.5,0.1-1.1-0.4-1.4
				c-0.5-0.3-1.1-0.1-1.4,0.4l-48.9,92.8C1655.8,459.8,1656,460.4,1656.4,460.6z"/>
			<path class="st6" d="M1641.1,581.7c0.2,0.2,0.4,0.2,0.6,0.2c0.3,0,0.6-0.1,0.8-0.4l156.1-188c0.4-0.4,0.3-1.1-0.1-1.4
				c-0.4-0.4-1.1-0.3-1.4,0.1l-156.1,188C1640.6,580.7,1640.6,581.3,1641.1,581.7z"/>
			<path class="st6" d="M1750,539.9c0.2,0.2,0.5,0.4,0.8,0.4c0.2,0,0.4-0.1,0.6-0.2l57.7-47.2c0.4-0.3,0.5-1,0.1-1.4
				c-0.4-0.4-1-0.5-1.4-0.1l-57.7,47.2C1749.7,538.9,1749.7,539.5,1750,539.9z"/>
		</g>
	</g>
</g>
</svg>
