<?xml version="1.0" encoding="UTF-8"?>
<svg id="Layer_1" data-name="Layer 1" xmlns="http://www.w3.org/2000/svg" version="1.1" viewBox="0 0 5400 3600">
  <defs>
    <style>
      .cls-1 {
        stroke: #363435;
      }

      .cls-1, .cls-2 {
        fill: none;
        fill-rule: evenodd;
        stroke-linecap: round;
        stroke-linejoin: round;
        stroke-width: 12.3px;
      }

      .cls-2 {
        stroke: #63cbe7;
      }

      .cls-3 {
        display: none;
        fill: #fff;
        stroke-width: 0px;
      }
    </style>
  </defs>
  <rect class="cls-3" x=".5" y=".5" width="5400" height="3600"/>
  <path class="cls-2" d="M18.8,2472.8s2902.5,44,2884,40.2c-18.5-3.8-14.5,90.4.2,108.7,14.7,18.3,94.6,21.2,94.1-2.4-.5-23.6,17-285-8.3-314.3-25.2-29.3-145.7-104.7-132.8-75.5,12.9,29.2,36.9,303.4,40.2,261.7,3.2-41.7,16-219.5-9-241.5-25-22-400-227.1-379.4-212.5,20.6,14.6-30.9-108.8-1.2-143.3,29.6-34.5,91.5,3.7,137-52.7,45.7-56.5,44.3-118.6,29.6-138.6-14.7-20,787.9,234.6,793.8,212.5,5.9-22.1.8-75.6-14-86.7-14.8-11.1-767.4-213.5-779.3-195.2-11.9,18.3-6.7,67.6.9,42,7.6-25.6-27.8-58.4,19.2-58.5,47.1-.2,283.3-10.2,281.4.8-1.8,11,80.5-219.5,113.4-236.3,32.9-16.9,215-90.6,331.5-15.5,116.8,75.3,99.6,181.2,122.4,157,22.8-24.3-56.8,253.9-107.1,252.1-50.2-1.8-454.6-85.7-396.9-95.1,57.8-9.4,485.1,104.2,470.8,126.4-14.3,22.2-81,40.6-24.8,24,56.4-16.7,220.9,1.8,203.7-16.7-17.2-18.5-199.7-123.8-188.6-86.8,11.1,37,228.6,77.5,268.8,79.4,40.3,1.8,596,1.6,651.8-32.2,55.9-33.9-74-58.1,70.4-96,145.2-38.1,697-26.5,619.2-83.3-77.7-56.7-1637.9-15.9-1538.9-7,99.2,8.9,415-31.6,439.1,16.9,24.1,48.5,75.6,229.5,76.8,156.7,1.2-72.8-358.9-967.2-307.4-941.7,51.6,25.5,429.9,973.4,382.3,936-47.6-37.3-141.3-173.5,60.2-174.3,202.8-.8,585.9-32.7,700.8-230.9,115.7-199.4,117.1-323.7-126.3-387.3-241.7-63.2-441.5-20.3-477.4-131.6-35.9-111.4,320.4-240.1,173-311.6-92.7-45-303.7-36.4-449.4-32-84.9,2.5-147.8,3.6-152.7-8.1-13.3-31.9,114.8-86,.8,58.6-113.4,143.9-624,795.4-549.5,754,74.8-41.6,509.3-717.2,586-749.1,76.9-32,547.1-45.9,552,9.3,4.9,55.2-157.5,130.8-163.1,220.1-5.5,89.3-43.8,150.5,173.6,177.7,218.8,27.3,439.2,66.3,450.9,146.4,11.6,80-593.3,139.3-545.2,184.2,48.2,44.9,447.7,34,240.3,111.5-205.8,76.9-430,106.4-373.7,136.1,56.4,29.8,691,76.3,625.2,91.7-65.7,15.4-1321.6,38-1335.7,78.8-14,40.8,171.8,66.5,170,92.4-1.7,26-226.9,22.3-230.3,74.1-3.3,51.7,42.1,140.3-32,215.6-73.9,75-234.5,44.9-268.7,97.8-34.2,52.8,10.7,243,14.6,228.4,3.9-14.5-193-65.5-154.2-81.6,38.8-16.1,130.3,17.5,111.2-8.2-19.1-25.7-630.8-310.9-631.4-336.3-.6-25.4.8-54.4,12.9-56.2,12.1-1.8,160.8,2.1,179.1-3.4,18.3-5.4-.6-27.3-2.4-16.4-1.8,10.9,491.9,218.8,529.4,222.6,37.4,3.8,179.1,4.5,136.8-26.9-42.2-31.4-619.5-210.3-630.3-237.7-10.8-27.4-.3-109.5.6-65.7.9,43.8,7,135-29.8,138.6-36.7,3.6-124.2,5.2-118,10.7,6.2,5.5,148.9,3.9,130.7,11.2-18.2,7.2-81.2,19.8-52.6,19.9,28.6,0,108.1-8.8,98,.2-10,9.1-101.7,17.9-56.7,23.5,45.1,5.6,126.8-3.3,114.6,2.1-12.2,5.4-102,14.3-63,21.7,39,7.4,73.4-16.2,108.6,2.2,35.3,18.3,196.9,68.3,182.5,73.7-14.3,5.4-65.5,23.4-36.7,23.6,28.9.1,86.6-1.4,86.6-1.4,0,0-98.7,14.1-59.5,19.8,39.3,5.7,103.2-3.1,109.5.6,6.3,3.7-74.4-.4-48.2,76.5,26.2,76.9,53,184.7,127.6,190.9,74.8,6.2,1091.9-34.2,1143.1-63.6,51.4-29.4,24.2-556.9,7.6-496.8-16.6,59.9-49.1,246.8,84.6,243.6,134.3-3.2,588.8-65.6,597.2-126.1,8.4-60.6,37.9-307.2,20.2-307.2-17.7,0-4.3,26.6-228.8,49.9-222.8,23.1-331.7,8.2-331.2,57.1.5,48.9-111.3,123.9-416.8,112.5-302.5-11.4-539.4-48.5-550.7,36.6-11.2,84.9,896,64.9,668.3,124.1-225.8,58.7-788.9,184.9-784,229,4.9,44.1-227.7,56.8-227.1,89.7.6,32.9,10.1,324.5,10.1,324.5,0,0-54-18.9-57.6,10.1-3.6,29-2.5,87.1,14.3,105.5,16.8,18.4,179.4,90.2,208.2,76.1,28.8-14.1,32.1-65-13.6-69.3-45.7-4.4-366.8,15.8-276.4,20.9,90.7,5.1,218.5-10.9,193.9-.4-24.6,10.5-246.5,39.4-131.3,45,115.7,5.6,197.9-25.7,210.2-32.8,12.3-7.1,41.2-17.5,44.9-43,3.7-25.4-180.5-126.5-142.6-89.5,37.9,37,121.3,60.1,120.5,12.7-.8-47.4-38-274.3-4.8-277.6,33.3-3.3,128.6-42.7,146.3,16.1,17.7,58.8,9.7,599.2,27.1,643.2,17.4,44,80.1,52.6,100.8,42.2,20.8-10.5,24.8-17.7,45.3-46.4,20.5-28.8,16.8-556.1,54-603.5,37.2-47.5,91.8-69.1,299.7-74.5,209.2-5.4,342.4-4.2,359.1-52.4,16.7-48.3,10.5-231.3,62.2-249.7,51.8-18.5,134.1-33.2,138.6-14.4,4.5,18.8,11.9,359.3,38.2,382,26.2,22.7,78.4,27,87,15.9,8.6-11.1,83.5-472.3,44.5-419.7-38.9,52.5-110.3,348-70.9,382,39.4,34.1,651.1,23.4,651.1,23.4"/>
  <path class="cls-1" d="M13.3,2477.8s2902.5,44,2884,40.2c-18.5-3.8-14.5,90.4.2,108.7,14.7,18.3,94.6,21.2,94.1-2.4-.5-23.6,17-285-8.3-314.3-25.2-29.3-145.7-104.7-132.8-75.5,12.9,29.2,36.9,303.4,40.2,261.7,3.2-41.7,16-219.5-9-241.5-25-22-400-227.1-379.4-212.5,20.6,14.6-30.9-108.8-1.2-143.3,29.6-34.5,91.5,3.7,137-52.7,45.7-56.5,44.3-118.6,29.6-138.6-14.7-20,787.9,234.6,793.8,212.5,5.9-22.1.8-75.6-14-86.7-14.8-11.1-767.4-213.5-779.3-195.2-11.9,18.3-6.7,67.6.9,42,7.6-25.6-27.8-58.4,19.2-58.5,47.1-.2,283.3-10.2,281.4.8-1.8,11,80.5-219.5,113.4-236.3,32.9-16.9,215-90.6,331.5-15.5,116.8,75.3,99.6,181.2,122.4,157,22.8-24.3-56.8,253.9-107.1,252.1-50.2-1.8-454.6-85.7-396.9-95.1,57.8-9.4,485.1,104.2,470.8,126.4-14.3,22.2-81,40.6-24.8,24,56.4-16.7,220.9,1.8,203.7-16.7-17.2-18.5-199.7-123.8-188.6-86.8,11.1,37,228.6,77.5,268.8,79.4,40.3,1.8,596,1.6,651.8-32.2,55.9-33.9-74-58.1,70.4-96,145.2-38.1,697-26.5,619.2-83.3-77.7-56.7-1637.9-15.9-1538.9-7,99.2,8.9,415-31.6,439.1,16.9,24.1,48.5,75.6,229.5,76.8,156.7,1.2-72.8-358.9-967.2-307.4-941.7,51.6,25.5,429.9,973.4,382.3,936-47.6-37.3-141.3-173.5,60.2-174.3,202.8-.8,585.9-32.7,700.8-230.9,115.7-199.4,117.1-323.7-126.3-387.3-241.7-63.2-441.5-20.3-477.4-131.6-35.9-111.4,320.4-240.1,173-311.6-92.7-45-303.7-36.4-449.4-32-84.9,2.5-147.8,3.6-152.7-8.1-13.3-31.9,114.8-86,.8,58.6-113.4,143.9-624,795.4-549.5,754,74.8-41.6,509.3-717.2,586-749.1,76.9-32,547.1-45.9,552,9.3,4.9,55.2-157.5,130.8-163.1,220.1-5.5,89.3-43.8,150.5,173.6,177.7,218.8,27.3,439.2,66.3,450.9,146.4,11.6,80-593.3,139.3-545.2,184.2,48.2,44.9,447.7,34,240.3,111.5-205.8,76.9-430,106.4-373.7,136.1,56.4,29.8,691,76.3,625.2,91.7-65.7,15.4-1321.6,38-1335.7,78.8-14,40.8,171.8,66.5,170,92.4-1.7,26-226.9,22.3-230.3,74.1-3.3,51.7,42.1,140.3-32,215.6-73.9,75-234.5,44.9-268.7,97.8-34.2,52.8,10.7,243,14.6,228.4,3.9-14.5-193-65.5-154.2-81.6,38.8-16.1,130.3,17.5,111.2-8.2-19.1-25.7-630.8-310.9-631.4-336.3-.6-25.4.8-54.4,12.9-56.2,12.1-1.8,160.8,2.1,179.1-3.4,18.3-5.4-.6-27.3-2.4-16.4-1.8,10.9,491.9,218.8,529.4,222.6,37.4,3.8,179.1,4.5,136.8-26.9-42.2-31.4-619.5-210.3-630.3-237.7-10.8-27.4-.3-109.5.6-65.7.9,43.8,7,135-29.8,138.6-36.7,3.6-124.2,5.2-118,10.7,6.2,5.5,148.9,3.9,130.7,11.2-18.2,7.2-81.2,19.8-52.6,19.9,28.6,0,108.1-8.8,98,.2-10,9.1-101.7,17.9-56.7,23.5,45.1,5.6,126.8-3.3,114.6,2.1-12.2,5.4-102,14.3-63,21.7,39,7.4,73.4-16.2,108.6,2.2,35.3,18.3,196.9,68.3,182.5,73.7-14.3,5.4-65.5,23.4-36.7,23.6,28.9.1,86.6-1.4,86.6-1.4,0,0-98.7,14.1-59.5,19.8,39.3,5.7,103.2-3.1,109.5.6,6.3,3.7-74.4-.4-48.2,76.5,26.2,76.9,53,184.7,127.6,190.9,74.8,6.2,1091.9-34.2,1143.1-63.6,51.4-29.4,24.2-556.9,7.6-496.8-16.6,59.9-49.1,246.8,84.6,243.6,134.3-3.2,588.8-65.6,597.2-126.1,8.4-60.6,37.9-307.2,20.2-307.2-17.7,0-4.3,26.6-228.8,49.9-222.8,23.1-331.7,8.2-331.2,57.1.5,48.9-111.3,123.9-416.8,112.5-302.5-11.4-539.4-48.5-550.7,36.6-11.2,84.9,896,64.9,668.3,124.1-225.8,58.7-788.9,184.9-784,229,4.9,44.1-227.7,56.8-227.1,89.7.6,32.9,10.1,324.5,10.1,324.5,0,0-54-18.9-57.6,10.1-3.6,29-2.5,87.1,14.3,105.5,16.8,18.4,179.4,90.2,208.2,76.1,28.8-14.1,32.1-65-13.6-69.3-45.7-4.4-366.8,15.8-276.4,20.9,90.7,5.1,218.5-10.9,193.9-.4-24.6,10.5-246.5,39.4-131.3,45,115.7,5.6,197.9-25.7,210.2-32.8,12.3-7.1,41.2-17.5,44.9-43,3.7-25.4-180.5-126.5-142.6-89.5,37.9,37,121.3,60.1,120.5,12.7-.8-47.4-38-274.3-4.8-277.6,33.3-3.3,128.6-42.7,146.3,16.1,17.7,58.8,9.7,599.2,27.1,643.2,17.4,44,80.1,52.6,100.8,42.2,20.8-10.5,24.8-17.7,45.3-46.4,20.5-28.8,16.8-556.1,54-603.5,37.2-47.5,91.8-69.1,299.7-74.5,209.2-5.4,342.4-4.2,359.1-52.4,16.7-48.3,10.5-231.3,62.2-249.7,51.8-18.5,134.1-33.2,138.6-14.4,4.5,18.8,11.9,359.3,38.2,382,26.2,22.7,78.4,27,87,15.9,8.6-11.1,83.5-472.3,44.5-419.7-38.9,52.5-110.3,348-70.9,382,39.4,34.1,651.1,23.4,651.1,23.4"/>
</svg>