<?xml version="1.0" encoding="UTF-8"?>
<svg id="Piano" xmlns="http://www.w3.org/2000/svg" version="1.1" viewBox="0 0 3000 2160">
  <defs>
    <style>
      .cls-1 {
        fill: #1a1a1a;
      }

      .cls-1, .cls-2, .cls-3, .cls-4 {
        stroke-width: 0px;
      }

      .cls-2 {
        fill: #ffb000;
      }

      .cls-2, .cls-4 {
        display: none;
      }

      .cls-3 {
        fill: #63cbe7;
      }

      .cls-4 {
        fill: #fff;
      }
    </style>
  </defs>
  <rect id="Background" class="cls-4" width="3000" height="2160"/>
  <path id="Piano-2" data-name="Piano" class="cls-3" d="M2823.2,1373.3c-160,0-320,.5-480,0-3.3,0-6.5,0-9.8,0,.4-5.6.1-11.4-.6-17.1-.2-2-.9-6.4-1.4-11-2.7-20.9-5.3-41.9-8-62.8-9.4-74.2-18.8-148.4-28.2-222.7-17.3-136.1-32.3-272.8-53.5-408.3-.6-3.8-.7-8.4-2.2-12-4.6-11-18.1-13.4-28.5-13.7-17-.5-34.2.3-51,2.6-17,2.3-33.6,5.8-50.4,8.7-11.1-15.1-33.8-11.2-50.7-11.2-30.2,0-60.3,0-90.5-.2-6.8,0-9.1,9.1-3.4,12.6,24.8,15,55.5,17.7,83.9,17.6,17.5,0,35-1.3,52.3-3.6.1.5.2,1,.3,1.5,4.2,22.8,3.9,47.4,5.8,70.5,1.8,21.9,3.6,43.8,5.5,65.8,7.4,87.3,15.4,174.5,24,261.7,2.2,22.2,4.5,44.5,6.8,66.7,1,9.3,3.4,19.7,2.9,29-.8,13.2-11,14.8-21.7,14.8-17.7,0-35.4,0-53.2,0-.1-6.2,1.3-12,6.7-15.6,9-5.9,21-5.1,30.9-8.8,16.4-6,26.4-19.6,21.6-37.2-.8-2.9-3.5-5-6.5-5-26.3,0-52.5-.7-78.8-1-5.9,0-11.9-.2-17.8-.2-.5,0-9,.7-10.1,0-4.2-2.9-5.2-10.3-6-14.6-2.6-13.1-2.3-27.6-3.4-40.9-4.2-49.1-9-98.1-14.6-147-8.7-75.3-17.9-151.6-37-225.1-6-23.1-12.8-47.9-26.2-68-3.4-5-13.3-3.8-12.6,3.4,9.8,104.2,19.1,208.5,28.5,312.8,4.7,52.1,9.4,104.2,14.1,156.3,2.4,26,3.8,52.4,7.2,78.2,2,14.7,12.6,24.9,27.5,25.8,21.5,1.3,43.1,1.3,64.8,1,3.4,29,7,58,10.2,87,2.1,18.4,4,36.7,5.8,55.1.9,9.5,1.8,19.1,2.7,28.6,1.3,14.8.2,25.4-17,26.4-37.1,2.1-74.8.8-112,1.4-31.2.4-62.5.9-93.7,1.3-3-41.7-6.2-83.4-8.6-125.1-.9-15-1.7-29.9-2.4-44.9-.4-9.3-1.7-20-1-30.2,1.5,0,3,0,4.5,0,14.3-.1,28.7-.2,43-.4,10.8-.1,22.2,1.2,31.4-5.5,18.3-13.1,10.7-41.3,9.9-60.2-2.8-61.4-5.7-122.7-8.6-184.1-2.9-60.5-5.8-121-8.6-181.5-1.4-30.4-.7-61.8-4.2-92.1-2.1-18.4-15.2-26.6-32.7-26.8-31.2-.4-62.4-.3-93.6,0-15.5.1-30.9.4-46.4.8-.1,0-.3,0-.4,0-3.1-9.4-6.9-18.6-11.8-27-3.3-5.6-12.9-3.4-12.6,3.4.4,9,.8,18,1.2,27-3.6,1.6-7.1,3.5-10.8,4.8-2.2.8-4.5,1.5-6.8,2.2-1.4-1.7-3.1-3.2-5-4.5-10.3-7.1-23.8-5-35.7-4.9-32.8,0-65.6,0-98.5,0-6.6,0-9.3,9.3-3.4,12.6,32.6,18.1,72.9,21.1,109.3,17,8.5-1,17.1-2.3,25.4-4.2,1.1,4.2,1.2,9.2,1.1,14.8-.3,39.1,0,78.1.2,117.2.7,80,2,160,3.6,239.9.8,40.2,4.1,81.2,2.6,121.4-.6,15.6-10.8,16.9-24.4,17-14,0-28,0-42.1,0-3.4,0-6.9,0-10.3,0,.9-5.3,2.8-10,6.4-12.9,9.3-7.7,24.7-8.6,35.4-14.5,13.7-7.5,23.2-18.9,24-34.9.2-3.6-3.2-6.8-6.8-6.8-23.5.1-46.9-.2-70.4-.5-6,0-12-.1-18-.2-9.7,0-14.9,2.7-18.1-10.2-3-12.2-.6-28.5-.8-41.1-1.2-51.9-2.7-103.8-5.1-155.6-3.5-74.5-6.6-150.5-21.4-223.8-4.1-20.4-8.8-43.5-22-60.2-3.7-4.7-11.7-.7-11.5,4.8,3.2,129.8,3.4,259.6,5,389.4.4,32.9.8,65.9,1.5,98.8.3,15.7.6,31.4,1,47,.2,8.4-.8,19.1,4.4,26.3,4,5.5,10.2,7.1,16.6,7.7,15.3,1.3,31.1.1,46.5,0,6.5,0,13.1,0,19.6.1,0,8.9.3,17.9.3,26.6-.2,25.4-.3,50.8-.5,76.2-.2,27,.8,54.4-.5,81.4-.7,14.3-6.5,19.2-20.5,19.1-7.1,0-14.3,0-21.4,0-33.9,0-67.8,0-101.6,0-22.3,0-44.6,0-66.9,0,.1-24.1.2-48.3.3-72.4.5-101.4.9-202.8,1.4-304.1.4-89.3.8-178.7,1.4-268,.2-26.4.3-52.7.7-79.1,0-6.9.2-13.6-4.6-19.2-9.7-11.2-26.2-4.2-38.2-2.1-17.9,3.2-36,5.7-54.2,7.4-7.6-17.6-30.4-16.2-48-16.3-31.4-.2-62.9,0-94.3.6-5.3,0-9.6,7.7-4.8,11.5,28,21.8,68.8,20.3,102.5,20,11.2,0,22.3-.6,33.4-1.4,0,2.9-.5,5.8-.6,8.5-3.3,48.5-6.3,97-9.4,145.6-6.1,96.3-12,192.6-19.1,288.9-.8,11.2-1.6,22.3-2.5,33.5-.9,11.7,1.3,27.4-12.7,31.2-12.7,3.5-28.9,1.3-42,1.4-10.1,0-20.3,0-30.4,0,1.4-4.5,4.4-7.2,11-9.9,5.4-2.2,10.9-4,16.4-5.9,23.1-8.2,46.2-22.2,42-50.4-.4-3-3.8-4.9-6.5-5-21.6-.8-43.2-1-64.8-1-10.7,0-21.5.1-32.2.3-5.7,0-10.9,1.6-15-2.7-4.4-4.7-2.3-12.4-2-18.7,2.2-45.6,4.3-91.1,6.5-136.7,3.8-80.3,11.1-161.3,9.2-241.7-.7-31.1-2.1-65.4-16.3-93.7-3.2-6.4-12.2-2.8-12.6,3.4-7.3,112.5-15.4,225-23.3,337.6-4,56.3-7.9,112.6-11.6,168.9-.9,13-1.9,26.1-2.6,39.1-.4,8.2-.6,18.6,6.3,24.4,7.5,6.3,19.2,4.7,28.4,4.8,17.3.2,34.6.4,51.8.6,0,6.4.5,13.1.3,19.4-1.1,41.8-2.2,83.7-3.7,125.6-.3,8.8-.7,17.5-1.2,26.3-.3,5.5-.6,11-.9,16.5-.2,2.7.2,8.3-.7,10.1-2.9,6.2-9.8,4.9-14.9,4.9-30.5.2-61.1.2-91.6.3-29.2,0-59.6-2.3-88.6.5-26,2.5-20.6,27.2-20.4,46.8.2,24,0,48-.5,72-.3,12.2.8,32.7-11.7,39.9-8.5,4.9-21.8,2.2-31.2,2.2-31.1-.2-62.2.2-93.3.3-14.9,0-29.8,0-44.7,0-13.3,0-36.8,3.9-47.1-6.1-10.3-10.1-6.9-28.3-6.4-41.4.5-15.5.9-31,1.2-46.5.2-8.6.4-17.2.6-25.8.1-5.1-1.4-21.6,3.2-24.8,4-2.8,17.6-1,22.5-1.1,8.4-.1,16.9-.3,25.3-.4,30.5-.4,61.1-.5,91.6-.5,15.2,0,30.3.1,45.5.3,9.8.1,18.8.6,27-5.6,8.7-6.5,10.7-15.6,11.3-25.9,1-15.4,1.8-30.9,2.8-46.3,1.9-28.8,4.1-57.6,6.5-86.3,1.4-16.7,1.7-34.1,4.7-50.5.1-.6.2-1.1.3-1.7,2.1,0,4.1,0,6.2,0,18.6.2,37.4.9,56-.5,18.7-1.4,30.3-11,33.9-29.6,5-26.1,7-53.1,10.1-79.5,3.8-32.9,7.3-65.9,10.6-98.9,6.4-64.7,12.1-129.6,18.1-194.4,3.1-33.5,6.3-67,9.7-100.4,2-19.9,5.3-45.1-20.4-50.2-13.7-2.7-29.9-.4-43.8-.3-17,.1-34.1.3-51.1.5-17.4.2-34.8.5-52.1.7-.2-1.4-.4-2.7-.7-4.1-1.4-8.2-3.3-18.2-9.6-24.2-4.5-4.3-11-.9-11.5,4.8-.8,7.9-1.5,15.9-2.3,23.8-7.7.1-15.4.2-23,.3-15.3.2-30.7.4-46,.5-16.1.1-34-2-49.9.5-26.8,4.1-25,33.2-27.2,54.1-14.1,135-28.1,270.1-42.2,405.2-7.1,68-14.1,135.9-21.2,203.9-1.6,15.7-3.3,31.4-4.9,47.1-1.3,12.9.2,31.2-16.5,33-2.9.3-6.1,0-9,0H187.7c-8.7,0-8.7,13.5,0,13.5h434.5c13.7,0,27.4.2,41.1,0,4.7,0,9,0,13.6-1.7,23.4-8.4,20-40.6,22-60.5,13.5-128.9,26.8-257.9,40.2-386.9,6.7-64.5,13.4-129,20.1-193.4,1.6-15.7,3.3-31.4,4.9-47.1.7-7,1.5-13.9,2.2-20.9,1-9.2-.1-23.9,7.8-29.9,9.6-7.3,32.8-3.1,44.7-3.2,17.1-.1,34.1-.3,51.2-.5,8.9-.1,17.9-.3,26.8-.4-11.3,114.1-24.4,228.1-36.7,342.1-3.3,30.6-6.5,61.3-9.6,91.9-1.5,15-3,30-4.5,45-1.2,12.7-4.7,27.6-1.1,40.1,6,20.8,28.6,18.1,45.9,18.6,13.7.4,27.3.7,41,.9-2.9,13.2-3,27.3-4.2,41.1-2.5,28.2-4.7,56.4-6.6,84.7-.9,13.4-1.8,26.8-2.6,40.2-.4,7.4-.2,15.1-1.4,22.4-1.8,11.9-8.4,14.6-19.6,14.8-32.1.6-64.3-.5-96.3-.3-15.3,0-30.5.2-45.8.4-15.2.2-32.2-1.6-47.2,1-7.6,1.3-13.5,5.8-16,13.2-2,6.1-1,14-1.2,20.3-.2,8.6-.4,17.2-.6,25.8-.4,16.3-.7,32.7-1.3,49-.4,13.7-2.5,28.5,2.5,41.7,9.7,25.2,36.8,21.8,59.2,21.9,33.2.2,66.5,0,99.7-.2,15.4,0,30.8-.2,46.1,0,9.5.1,19.6,1.3,29-1.4,22.1-6.4,24.4-32.6,24.9-51.9.6-26.2.9-52.4.5-78.6,0-7-3-25.1,5.2-28.7,5.7-2.5,15.8-.6,21.7-.6,16.9,0,33.9-.1,50.8-.2,32.3,0,64.6-.2,96.9-.3,10.5,0,25.4,2.6,34.3-4.6,8.1-6.6,7.2-18.4,7.7-27.9,2.7-47.8,2.9-95.7,4.9-143.5.5-13.4.9-26.8,1-40.2,8.9,0,17.8,0,26.7,0,14.7,0,30,1,44.6-.8,18.1-2.3,25.9-13.9,27.3-31.1,8.8-107,14.9-214.2,21.7-321.4,1.9-30.3,3.8-60.5,5.8-90.8,1-15,1.9-30,2.9-45.1.7-11,3.1-23.2,2.5-34.5,2.7-.3,5.5-.5,8.2-.8,9-1,18-2.2,26.9-3.5,5-.8,10-1.6,15-2.4,5.9-1,14.1-4.2,20-3.7,13.4,1.1,10.8,6.7,10.7,15.4,0,5.1-.1,10.1-.2,15.2-.1,13.7-.2,27.3-.3,41-.6,81.9-1,163.8-1.4,245.7-.7,139.1-1.2,278.3-1.9,417.4-45,0-90.1.2-135.1.5-13,0-26.1.2-39.1.3-10.8.1-25.6-1.8-33.8,7-6.9,7.4-5.7,18.7-5.8,28.1-.2,14.6-.4,29.2-.6,43.8-.3,18-.6,35.9-.8,53.9,0,5.7,2.1,20.6-2.8,24.6-6.6,5.4-25.1-3.3-32-4.6-54.7-11-110.7-2.9-164.3,10-7.5,1.8-5.8,13.2,1.8,13.3,88,.6,176,.8,263.9,1,43.5.1,87.2,1.4,130.7.5,23.3-.5,30.4-17.1,30.5-37.6.3-42.4.5-84.8.7-127.2,22.3,0,44.6,0,66.9,0,34.8,0,69.6,0,104.5,0,13.2,0,29.9,2.9,41.2-5.4,16.6-12.2,11.5-37.6,11.6-55.3.2-30.4.4-60.9.6-91.3,0-15.3.2-30.6.3-45.8,0-5-.6-11.8-.8-18.7,20.3.3,40.6.6,60.6-.6,19.2-1.1,30-11.2,30.4-30.6,0-4.5-.2-9.1-.3-13.7-.6-25.3-1.1-50.6-1.7-75.9-1.8-85.6-3.4-171.2-4.2-256.9-.4-47.5,1.3-95.3-.3-142.7,0-2.6-.4-5.2-1-7.7,4.1-1.3,8.1-2.7,12.1-4.4.1,0,.2,0,.3-.1,4.8,105.8,10,211.5,15,317.3,2.8,59.2,5.5,118.3,8,177.5.7,17.4,4.9,34,24.9,37,12.8,1.9,27.1.1,40.1,0,9,0,17.9-.1,26.9-.2-2.3,25.6,1.9,53.3,3.4,78.5,2.4,40.6,5.5,81.2,8.4,121.7-.2,0-.5,0-.7,0-41.3.4-82.7.7-124.1.5-17.1,0-34.2-.3-51.3-.6-13.2-.3-28.7-2.3-41.4,2.4-12.3,4.5-16.1,16.8-17.2,28.8-1.8,18.5-.2,37.7,0,56.3,0,12,.1,24,.2,36,0,9.4,3.3,26.3-.8,34.8-3.2,6.5-8.6,4.7-14.5,3.1-11.6-3.1-23.1-6-35-7.8-45.5-6.9-91.8-1.7-134.8,14.4-6.9,2.6-6.2,13.2,1.8,13.3,105.5.7,211,1.1,316.5.5,24.3-.1,49.8,1.8,74-1,16.3-1.9,26.3-11.4,27.6-27.8,1.8-22.8-.2-46.4-.4-69.2-.2-23.4-.4-46.7-.6-70.1,39.6-.4,79.3-1,118.9-1.6,19.4-.3,38.8-.5,58.2-.8,16.8-.2,37.5,2.9,53.7-1.5,1.1-.3,2.1-.6,3.1-1-3.5,5-5.1,11.2-5.1,18.3.1,22.8.5,45.6.4,68.4,0,12.5-.2,25-.4,37.6,0,6,.5,12.6-.7,18.6-2.1,10.1-9.5,11.9-19.2,10.2-20.7-3.6-40.7-9.1-61.7-11.4-47-5.2-94.1-.2-137.7,18.6-6.4,2.7-2.9,12.7,3.4,12.6,109.6-1.3,219.2-2,328.8-2,27.2,0,54.4,0,81.5.1,16.3,0,37.4,2.5,46.8-14,10-17.5,4.6-44.7,4.3-63.9-.4-25.5-.8-51-1.2-76.5,7.8-2.7,12.6-8,15.3-14.7,60.7.1,121.5.2,182.2.2h310.6c8.7,0,8.7-13.5,0-13.5ZM1058.9,640.7c21.2.5,19.5,15.1,17.7,32-1.7,16.4-3.3,32.7-4.9,49.1-3.1,31.6-6,63.2-8.8,94.8-5.6,62-11.2,124-17.6,185.9-3.1,29.6-6.3,59.2-9.9,88.7-1.8,14.6-3.7,29.3-5.6,43.9-1.2,9.7-1.3,23.1-10.4,29.1-6.4,4.3-16.9,3.4-24.4,3.5-8.9.2-17.9.2-26.8.2-5.8,0-11.6,0-17.3-.1,5-7.6,12.3-13.5,20.4-18.3,19.4-11.4,44.2-22.7,43.8-48.8,0-3.7-3.1-6.7-6.8-6.8-16.4-.3-32.7-.6-49.1-.9-7.8-.1-15.6-.3-23.3-.4-7.8-.1-19.8,1.7-27.3-.5-13-3.8-8.5-14.7-7.6-24.7.8-7.9,1.5-15.8,2.3-23.7,3.8-40.1,7.4-80.3,10.6-120.5,6.8-84.6,14.2-170.2,11.4-255.1-.3-8.8-.7-17.6-1.5-26.3,45.1-1,90.2-2.2,135.1-1.1ZM904.7,1166.9c-7.6-.2-15.2-.4-22.8-.6-4.2-.1-8.9.4-13-.4-12.6-2.3-12-13.2-11.3-23.5,2.3-30.1,5.8-60.1,8.9-90.1,12.5-120.7,26.6-241.3,39-362,1.7-16,3.3-32,4.8-48.1,1,10.1,1.3,20.2,1.6,30.3,1.1,41.1-.7,82.2-2.8,123.2-4.6,86.5-12.2,172.9-20.4,259.1-1.4,15-9.5,41.7,8.8,49.1,7.4,3,16.8,1.7,24.6,1.8,9.3.2,18.6.4,27.8.5,17,.3,34,.6,50.9,1-5.8,22.5-42.8,30-56.6,46.8-3.5,4.3-6.2,8.8-8.2,13.5-10.5-.2-20.9-.4-31.4-.7ZM1096.7,1164.8c-14.7-3.1-10.1-20-9.3-31.3.9-13.9,1.8-27.8,2.8-41.7,3.3-49.3,6.7-98.7,10.2-148,7.2-101.7,14.5-203.4,21.2-305.2,4,20.9,4.1,43.2,4.4,63.4.4,37.6-1.8,75.2-3.6,112.7-2.3,48.2-4.6,96.4-6.9,144.5-1.1,23.7-2.3,47.3-3.4,71-.5,11.4-1.1,22.8-1.6,34.2-.5,9.6-3.5,22.6.6,31.8,7.5,16.9,32.3,10.9,46.8,10.8,24.5-.2,49,0,73.5.7-.6,25.3-39,29-56.6,38.1-9,4.6-12.9,11.7-14.5,19.7-14.5-.1-29-.3-43.4-.5-6.3,0-14.1,1.1-20.2-.2ZM1225.2,643.7c-11.8-.7-24.2-1.3-35.8-4.1,15-.2,29.9-.3,44.9-.3,11.9,0,23.7,0,35.6.2,5.9,0,12.5-.3,17.1,3.9-20.6,1.3-41.2,1.5-61.8.2ZM1113.1,1543.6c-23.5,0-47.1-.2-70.6-.3,23.5-2.5,47.2-2.8,70.6.3ZM1381.4,1528.4c-1.8,23.4-34,16-51,15.9-24.4-.1-48.8-.2-73.2-.3-26.7,0-53.5-.2-80.2-.3,5.8-9.1,3.5-23.4,3.6-33.4.4-31.9,1.1-63.9,1.4-95.8,0-4.3-1-10.9.7-14.8,3.2-7.4,13.2-5.7,20.1-5.8,12.9-.1,25.8-.2,38.7-.3,46.9-.3,93.8-.4,140.7-.5-.2,32.8-.4,65.7-.6,98.5,0,12.1.7,24.5-.3,36.6ZM1544.2,1163c-6.6-.4-9.2-.6-10.6-7.3-1.2-5.9-.5-12.7-.6-18.7-.3-14.8-.6-29.6-.9-44.4-.5-29.5-1-58.9-1.3-88.4-1.5-122.3-1.8-244.6-4.4-366.9,3.1,10.5,4.9,21.5,6.8,31.1,6.8,34.7,10.4,70.1,13.4,105.3,8.4,99.3,10.9,199.2,12.9,298.9.2,9.8-1.7,21.9,6.5,29.2,8,7,19.9,4.9,29.7,5,25.4.2,50.7.6,76.1.6-6.7,22.9-41.4,19.2-56.1,34.5-4.9,5.1-7.4,11.4-8.1,18.4,0,.9-.2,1.9-.3,2.8-21.1.4-42.3,1-63.1-.1ZM1594.7,640.6c13.8,0,27.7,0,41.5,0,12,0,24.2-.7,36.2,0,2.3.1,4.3.4,6.1.8-27.1,5.5-56.9,5.8-83.8-.7ZM1782.9,638.7c25.5-.2,50.9-.1,76.4,0,10.5,0,28.5-3.6,35.7,5.7,4.3,5.6,3.4,14.1,3.7,20.8.4,7.9.7,15.8,1.1,23.7,2.5,55.2,5.1,110.5,7.7,165.7,2.6,55.2,5.3,110.5,7.9,165.7,1.3,28.1,2.6,56.1,3.9,84.2.6,13.1,1.9,26.4,1.8,39.5-.2,19.7-16.7,17.9-31.9,18-14.2.1-28.3.3-42.5.4.7-2.1,1.6-4,2.6-5.9,12.6-22.6,77.8-17.8,64.3-57.4-1-2.8-3.4-5-6.5-5-23.7.2-47.4-.3-71.1-.6-12-.2-24.1-.4-36.2-.4-.9,0-7.3.6-8.6,0-3.8-1.9-5-9.4-5.7-12.8-1.1-5.9-.7-12.6-1-18.7-2.5-46.5-5.1-93-8.2-139.5-5.5-81.4-11-163.7-25.8-244.1-2.4-12.8-4.8-26.2-8.2-39.2,13.6-.9,27.6,0,40.7,0ZM1772,1162.7c-19.2-.7-19.2-12.8-19.8-28.9-2.3-54.9-4.8-109.8-7.4-164.6-5.1-108.7-10.4-217.5-15.4-326.2,3.2,12.4,5.5,25,7.7,37.1,7.4,40,12,80.5,15.9,120.9,4.6,47.5,8.1,95,11.1,142.6,3,47.5,4,95.3,8.2,142.7,2.2,25.4,28.5,20.1,47.5,20.4,27.1.3,54.3,1,81.4.9-.7,16.2-35.7,20.2-46.7,25.9-11.8,6.1-18.7,16.5-21.7,28.9-8,0-16,.1-24,.2-12.2,0-24.6.6-36.8.2ZM1561.2,1543.8c1.1.2,2.2.4,3.4.7-30.3,0-60.6-.2-90.8-.4,28.8-5.1,58.4-5.5,87.5-.3ZM1814.3,1543.3c-10.4,1.5-21.5.6-32.1.7-24,.2-47.9.3-71.9.4-31.1.1-62.2.2-93.4.1,2.3-3.2,3.9-7.5,4.5-13.5,2-21.3-.1-43.7-.2-65.1-.1-19.5-2.3-40.2.2-59.5,1.5-11.6,6.9-16.1,18.3-17,7.6-.6,15.4,0,23,0,18.3.4,36.7.6,55,.7,36.9.2,73.7,0,110.6-.4.4,42.4.8,84.8,1.1,127.2,0,12.5,0,24.1-15.2,26.3ZM2005.5,639.1c10.9,0,21.9,0,32.8,0,10.3,0,20.6,0,31,0,6.7,0,13.8-.6,19.6.7-2.2.2-4.3.5-6.5.7-24.3,2.1-51.8,3.7-76.9-1.5ZM2016,1161.9c-8.7,0-22.1,2.3-29.3-3.3-9-7.1-7.2-27.3-8.2-37.8-2.1-22.6-4.2-45.2-6.2-67.8-4.2-46-8.3-92.1-12.5-138.1-8.2-91.7-16.4-183.4-25-275,3.2,9.6,5.9,19.5,8.4,29.1,9.1,34.7,15.5,70.1,21.1,105.5,15.7,98.5,25,198.1,33.2,297.4.8,9.6-.6,21.9,6.3,29.6,6.8,7.7,17.1,6.3,26.5,6.4,29.4.3,58.8,1.1,88.3,1.2.6,19.2-32.7,18-45.8,24.8-12,6.2-14.7,16.5-14.2,28.2-14.2,0-28.4,0-42.5-.1ZM2074,1180.1c-.1-1.3-.3-2.6-.6-4,15.6-.2,31.1-.5,46.5-.5,14.2,0,28.7,0,36.6-14.1,4.2-7.5,3.5-15.1,2.7-23.3-1.3-12.4-2.6-24.8-3.9-37.2-10.1-98.6-19.3-197.3-27.8-296.1-2.5-28.6-4.8-57.3-7.2-85.9-1.2-14.6-2.4-29.1-3.5-43.7-.6-7.8-.3-16.9-1.9-25.2,5-.8,10-1.7,15-2.7,24-4.8,47.2-8.1,71.7-8.3,13,0,23.8-2.2,25.9,9.4,8.1,44.9,12.8,90.7,18.7,135.9,20.1,153.8,39.5,307.8,58.9,461.7,3.5,27.9,7,55.8,10.6,83.6,1.2,9.2,5.6,29.1,4,43.5-47.6-.1-95.1-.3-142.7-.4-15.2,0-30.3,0-45.5,0-12.9,0-29.4-2.7-41.6,1.7-.8.3-1.6.6-2.3.9,3.6-5.1,5.4-11.4,5.3-18-.3-21.4-4-43.4-6.2-64.7-3.9-37.6-8.6-75-13-112.6ZM1987,1539.7c6.9.7,13.7,1.8,20.5,3-36,.2-72.1.6-108.1.9,28.6-6.2,58.3-7,87.6-4ZM2308.3,1389.4c-3.6.5-6.8,2.7-6.8,6.8.4,23.8.7,47.6,1.1,71.5.2,11.9.4,23.8.6,35.7.2,9.8,3.1,26.6-4.8,34.4-7.5,7.4-23.7,4.5-33.2,4.5-12.3,0-24.5,0-36.8,0-25.4,0-50.9,0-76.3,0-24.4,0-48.8.1-73.2.2.8-1.1,1.5-2.4,2.2-3.8,3.1-6.8,3-14.6,3.1-21.8.2-11.8.3-23.5.4-35.3.2-22,.2-44.1-.1-66.2-.2-11.3-2.9-24.6,11.2-28.6,6.5-1.8,15.4-.5,22.1-.5,14.6,0,29.3,0,43.9,0,51,0,102,.2,152.9.3-1.6,1.5-3.7,2.5-6.2,2.8Z"/>
  <path id="Piano-3" data-name="Piano" class="cls-2" d="M2814.8,1379.3c-160,0-320,.5-480,0-3.3,0-6.5,0-9.8,0,.4-5.6.1-11.4-.6-17.1-.2-2-.9-6.4-1.4-11-2.7-20.9-5.3-41.9-8-62.8-9.4-74.2-18.8-148.4-28.2-222.7-17.3-136.1-32.3-272.8-53.5-408.3-.6-3.8-.7-8.4-2.2-12-4.6-11-18.1-13.4-28.5-13.7-17-.5-34.2.3-51,2.6-17,2.3-33.6,5.8-50.4,8.7-11.1-15.1-33.8-11.2-50.7-11.2-30.2,0-60.3,0-90.5-.2-6.8,0-9.1,9.1-3.4,12.6,24.8,15,55.5,17.7,83.9,17.6,17.5,0,35-1.3,52.3-3.6.1.5.2,1,.3,1.5,4.2,22.8,3.9,47.4,5.8,70.5,1.8,21.9,3.6,43.8,5.5,65.8,7.4,87.3,15.4,174.5,24,261.7,2.2,22.2,4.5,44.5,6.8,66.7,1,9.3,3.4,19.7,2.9,29-.8,13.2-11,14.8-21.7,14.8-17.7,0-35.4,0-53.2,0-.1-6.2,1.3-12,6.7-15.6,9-5.9,21-5.1,30.9-8.8,16.4-6,26.4-19.6,21.6-37.2-.8-2.9-3.5-5-6.5-5-26.3,0-52.5-.7-78.8-1-5.9,0-11.9-.2-17.8-.2-.5,0-9,.7-10.1,0-4.2-2.9-5.2-10.3-6-14.6-2.6-13.1-2.3-27.6-3.4-40.9-4.2-49.1-9-98.1-14.6-147-8.7-75.3-17.9-151.6-37-225.1-6-23.1-12.8-47.9-26.2-68-3.4-5-13.3-3.8-12.6,3.4,9.8,104.2,19.1,208.5,28.5,312.8,4.7,52.1,9.4,104.2,14.1,156.3,2.4,26,3.8,52.4,7.2,78.2,2,14.7,12.6,24.9,27.5,25.8,21.5,1.3,43.1,1.3,64.8,1,3.4,29,7,58,10.2,87,2.1,18.4,4,36.7,5.8,55.1.9,9.5,1.8,19.1,2.7,28.6,1.3,14.8.2,25.4-17,26.4-37.1,2.1-74.8.8-112,1.4-31.2.4-62.5.9-93.7,1.3-3-41.7-6.2-83.4-8.6-125.1-.9-15-1.7-29.9-2.4-44.9-.4-9.3-1.7-20-1-30.2,1.5,0,3,0,4.5,0,14.3-.1,28.7-.2,43-.4,10.8-.1,22.2,1.2,31.4-5.5,18.3-13.1,10.7-41.3,9.9-60.2-2.8-61.4-5.7-122.7-8.6-184.1-2.9-60.5-5.8-121-8.6-181.5-1.4-30.4-.7-61.8-4.2-92.1-2.1-18.4-15.2-26.6-32.7-26.8-31.2-.4-62.4-.3-93.6,0-15.5.1-30.9.4-46.4.8-.1,0-.3,0-.4,0-3.1-9.4-6.9-18.6-11.8-27-3.3-5.6-12.9-3.4-12.6,3.4.4,9,.8,18,1.2,27-3.6,1.6-7.1,3.5-10.8,4.8-2.2.8-4.5,1.5-6.8,2.2-1.4-1.7-3.1-3.2-5-4.5-10.3-7.1-23.8-5-35.7-4.9-32.8,0-65.6,0-98.5,0-6.6,0-9.3,9.3-3.4,12.6,32.6,18.1,72.9,21.1,109.3,17,8.5-1,17.1-2.3,25.4-4.2,1.1,4.2,1.2,9.2,1.1,14.8-.3,39.1,0,78.1.2,117.2.7,80,2,160,3.6,239.9.8,40.2,4.1,81.2,2.6,121.4-.6,15.6-10.8,16.9-24.4,17-14,0-28,0-42.1,0-3.4,0-6.9,0-10.3,0,.9-5.3,2.8-10,6.4-12.9,9.3-7.7,24.7-8.6,35.4-14.5,13.7-7.5,23.2-18.9,24-34.9.2-3.6-3.2-6.8-6.8-6.8-23.5.1-46.9-.2-70.4-.5-6,0-12-.1-18-.2-9.7,0-14.9,2.7-18.1-10.2-3-12.2-.6-28.5-.8-41.1-1.2-51.9-2.7-103.8-5.1-155.6-3.5-74.5-6.6-150.5-21.4-223.8-4.1-20.4-8.8-43.5-22-60.2-3.7-4.7-11.7-.7-11.5,4.8,3.2,129.8,3.4,259.6,5,389.4.4,32.9.8,65.9,1.5,98.8.3,15.7.6,31.4,1,47,.2,8.4-.8,19.1,4.4,26.3,4,5.5,10.2,7.1,16.6,7.7,15.3,1.3,31.1.1,46.5,0,6.5,0,13.1,0,19.6.1,0,8.9.3,17.9.3,26.6-.2,25.4-.3,50.8-.5,76.2-.2,27,.8,54.4-.5,81.4-.7,14.3-6.5,19.2-20.5,19.1-7.1,0-14.3,0-21.4,0-33.9,0-67.8,0-101.6,0-22.3,0-44.6,0-66.9,0,.1-24.1.2-48.3.3-72.4.5-101.4.9-202.8,1.4-304.1.4-89.3.8-178.7,1.4-268,.2-26.4.3-52.7.7-79.1,0-6.9.2-13.6-4.6-19.2-9.7-11.2-26.2-4.2-38.2-2.1-17.9,3.2-36,5.7-54.2,7.4-7.6-17.6-30.4-16.2-48-16.3-31.4-.2-62.9,0-94.3.6-5.3,0-9.6,7.7-4.8,11.5,28,21.8,68.8,20.3,102.5,20,11.2,0,22.3-.6,33.4-1.4,0,2.9-.5,5.8-.6,8.5-3.3,48.5-6.3,97-9.4,145.6-6.1,96.3-12,192.6-19.1,288.9-.8,11.2-1.6,22.3-2.5,33.5-.9,11.7,1.3,27.4-12.7,31.2-12.7,3.5-28.9,1.3-42,1.4-10.1,0-20.3,0-30.4,0,1.4-4.5,4.4-7.2,11-9.9,5.4-2.2,10.9-4,16.4-5.9,23.1-8.2,46.2-22.2,42-50.4-.4-3-3.8-4.9-6.5-5-21.6-.8-43.2-1-64.8-1-10.7,0-21.5.1-32.2.3-5.7,0-10.9,1.6-15-2.7-4.4-4.7-2.3-12.4-2-18.7,2.2-45.6,4.3-91.1,6.5-136.7,3.8-80.3,11.1-161.3,9.2-241.7-.7-31.1-2.1-65.4-16.3-93.7-3.2-6.4-12.2-2.8-12.6,3.4-7.3,112.5-15.4,225-23.3,337.6-4,56.3-7.9,112.6-11.6,168.9-.9,13-1.9,26.1-2.6,39.1-.4,8.2-.6,18.6,6.3,24.4,7.5,6.3,19.2,4.7,28.4,4.8,17.3.2,34.6.4,51.8.6,0,6.4.5,13.1.3,19.4-1.1,41.8-2.2,83.7-3.7,125.6-.3,8.8-.7,17.5-1.2,26.3-.3,5.5-.6,11-.9,16.5-.2,2.7.2,8.3-.7,10.1-2.9,6.2-9.8,4.9-14.9,4.9-30.5.2-61.1.2-91.6.3-29.2,0-59.6-2.3-88.6.5-26,2.5-20.6,27.2-20.4,46.8.2,24,0,48-.5,72-.3,12.2.8,32.7-11.7,39.9-8.5,4.9-21.8,2.2-31.2,2.2-31.1-.2-62.2.2-93.3.3-14.9,0-29.8,0-44.7,0-13.3,0-36.8,3.9-47.1-6.1-10.3-10.1-6.9-28.3-6.4-41.4.5-15.5.9-31,1.2-46.5.2-8.6.4-17.2.6-25.8.1-5.1-1.4-21.6,3.2-24.8,4-2.8,17.6-1,22.5-1.1,8.4-.1,16.9-.3,25.3-.4,30.5-.4,61.1-.5,91.6-.5,15.2,0,30.3.1,45.5.3,9.8.1,18.8.6,27-5.6,8.7-6.5,10.7-15.6,11.3-25.9,1-15.4,1.8-30.9,2.8-46.3,1.9-28.8,4.1-57.6,6.5-86.3,1.4-16.7,1.7-34.1,4.7-50.5.1-.6.2-1.1.3-1.7,2.1,0,4.1,0,6.2,0,18.6.2,37.4.9,56-.5,18.7-1.4,30.3-11,33.9-29.6,5-26.1,7-53.1,10.1-79.5,3.8-32.9,7.3-65.9,10.6-98.9,6.4-64.7,12.1-129.6,18.1-194.4,3.1-33.5,6.3-67,9.7-100.4,2-19.9,5.3-45.1-20.4-50.2-13.7-2.7-29.9-.4-43.8-.3-17,.1-34.1.3-51.1.5-17.4.2-34.8.5-52.1.7-.2-1.4-.4-2.7-.7-4.1-1.4-8.2-3.3-18.2-9.6-24.2-4.5-4.3-11-.9-11.5,4.8-.8,7.9-1.5,15.9-2.3,23.8-7.7.1-15.4.2-23,.3-15.3.2-30.7.4-46,.5-16.1.1-34-2-49.9.5-26.8,4.1-25,33.2-27.2,54.1-14.1,135-28.1,270.1-42.2,405.2-7.1,68-14.1,135.9-21.2,203.9-1.6,15.7-3.3,31.4-4.9,47.1-1.3,12.9.2,31.2-16.5,33-2.9.3-6.1,0-9,0H179.2c-8.7,0-8.7,13.5,0,13.5h434.5c13.7,0,27.4.2,41.1,0,4.7,0,9,0,13.6-1.7,23.4-8.4,20-40.6,22-60.5,13.5-128.9,26.8-257.9,40.2-386.9,6.7-64.5,13.4-129,20.1-193.4,1.6-15.7,3.3-31.4,4.9-47.1.7-7,1.5-13.9,2.2-20.9,1-9.2-.1-23.9,7.8-29.9,9.6-7.3,32.8-3.1,44.7-3.2,17.1-.1,34.1-.3,51.2-.5,8.9-.1,17.9-.3,26.8-.4-11.3,114.1-24.4,228.1-36.7,342.1-3.3,30.6-6.5,61.3-9.6,91.9-1.5,15-3,30-4.5,45-1.2,12.7-4.7,27.6-1.1,40.1,6,20.8,28.6,18.1,45.9,18.6,13.7.4,27.3.7,41,.9-2.9,13.2-3,27.3-4.2,41.1-2.5,28.2-4.7,56.4-6.6,84.7-.9,13.4-1.8,26.8-2.6,40.2-.4,7.4-.2,15.1-1.4,22.4-1.8,11.9-8.4,14.6-19.6,14.8-32.1.6-64.3-.5-96.3-.3-15.3,0-30.5.2-45.8.4-15.2.2-32.2-1.6-47.2,1-7.6,1.3-13.5,5.8-16,13.2-2,6.1-1,14-1.2,20.3-.2,8.6-.4,17.2-.6,25.8-.4,16.3-.7,32.7-1.3,49-.4,13.7-2.5,28.5,2.5,41.7,9.7,25.2,36.8,21.8,59.2,21.9,33.2.2,66.5,0,99.7-.2,15.4,0,30.8-.2,46.1,0,9.5.1,19.6,1.3,29-1.4,22.1-6.4,24.4-32.6,24.9-51.9.6-26.2.9-52.4.5-78.6,0-7-3-25.1,5.2-28.7,5.7-2.5,15.8-.6,21.7-.6,16.9,0,33.9-.1,50.8-.2,32.3,0,64.6-.2,96.9-.3,10.5,0,25.4,2.6,34.3-4.6,8.1-6.6,7.2-18.4,7.7-27.9,2.7-47.8,2.9-95.7,4.9-143.5.5-13.4.9-26.8,1-40.2,8.9,0,17.8,0,26.7,0,14.7,0,30,1,44.6-.8,18.1-2.3,25.9-13.9,27.3-31.1,8.8-107,14.9-214.2,21.7-321.4,1.9-30.3,3.8-60.5,5.8-90.8,1-15,1.9-30,2.9-45.1.7-11,3.1-23.2,2.5-34.5,2.7-.3,5.5-.5,8.2-.8,9-1,18-2.2,26.9-3.5,5-.8,10-1.6,15-2.4,5.9-1,14.1-4.2,20-3.7,13.4,1.1,10.8,6.7,10.7,15.4,0,5.1-.1,10.1-.2,15.2-.1,13.7-.2,27.3-.3,41-.6,81.9-1,163.8-1.4,245.7-.7,139.1-1.2,278.3-1.9,417.4-45,0-90.1.2-135.1.5-13,0-26.1.2-39.1.3-10.8.1-25.6-1.8-33.8,7-6.9,7.4-5.7,18.7-5.8,28.1-.2,14.6-.4,29.2-.6,43.8-.3,18-.6,35.9-.8,53.9,0,5.7,2.1,20.6-2.8,24.6-6.6,5.4-25.1-3.3-32-4.6-54.7-11-110.7-2.9-164.3,10-7.5,1.8-5.8,13.2,1.8,13.3,88,.6,176,.8,263.9,1,43.5.1,87.2,1.4,130.7.5,23.3-.5,30.4-17.1,30.5-37.6.3-42.4.5-84.8.7-127.2,22.3,0,44.6,0,66.9,0,34.8,0,69.6,0,104.5,0,13.2,0,29.9,2.9,41.2-5.4,16.6-12.2,11.5-37.6,11.6-55.3.2-30.4.4-60.9.6-91.3,0-15.3.2-30.6.3-45.8,0-5-.6-11.8-.8-18.7,20.3.3,40.6.6,60.6-.6,19.2-1.1,30-11.2,30.4-30.6,0-4.5-.2-9.1-.3-13.7-.6-25.3-1.1-50.6-1.7-75.9-1.8-85.6-3.4-171.2-4.2-256.9-.4-47.5,1.3-95.3-.3-142.7,0-2.6-.4-5.2-1-7.7,4.1-1.3,8.1-2.7,12.1-4.4.1,0,.2,0,.3-.1,4.8,105.8,10,211.5,15,317.3,2.8,59.2,5.5,118.3,8,177.5.7,17.4,4.9,34,24.9,37,12.8,1.9,27.1.1,40.1,0,9,0,17.9-.1,26.9-.2-2.3,25.6,1.9,53.3,3.4,78.5,2.4,40.6,5.5,81.2,8.4,121.7-.2,0-.5,0-.7,0-41.3.4-82.7.7-124.1.5-17.1,0-34.2-.3-51.3-.6-13.2-.3-28.7-2.3-41.4,2.4-12.3,4.5-16.1,16.8-17.2,28.8-1.8,18.5-.2,37.7,0,56.3,0,12,.1,24,.2,36,0,9.4,3.3,26.3-.8,34.8-3.2,6.5-8.6,4.7-14.5,3.1-11.6-3.1-23.1-6-35-7.8-45.5-6.9-91.8-1.7-134.8,14.4-6.9,2.6-6.2,13.2,1.8,13.3,105.5.7,211,1.1,316.5.5,24.3-.1,49.8,1.8,74-1,16.3-1.9,26.3-11.4,27.6-27.8,1.8-22.8-.2-46.4-.4-69.2-.2-23.4-.4-46.7-.6-70.1,39.6-.4,79.3-1,118.9-1.6,19.4-.3,38.8-.5,58.2-.8,16.8-.2,37.5,2.9,53.7-1.5,1.1-.3,2.1-.6,3.1-1-3.5,5-5.1,11.2-5.1,18.3.1,22.8.5,45.6.4,68.4,0,12.5-.2,25-.4,37.6,0,6,.5,12.6-.7,18.6-2.1,10.1-9.5,11.9-19.2,10.2-20.7-3.6-40.7-9.1-61.7-11.4-47-5.2-94.1-.2-137.7,18.6-6.4,2.7-2.9,12.7,3.4,12.6,109.6-1.3,219.2-2,328.8-2,27.2,0,54.4,0,81.5.1,16.3,0,37.4,2.5,46.8-14,10-17.5,4.6-44.7,4.3-63.9-.4-25.5-.8-51-1.2-76.5,7.8-2.7,12.6-8,15.3-14.7,60.7.1,121.5.2,182.2.2h310.6c8.7,0,8.7-13.5,0-13.5ZM1050.5,646.7c21.2.5,19.5,15.1,17.7,32-1.7,16.4-3.3,32.7-4.9,49.1-3.1,31.6-6,63.2-8.8,94.8-5.6,62-11.2,124-17.6,185.9-3.1,29.6-6.3,59.2-9.9,88.7-1.8,14.6-3.7,29.3-5.6,43.9-1.2,9.7-1.3,23.1-10.4,29.1-6.4,4.3-16.9,3.4-24.4,3.5-8.9.2-17.9.2-26.8.2-5.8,0-11.6,0-17.3-.1,5-7.6,12.3-13.5,20.4-18.3,19.4-11.4,44.2-22.7,43.8-48.8,0-3.7-3.1-6.7-6.8-6.8-16.4-.3-32.7-.6-49.1-.9-7.8-.1-15.6-.3-23.3-.4-7.8-.1-19.8,1.7-27.3-.5-13-3.8-8.5-14.7-7.6-24.7.8-7.9,1.5-15.8,2.3-23.7,3.8-40.1,7.4-80.3,10.6-120.5,6.8-84.6,14.2-170.2,11.4-255.1-.3-8.8-.7-17.6-1.5-26.3,45.1-1,90.2-2.2,135.1-1.1ZM896.2,1172.9c-7.6-.2-15.2-.4-22.8-.6-4.2-.1-8.9.4-13-.4-12.6-2.3-12-13.2-11.3-23.5,2.3-30.1,5.8-60.1,8.9-90.1,12.5-120.7,26.6-241.3,39-362,1.7-16,3.3-32,4.8-48.1,1,10.1,1.3,20.2,1.6,30.3,1.1,41.1-.7,82.2-2.8,123.2-4.6,86.5-12.2,172.9-20.4,259.1-1.4,15-9.5,41.7,8.8,49.1,7.4,3,16.8,1.7,24.6,1.8,9.3.2,18.6.4,27.8.5,17,.3,34,.6,50.9,1-5.8,22.5-42.8,30-56.6,46.8-3.5,4.3-6.2,8.8-8.2,13.5-10.5-.2-20.9-.4-31.4-.7ZM1088.3,1170.8c-14.7-3.1-10.1-20-9.3-31.3.9-13.9,1.8-27.8,2.8-41.7,3.3-49.3,6.7-98.7,10.2-148,7.2-101.7,14.5-203.4,21.2-305.2,4,20.9,4.1,43.2,4.4,63.4.4,37.6-1.8,75.2-3.6,112.7-2.3,48.2-4.6,96.4-6.9,144.5-1.1,23.7-2.3,47.3-3.4,71-.5,11.4-1.1,22.8-1.6,34.2-.5,9.6-3.5,22.6.6,31.8,7.5,16.9,32.3,10.9,46.8,10.8,24.5-.2,49,0,73.5.7-.6,25.3-39,29-56.6,38.1-9,4.6-12.9,11.7-14.5,19.7-14.5-.1-29-.3-43.4-.5-6.3,0-14.1,1.1-20.2-.2ZM1216.7,649.7c-11.8-.7-24.2-1.3-35.8-4.1,15-.2,29.9-.3,44.9-.3,11.9,0,23.7,0,35.6.2,5.9,0,12.5-.3,17.1,3.9-20.6,1.3-41.2,1.5-61.8.2ZM1104.7,1549.6c-23.5,0-47.1-.2-70.6-.3,23.5-2.5,47.2-2.8,70.6.3ZM1372.9,1534.4c-1.8,23.4-34,16-51,15.9-24.4-.1-48.8-.2-73.2-.3-26.7,0-53.5-.2-80.2-.3,5.8-9.1,3.5-23.4,3.6-33.4.4-31.9,1.1-63.9,1.4-95.8,0-4.3-1-10.9.7-14.8,3.2-7.4,13.2-5.7,20.1-5.8,12.9-.1,25.8-.2,38.7-.3,46.9-.3,93.8-.4,140.7-.5-.2,32.8-.4,65.7-.6,98.5,0,12.1.7,24.5-.3,36.6ZM1535.8,1169c-6.6-.4-9.2-.6-10.6-7.3-1.2-5.9-.5-12.7-.6-18.7-.3-14.8-.6-29.6-.9-44.4-.5-29.5-1-58.9-1.3-88.4-1.5-122.3-1.8-244.6-4.4-366.9,3.1,10.5,4.9,21.5,6.8,31.1,6.8,34.7,10.4,70.1,13.4,105.3,8.4,99.3,10.9,199.2,12.9,298.9.2,9.8-1.7,21.9,6.5,29.2,8,7,19.9,4.9,29.7,5,25.4.2,50.7.6,76.1.6-6.7,22.9-41.4,19.2-56.1,34.5-4.9,5.1-7.4,11.4-8.1,18.4,0,.9-.2,1.9-.3,2.8-21.1.4-42.3,1-63.1-.1ZM1586.3,646.6c13.8,0,27.7,0,41.5,0,12,0,24.2-.7,36.2,0,2.3.1,4.3.4,6.1.8-27.1,5.5-56.9,5.8-83.8-.7ZM1774.4,644.7c25.5-.2,50.9-.1,76.4,0,10.5,0,28.5-3.6,35.7,5.7,4.3,5.6,3.4,14.1,3.7,20.8.4,7.9.7,15.8,1.1,23.7,2.5,55.2,5.1,110.5,7.7,165.7,2.6,55.2,5.3,110.5,7.9,165.7,1.3,28.1,2.6,56.1,3.9,84.2.6,13.1,1.9,26.4,1.8,39.5-.2,19.7-16.7,17.9-31.9,18-14.2.1-28.3.3-42.5.4.7-2.1,1.6-4,2.6-5.9,12.6-22.6,77.8-17.8,64.3-57.4-1-2.8-3.4-5-6.5-5-23.7.2-47.4-.3-71.1-.6-12-.2-24.1-.4-36.2-.4-.9,0-7.3.6-8.6,0-3.8-1.9-5-9.4-5.7-12.8-1.1-5.9-.7-12.6-1-18.7-2.5-46.5-5.1-93-8.2-139.5-5.5-81.4-11-163.7-25.8-244.1-2.4-12.8-4.8-26.2-8.2-39.2,13.6-.9,27.6,0,40.7,0ZM1763.6,1168.7c-19.2-.7-19.2-12.8-19.8-28.9-2.3-54.9-4.8-109.8-7.4-164.6-5.1-108.7-10.4-217.5-15.4-326.2,3.2,12.4,5.5,25,7.7,37.1,7.4,40,12,80.5,15.9,120.9,4.6,47.5,8.1,95,11.1,142.6,3,47.5,4,95.3,8.2,142.7,2.2,25.4,28.5,20.1,47.5,20.4,27.1.3,54.3,1,81.4.9-.7,16.2-35.7,20.2-46.7,25.9-11.8,6.1-18.7,16.5-21.7,28.9-8,0-16,.1-24,.2-12.2,0-24.6.6-36.8.2ZM1552.8,1549.8c1.1.2,2.2.4,3.4.7-30.3,0-60.6-.2-90.8-.4,28.8-5.1,58.4-5.5,87.5-.3ZM1805.9,1549.3c-10.4,1.5-21.5.6-32.1.7-24,.2-47.9.3-71.9.4-31.1.1-62.2.2-93.4.1,2.3-3.2,3.9-7.5,4.5-13.5,2-21.3-.1-43.7-.2-65.1-.1-19.5-2.3-40.2.2-59.5,1.5-11.6,6.9-16.1,18.3-17,7.6-.6,15.4,0,23,0,18.3.4,36.7.6,55,.7,36.9.2,73.7,0,110.6-.4.4,42.4.8,84.8,1.1,127.2,0,12.5,0,24.1-15.2,26.3ZM1997,645.1c10.9,0,21.9,0,32.8,0,10.3,0,20.6,0,31,0,6.7,0,13.8-.6,19.6.7-2.2.2-4.3.5-6.5.7-24.3,2.1-51.8,3.7-76.9-1.5ZM2007.6,1167.9c-8.7,0-22.1,2.3-29.3-3.3-9-7.1-7.2-27.3-8.2-37.8-2.1-22.6-4.2-45.2-6.2-67.8-4.2-46-8.3-92.1-12.5-138.1-8.2-91.7-16.4-183.4-25-275,3.2,9.6,5.9,19.5,8.4,29.1,9.1,34.7,15.5,70.1,21.1,105.5,15.7,98.5,25,198.1,33.2,297.4.8,9.6-.6,21.9,6.3,29.6,6.8,7.7,17.1,6.3,26.5,6.4,29.4.3,58.8,1.1,88.3,1.2.6,19.2-32.7,18-45.8,24.8-12,6.2-14.7,16.5-14.2,28.2-14.2,0-28.4,0-42.5-.1ZM2065.5,1186.1c-.1-1.3-.3-2.6-.6-4,15.6-.2,31.1-.5,46.5-.5,14.2,0,28.7,0,36.6-14.1,4.2-7.5,3.5-15.1,2.7-23.3-1.3-12.4-2.6-24.8-3.9-37.2-10.1-98.6-19.3-197.3-27.8-296.1-2.5-28.6-4.8-57.3-7.2-85.9-1.2-14.6-2.4-29.1-3.5-43.7-.6-7.8-.3-16.9-1.9-25.2,5-.8,10-1.7,15-2.7,24-4.8,47.2-8.1,71.7-8.3,13,0,23.8-2.2,25.9,9.4,8.1,44.9,12.8,90.7,18.7,135.9,20.1,153.8,39.5,307.8,58.9,461.7,3.5,27.9,7,55.8,10.6,83.6,1.2,9.2,5.6,29.1,4,43.5-47.6-.1-95.1-.3-142.7-.4-15.2,0-30.3,0-45.5,0-12.9,0-29.4-2.7-41.6,1.7-.8.3-1.6.6-2.3.9,3.6-5.1,5.4-11.4,5.3-18-.3-21.4-4-43.4-6.2-64.7-3.9-37.6-8.6-75-13-112.6ZM1978.5,1545.7c6.9.7,13.7,1.8,20.5,3-36,.2-72.1.6-108.1.9,28.6-6.2,58.3-7,87.6-4ZM2299.9,1395.4c-3.6.5-6.8,2.7-6.8,6.8.4,23.8.7,47.6,1.1,71.5.2,11.9.4,23.8.6,35.7.2,9.8,3.1,26.6-4.8,34.4-7.5,7.4-23.7,4.5-33.2,4.5-12.3,0-24.5,0-36.8,0-25.4,0-50.9,0-76.3,0-24.4,0-48.8.1-73.2.2.8-1.1,1.5-2.4,2.2-3.8,3.1-6.8,3-14.6,3.1-21.8.2-11.8.3-23.5.4-35.3.2-22,.2-44.1-.1-66.2-.2-11.3-2.9-24.6,11.2-28.6,6.5-1.8,15.4-.5,22.1-.5,14.6,0,29.3,0,43.9,0,51,0,102,.2,152.9.3-1.6,1.5-3.7,2.5-6.2,2.8Z"/>
  <path id="Piano-4" data-name="Piano" class="cls-1" d="M2817.8,1376.3c-160,0-320,.5-480,0-3.3,0-6.5,0-9.8,0,.4-5.6.1-11.4-.6-17.1-.2-2-.9-6.4-1.4-11-2.7-20.9-5.3-41.9-8-62.8-9.4-74.2-18.8-148.4-28.2-222.7-17.3-136.1-32.3-272.8-53.5-408.3-.6-3.8-.7-8.4-2.2-12-4.6-11-18.1-13.4-28.5-13.7-17-.5-34.2.3-51,2.6-17,2.3-33.6,5.8-50.4,8.7-11.1-15.1-33.8-11.2-50.7-11.2-30.2,0-60.3,0-90.5-.2-6.8,0-9.1,9.1-3.4,12.6,24.8,15,55.5,17.7,83.9,17.6,17.5,0,35-1.3,52.3-3.6.1.5.2,1,.3,1.5,4.2,22.8,3.9,47.4,5.8,70.5,1.8,21.9,3.6,43.8,5.5,65.8,7.4,87.3,15.4,174.5,24,261.7,2.2,22.2,4.5,44.5,6.8,66.7,1,9.3,3.4,19.7,2.9,29-.8,13.2-11,14.8-21.7,14.8-17.7,0-35.4,0-53.2,0-.1-6.2,1.3-12,6.7-15.6,9-5.9,21-5.1,30.9-8.8,16.4-6,26.4-19.6,21.6-37.2-.8-2.9-3.5-5-6.5-5-26.3,0-52.5-.7-78.8-1-5.9,0-11.9-.2-17.8-.2-.5,0-9,.7-10.1,0-4.2-2.9-5.2-10.3-6-14.6-2.6-13.1-2.3-27.6-3.4-40.9-4.2-49.1-9-98.1-14.6-147-8.7-75.3-17.9-151.6-37-225.1-6-23.1-12.8-47.9-26.2-68-3.4-5-13.3-3.8-12.6,3.4,9.8,104.2,19.1,208.5,28.5,312.8,4.7,52.1,9.4,104.2,14.1,156.3,2.4,26,3.8,52.4,7.2,78.2,2,14.7,12.6,24.9,27.5,25.8,21.5,1.3,43.1,1.3,64.8,1,3.4,29,7,58,10.2,87,2.1,18.4,4,36.7,5.8,55.1.9,9.5,1.8,19.1,2.7,28.6,1.3,14.8.2,25.4-17,26.4-37.1,2.1-74.8.8-112,1.4-31.2.4-62.5.9-93.7,1.3-3-41.7-6.2-83.4-8.6-125.1-.9-15-1.7-29.9-2.4-44.9-.4-9.3-1.7-20-1-30.2,1.5,0,3,0,4.5,0,14.3-.1,28.7-.2,43-.4,10.8-.1,22.2,1.2,31.4-5.5,18.3-13.1,10.7-41.3,9.9-60.2-2.8-61.4-5.7-122.7-8.6-184.1-2.9-60.5-5.8-121-8.6-181.5-1.4-30.4-.7-61.8-4.2-92.1-2.1-18.4-15.2-26.6-32.7-26.8-31.2-.4-62.4-.3-93.6,0-15.5.1-30.9.4-46.4.8-.1,0-.3,0-.4,0-3.1-9.4-6.9-18.6-11.8-27-3.3-5.6-12.9-3.4-12.6,3.4.4,9,.8,18,1.2,27-3.6,1.6-7.1,3.5-10.8,4.8-2.2.8-4.5,1.5-6.8,2.2-1.4-1.7-3.1-3.2-5-4.5-10.3-7.1-23.8-5-35.7-4.9-32.8,0-65.6,0-98.5,0-6.6,0-9.3,9.3-3.4,12.6,32.6,18.1,72.9,21.1,109.3,17,8.5-1,17.1-2.3,25.4-4.2,1.1,4.2,1.2,9.2,1.1,14.8-.3,39.1,0,78.1.2,117.2.7,80,2,160,3.6,239.9.8,40.2,4.1,81.2,2.6,121.4-.6,15.6-10.8,16.9-24.4,17-14,0-28,0-42.1,0-3.4,0-6.9,0-10.3,0,.9-5.3,2.8-10,6.4-12.9,9.3-7.7,24.7-8.6,35.4-14.5,13.7-7.5,23.2-18.9,24-34.9.2-3.6-3.2-6.8-6.8-6.8-23.5.1-46.9-.2-70.4-.5-6,0-12-.1-18-.2-9.7,0-14.9,2.7-18.1-10.2-3-12.2-.6-28.5-.8-41.1-1.2-51.9-2.7-103.8-5.1-155.6-3.5-74.5-6.6-150.5-21.4-223.8-4.1-20.4-8.8-43.5-22-60.2-3.7-4.7-11.7-.7-11.5,4.8,3.2,129.8,3.4,259.6,5,389.4.4,32.9.8,65.9,1.5,98.8.3,15.7.6,31.4,1,47,.2,8.4-.8,19.1,4.4,26.3,4,5.5,10.2,7.1,16.6,7.7,15.3,1.3,31.1.1,46.5,0,6.5,0,13.1,0,19.6.1,0,8.9.3,17.9.3,26.6-.2,25.4-.3,50.8-.5,76.2-.2,27,.8,54.4-.5,81.4-.7,14.3-6.5,19.2-20.5,19.1-7.1,0-14.3,0-21.4,0-33.9,0-67.8,0-101.6,0-22.3,0-44.6,0-66.9,0,.1-24.1.2-48.3.3-72.4.5-101.4.9-202.8,1.4-304.1.4-89.3.8-178.7,1.4-268,.2-26.4.3-52.7.7-79.1,0-6.9.2-13.6-4.6-19.2-9.7-11.2-26.2-4.2-38.2-2.1-17.9,3.2-36,5.7-54.2,7.4-7.6-17.6-30.4-16.2-48-16.3-31.4-.2-62.9,0-94.3.6-5.3,0-9.6,7.7-4.8,11.5,28,21.8,68.8,20.3,102.5,20,11.2,0,22.3-.6,33.4-1.4,0,2.9-.5,5.8-.6,8.5-3.3,48.5-6.3,97-9.4,145.6-6.1,96.3-12,192.6-19.1,288.9-.8,11.2-1.6,22.3-2.5,33.5-.9,11.7,1.3,27.4-12.7,31.2-12.7,3.5-28.9,1.3-42,1.4-10.1,0-20.3,0-30.4,0,1.4-4.5,4.4-7.2,11-9.9,5.4-2.2,10.9-4,16.4-5.9,23.1-8.2,46.2-22.2,42-50.4-.4-3-3.8-4.9-6.5-5-21.6-.8-43.2-1-64.8-1-10.7,0-21.5.1-32.2.3-5.7,0-10.9,1.6-15-2.7-4.4-4.7-2.3-12.4-2-18.7,2.2-45.6,4.3-91.1,6.5-136.7,3.8-80.3,11.1-161.3,9.2-241.7-.7-31.1-2.1-65.4-16.3-93.7-3.2-6.4-12.2-2.8-12.6,3.4-7.3,112.5-15.4,225-23.3,337.6-4,56.3-7.9,112.6-11.6,168.9-.9,13-1.9,26.1-2.6,39.1-.4,8.2-.6,18.6,6.3,24.4,7.5,6.3,19.2,4.7,28.4,4.8,17.3.2,34.6.4,51.8.6,0,6.4.5,13.1.3,19.4-1.1,41.8-2.2,83.7-3.7,125.6-.3,8.8-.7,17.5-1.2,26.3-.3,5.5-.6,11-.9,16.5-.2,2.7.2,8.3-.7,10.1-2.9,6.2-9.8,4.9-14.9,4.9-30.5.2-61.1.2-91.6.3-29.2,0-59.6-2.3-88.6.5-26,2.5-20.6,27.2-20.4,46.8.2,24,0,48-.5,72-.3,12.2.8,32.7-11.7,39.9-8.5,4.9-21.8,2.2-31.2,2.2-31.1-.2-62.2.2-93.3.3-14.9,0-29.8,0-44.7,0-13.3,0-36.8,3.9-47.1-6.1-10.3-10.1-6.9-28.3-6.4-41.4.5-15.5.9-31,1.2-46.5.2-8.6.4-17.2.6-25.8.1-5.1-1.4-21.6,3.2-24.8,4-2.8,17.6-1,22.5-1.1,8.4-.1,16.9-.3,25.3-.4,30.5-.4,61.1-.5,91.6-.5,15.2,0,30.3.1,45.5.3,9.8.1,18.8.6,27-5.6,8.7-6.5,10.7-15.6,11.3-25.9,1-15.4,1.8-30.9,2.8-46.3,1.9-28.8,4.1-57.6,6.5-86.3,1.4-16.7,1.7-34.1,4.7-50.5.1-.6.2-1.1.3-1.7,2.1,0,4.1,0,6.2,0,18.6.2,37.4.9,56-.5,18.7-1.4,30.3-11,33.9-29.6,5-26.1,7-53.1,10.1-79.5,3.8-32.9,7.3-65.9,10.6-98.9,6.4-64.7,12.1-129.6,18.1-194.4,3.1-33.5,6.3-67,9.7-100.4,2-19.9,5.3-45.1-20.4-50.2-13.7-2.7-29.9-.4-43.8-.3-17,.1-34.1.3-51.1.5-17.4.2-34.8.5-52.1.7-.2-1.4-.4-2.7-.7-4.1-1.4-8.2-3.3-18.2-9.6-24.2-4.5-4.3-11-.9-11.5,4.8-.8,7.9-1.5,15.9-2.3,23.8-7.7.1-15.4.2-23,.3-15.3.2-30.7.4-46,.5-16.1.1-34-2-49.9.5-26.8,4.1-25,33.2-27.2,54.1-14.1,135-28.1,270.1-42.2,405.2-7.1,68-14.1,135.9-21.2,203.9-1.6,15.7-3.3,31.4-4.9,47.1-1.3,12.9.2,31.2-16.5,33-2.9.3-6.1,0-9,0H182.2c-8.7,0-8.7,13.5,0,13.5h434.5c13.7,0,27.4.2,41.1,0,4.7,0,9,0,13.6-1.7,23.4-8.4,20-40.6,22-60.5,13.5-128.9,26.8-257.9,40.2-386.9,6.7-64.5,13.4-129,20.1-193.4,1.6-15.7,3.3-31.4,4.9-47.1.7-7,1.5-13.9,2.2-20.9,1-9.2-.1-23.9,7.8-29.9,9.6-7.3,32.8-3.1,44.7-3.2,17.1-.1,34.1-.3,51.2-.5,8.9-.1,17.9-.3,26.8-.4-11.3,114.1-24.4,228.1-36.7,342.1-3.3,30.6-6.5,61.3-9.6,91.9-1.5,15-3,30-4.5,45-1.2,12.7-4.7,27.6-1.1,40.1,6,20.8,28.6,18.1,45.9,18.6,13.7.4,27.3.7,41,.9-2.9,13.2-3,27.3-4.2,41.1-2.5,28.2-4.7,56.4-6.6,84.7-.9,13.4-1.8,26.8-2.6,40.2-.4,7.4-.2,15.1-1.4,22.4-1.8,11.9-8.4,14.6-19.6,14.8-32.1.6-64.3-.5-96.3-.3-15.3,0-30.5.2-45.8.4-15.2.2-32.2-1.6-47.2,1-7.6,1.3-13.5,5.8-16,13.2-2,6.1-1,14-1.2,20.3-.2,8.6-.4,17.2-.6,25.8-.4,16.3-.7,32.7-1.3,49-.4,13.7-2.5,28.5,2.5,41.7,9.7,25.2,36.8,21.8,59.2,21.9,33.2.2,66.5,0,99.7-.2,15.4,0,30.8-.2,46.1,0,9.5.1,19.6,1.3,29-1.4,22.1-6.4,24.4-32.6,24.9-51.9.6-26.2.9-52.4.5-78.6,0-7-3-25.1,5.2-28.7,5.7-2.5,15.8-.6,21.7-.6,16.9,0,33.9-.1,50.8-.2,32.3,0,64.6-.2,96.9-.3,10.5,0,25.4,2.6,34.3-4.6,8.1-6.6,7.2-18.4,7.7-27.9,2.7-47.8,2.9-95.7,4.9-143.5.5-13.4.9-26.8,1-40.2,8.9,0,17.8,0,26.7,0,14.7,0,30,1,44.6-.8,18.1-2.3,25.9-13.9,27.3-31.1,8.8-107,14.9-214.2,21.7-321.4,1.9-30.3,3.8-60.5,5.8-90.8,1-15,1.9-30,2.9-45.1.7-11,3.1-23.2,2.5-34.5,2.7-.3,5.5-.5,8.2-.8,9-1,18-2.2,26.9-3.5,5-.8,10-1.6,15-2.4,5.9-1,14.1-4.2,20-3.7,13.4,1.1,10.8,6.7,10.7,15.4,0,5.1-.1,10.1-.2,15.2-.1,13.7-.2,27.3-.3,41-.6,81.9-1,163.8-1.4,245.7-.7,139.1-1.2,278.3-1.9,417.4-45,0-90.1.2-135.1.5-13,0-26.1.2-39.1.3-10.8.1-25.6-1.8-33.8,7-6.9,7.4-5.7,18.7-5.8,28.1-.2,14.6-.4,29.2-.6,43.8-.3,18-.6,35.9-.8,53.9,0,5.7,2.1,20.6-2.8,24.6-6.6,5.4-25.1-3.3-32-4.6-54.7-11-110.7-2.9-164.3,10-7.5,1.8-5.8,13.2,1.8,13.3,88,.6,176,.8,263.9,1,43.5.1,87.2,1.4,130.7.5,23.3-.5,30.4-17.1,30.5-37.6.3-42.4.5-84.8.7-127.2,22.3,0,44.6,0,66.9,0,34.8,0,69.6,0,104.5,0,13.2,0,29.9,2.9,41.2-5.4,16.6-12.2,11.5-37.6,11.6-55.3.2-30.4.4-60.9.6-91.3,0-15.3.2-30.6.3-45.8,0-5-.6-11.8-.8-18.7,20.3.3,40.6.6,60.6-.6,19.2-1.1,30-11.2,30.4-30.6,0-4.5-.2-9.1-.3-13.7-.6-25.3-1.1-50.6-1.7-75.9-1.8-85.6-3.4-171.2-4.2-256.9-.4-47.5,1.3-95.3-.3-142.7,0-2.6-.4-5.2-1-7.7,4.1-1.3,8.1-2.7,12.1-4.4.1,0,.2,0,.3-.1,4.8,105.8,10,211.5,15,317.3,2.8,59.2,5.5,118.3,8,177.5.7,17.4,4.9,34,24.9,37,12.8,1.9,27.1.1,40.1,0,9,0,17.9-.1,26.9-.2-2.3,25.6,1.9,53.3,3.4,78.5,2.4,40.6,5.5,81.2,8.4,121.7-.2,0-.5,0-.7,0-41.3.4-82.7.7-124.1.5-17.1,0-34.2-.3-51.3-.6-13.2-.3-28.7-2.3-41.4,2.4-12.3,4.5-16.1,16.8-17.2,28.8-1.8,18.5-.2,37.7,0,56.3,0,12,.1,24,.2,36,0,9.4,3.3,26.3-.8,34.8-3.2,6.5-8.6,4.7-14.5,3.1-11.6-3.1-23.1-6-35-7.8-45.5-6.9-91.8-1.7-134.8,14.4-6.9,2.6-6.2,13.2,1.8,13.3,105.5.7,211,1.1,316.5.5,24.3-.1,49.8,1.8,74-1,16.3-1.9,26.3-11.4,27.6-27.8,1.8-22.8-.2-46.4-.4-69.2-.2-23.4-.4-46.7-.6-70.1,39.6-.4,79.3-1,118.9-1.6,19.4-.3,38.8-.5,58.2-.8,16.8-.2,37.5,2.9,53.7-1.5,1.1-.3,2.1-.6,3.1-1-3.5,5-5.1,11.2-5.1,18.3.1,22.8.5,45.6.4,68.4,0,12.5-.2,25-.4,37.6,0,6,.5,12.6-.7,18.6-2.1,10.1-9.5,11.9-19.2,10.2-20.7-3.6-40.7-9.1-61.7-11.4-47-5.2-94.1-.2-137.7,18.6-6.4,2.7-2.9,12.7,3.4,12.6,109.6-1.3,219.2-2,328.8-2,27.2,0,54.4,0,81.5.1,16.3,0,37.4,2.5,46.8-14,10-17.5,4.6-44.7,4.3-63.9-.4-25.5-.8-51-1.2-76.5,7.8-2.7,12.6-8,15.3-14.7,60.7.1,121.5.2,182.2.2h310.6c8.7,0,8.7-13.5,0-13.5ZM1053.5,643.7c21.2.5,19.5,15.1,17.7,32-1.7,16.4-3.3,32.7-4.9,49.1-3.1,31.6-6,63.2-8.8,94.8-5.6,62-11.2,124-17.6,185.9-3.1,29.6-6.3,59.2-9.9,88.7-1.8,14.6-3.7,29.3-5.6,43.9-1.2,9.7-1.3,23.1-10.4,29.1-6.4,4.3-16.9,3.4-24.4,3.5-8.9.2-17.9.2-26.8.2-5.8,0-11.6,0-17.3-.1,5-7.6,12.3-13.5,20.4-18.3,19.4-11.4,44.2-22.7,43.8-48.8,0-3.7-3.1-6.7-6.8-6.8-16.4-.3-32.7-.6-49.1-.9-7.8-.1-15.6-.3-23.3-.4-7.8-.1-19.8,1.7-27.3-.5-13-3.8-8.5-14.7-7.6-24.7.8-7.9,1.5-15.8,2.3-23.7,3.8-40.1,7.4-80.3,10.6-120.5,6.8-84.6,14.2-170.2,11.4-255.1-.3-8.8-.7-17.6-1.5-26.3,45.1-1,90.2-2.2,135.1-1.1ZM899.2,1169.9c-7.6-.2-15.2-.4-22.8-.6-4.2-.1-8.9.4-13-.4-12.6-2.3-12-13.2-11.3-23.5,2.3-30.1,5.8-60.1,8.9-90.1,12.5-120.7,26.6-241.3,39-362,1.7-16,3.3-32,4.8-48.1,1,10.1,1.3,20.2,1.6,30.3,1.1,41.1-.7,82.2-2.8,123.2-4.6,86.5-12.2,172.9-20.4,259.1-1.4,15-9.5,41.7,8.8,49.1,7.4,3,16.8,1.7,24.6,1.8,9.3.2,18.6.4,27.8.5,17,.3,34,.6,50.9,1-5.8,22.5-42.8,30-56.6,46.8-3.5,4.3-6.2,8.8-8.2,13.5-10.5-.2-20.9-.4-31.4-.7ZM1091.3,1167.8c-14.7-3.1-10.1-20-9.3-31.3.9-13.9,1.8-27.8,2.8-41.7,3.3-49.3,6.7-98.7,10.2-148,7.2-101.7,14.5-203.4,21.2-305.2,4,20.9,4.1,43.2,4.4,63.4.4,37.6-1.8,75.2-3.6,112.7-2.3,48.2-4.6,96.4-6.9,144.5-1.1,23.7-2.3,47.3-3.4,71-.5,11.4-1.1,22.8-1.6,34.2-.5,9.6-3.5,22.6.6,31.8,7.5,16.9,32.3,10.9,46.8,10.8,24.5-.2,49,0,73.5.7-.6,25.3-39,29-56.6,38.1-9,4.6-12.9,11.7-14.5,19.7-14.5-.1-29-.3-43.4-.5-6.3,0-14.1,1.1-20.2-.2ZM1219.7,646.7c-11.8-.7-24.2-1.3-35.8-4.1,15-.2,29.9-.3,44.9-.3,11.9,0,23.7,0,35.6.2,5.9,0,12.5-.3,17.1,3.9-20.6,1.3-41.2,1.5-61.8.2ZM1107.7,1546.6c-23.5,0-47.1-.2-70.6-.3,23.5-2.5,47.2-2.8,70.6.3ZM1375.9,1531.4c-1.8,23.4-34,16-51,15.9-24.4-.1-48.8-.2-73.2-.3-26.7,0-53.5-.2-80.2-.3,5.8-9.1,3.5-23.4,3.6-33.4.4-31.9,1.1-63.9,1.4-95.8,0-4.3-1-10.9.7-14.8,3.2-7.4,13.2-5.7,20.1-5.8,12.9-.1,25.8-.2,38.7-.3,46.9-.3,93.8-.4,140.7-.5-.2,32.8-.4,65.7-.6,98.5,0,12.1.7,24.5-.3,36.6ZM1538.8,1166c-6.6-.4-9.2-.6-10.6-7.3-1.2-5.9-.5-12.7-.6-18.7-.3-14.8-.6-29.6-.9-44.4-.5-29.5-1-58.9-1.3-88.4-1.5-122.3-1.8-244.6-4.4-366.9,3.1,10.5,4.9,21.5,6.8,31.1,6.8,34.7,10.4,70.1,13.4,105.3,8.4,99.3,10.9,199.2,12.9,298.9.2,9.8-1.7,21.9,6.5,29.2,8,7,19.9,4.9,29.7,5,25.4.2,50.7.6,76.1.6-6.7,22.9-41.4,19.2-56.1,34.5-4.9,5.1-7.4,11.4-8.1,18.4,0,.9-.2,1.9-.3,2.8-21.1.4-42.3,1-63.1-.1ZM1589.3,643.6c13.8,0,27.7,0,41.5,0,12,0,24.2-.7,36.2,0,2.3.1,4.3.4,6.1.8-27.1,5.5-56.9,5.8-83.8-.7ZM1777.4,641.7c25.5-.2,50.9-.1,76.4,0,10.5,0,28.5-3.6,35.7,5.7,4.3,5.6,3.4,14.1,3.7,20.8.4,7.9.7,15.8,1.1,23.7,2.5,55.2,5.1,110.5,7.7,165.7,2.6,55.2,5.3,110.5,7.9,165.7,1.3,28.1,2.6,56.1,3.9,84.2.6,13.1,1.9,26.4,1.8,39.5-.2,19.7-16.7,17.9-31.9,18-14.2.1-28.3.3-42.5.4.7-2.1,1.6-4,2.6-5.9,12.6-22.6,77.8-17.8,64.3-57.4-1-2.8-3.4-5-6.5-5-23.7.2-47.4-.3-71.1-.6-12-.2-24.1-.4-36.2-.4-.9,0-7.3.6-8.6,0-3.8-1.9-5-9.4-5.7-12.8-1.1-5.9-.7-12.6-1-18.7-2.5-46.5-5.1-93-8.2-139.5-5.5-81.4-11-163.7-25.8-244.1-2.4-12.8-4.8-26.2-8.2-39.2,13.6-.9,27.6,0,40.7,0ZM1766.6,1165.7c-19.2-.7-19.2-12.8-19.8-28.9-2.3-54.9-4.8-109.8-7.4-164.6-5.1-108.7-10.4-217.5-15.4-326.2,3.2,12.4,5.5,25,7.7,37.1,7.4,40,12,80.5,15.9,120.9,4.6,47.5,8.1,95,11.1,142.6,3,47.5,4,95.3,8.2,142.7,2.2,25.4,28.5,20.1,47.5,20.4,27.1.3,54.3,1,81.4.9-.7,16.2-35.7,20.2-46.7,25.9-11.8,6.1-18.7,16.5-21.7,28.9-8,0-16,.1-24,.2-12.2,0-24.6.6-36.8.2ZM1555.8,1546.8c1.1.2,2.2.4,3.4.7-30.3,0-60.6-.2-90.8-.4,28.8-5.1,58.4-5.5,87.5-.3ZM1808.9,1546.3c-10.4,1.5-21.5.6-32.1.7-24,.2-47.9.3-71.9.4-31.1.1-62.2.2-93.4.1,2.3-3.2,3.9-7.5,4.5-13.5,2-21.3-.1-43.7-.2-65.1-.1-19.5-2.3-40.2.2-59.5,1.5-11.6,6.9-16.1,18.3-17,7.6-.6,15.4,0,23,0,18.3.4,36.7.6,55,.7,36.9.2,73.7,0,110.6-.4.4,42.4.8,84.8,1.1,127.2,0,12.5,0,24.1-15.2,26.3ZM2000,642.1c10.9,0,21.9,0,32.8,0,10.3,0,20.6,0,31,0,6.7,0,13.8-.6,19.6.7-2.2.2-4.3.5-6.5.7-24.3,2.1-51.8,3.7-76.9-1.5ZM2010.6,1164.9c-8.7,0-22.1,2.3-29.3-3.3-9-7.1-7.2-27.3-8.2-37.8-2.1-22.6-4.2-45.2-6.2-67.8-4.2-46-8.3-92.1-12.5-138.1-8.2-91.7-16.4-183.4-25-275,3.2,9.6,5.9,19.5,8.4,29.1,9.1,34.7,15.5,70.1,21.1,105.5,15.7,98.5,25,198.1,33.2,297.4.8,9.6-.6,21.9,6.3,29.6,6.8,7.7,17.1,6.3,26.5,6.4,29.4.3,58.8,1.1,88.3,1.2.6,19.2-32.7,18-45.8,24.8-12,6.2-14.7,16.5-14.2,28.2-14.2,0-28.4,0-42.5-.1ZM2068.5,1183.1c-.1-1.3-.3-2.6-.6-4,15.6-.2,31.1-.5,46.5-.5,14.2,0,28.7,0,36.6-14.1,4.2-7.5,3.5-15.1,2.7-23.3-1.3-12.4-2.6-24.8-3.9-37.2-10.1-98.6-19.3-197.3-27.8-296.1-2.5-28.6-4.8-57.3-7.2-85.9-1.2-14.6-2.4-29.1-3.5-43.7-.6-7.8-.3-16.9-1.9-25.2,5-.8,10-1.7,15-2.7,24-4.8,47.2-8.1,71.7-8.3,13,0,23.8-2.2,25.9,9.4,8.1,44.9,12.8,90.7,18.7,135.9,20.1,153.8,39.5,307.8,58.9,461.7,3.5,27.9,7,55.8,10.6,83.6,1.2,9.2,5.6,29.1,4,43.5-47.6-.1-95.1-.3-142.7-.4-15.2,0-30.3,0-45.5,0-12.9,0-29.4-2.7-41.6,1.7-.8.3-1.6.6-2.3.9,3.6-5.1,5.4-11.4,5.3-18-.3-21.4-4-43.4-6.2-64.7-3.9-37.6-8.6-75-13-112.6ZM1981.5,1542.7c6.9.7,13.7,1.8,20.5,3-36,.2-72.1.6-108.1.9,28.6-6.2,58.3-7,87.6-4ZM2302.9,1392.4c-3.6.5-6.8,2.7-6.8,6.8.4,23.8.7,47.6,1.1,71.5.2,11.9.4,23.8.6,35.7.2,9.8,3.1,26.6-4.8,34.4-7.5,7.4-23.7,4.5-33.2,4.5-12.3,0-24.5,0-36.8,0-25.4,0-50.9,0-76.3,0-24.4,0-48.8.1-73.2.2.8-1.1,1.5-2.4,2.2-3.8,3.1-6.8,3-14.6,3.1-21.8.2-11.8.3-23.5.4-35.3.2-22,.2-44.1-.1-66.2-.2-11.3-2.9-24.6,11.2-28.6,6.5-1.8,15.4-.5,22.1-.5,14.6,0,29.3,0,43.9,0,51,0,102,.2,152.9.3-1.6,1.5-3.7,2.5-6.2,2.8Z"/>
</svg>