<?xml version="1.0" encoding="UTF-8"?>
<svg id="Layer_1" data-name="Layer 1" xmlns="http://www.w3.org/2000/svg" version="1.1" viewBox="0 0 1280 1024">
  <defs>
    <style>
      .cls-1 {
        fill: #000;
      }

      .cls-1, .cls-2, .cls-3, .cls-4 {
        stroke-width: 0px;
      }

      .cls-2 {
        fill: #f2f2f2;
      }

      .cls-3 {
        fill: #63cbe7;
      }

      .cls-4 {
        fill: #fff;
      }

      .cls-5 {
        fill: #000333;
        font-family: YesevaOne-Regular, 'Yeseva One';
        font-size: 100px;
      }
    </style>
  </defs>
  <rect class="cls-2" width="1280" height="1024"/>
  <g id="logo-logo">
    <g>
      <path class="cls-3" d="M705,172.4l-214.7,130.5c-3.3,1.9-23.4,13.9-23.4,17.5v292.8c0,5.8,3.2,11.4,8.3,13.8l65.6,32.1c8.9,4.4,18.2-1.8,17.9-12l-1.3-45.8c-.1-4.6,1.9-8.7,5.4-11.1l224.4-147.8c4.3-2.9,12.8-2.3,18.2.6,13.8,7.3,23.8-15.2,15.4-27.2-.3-.4-.6-.9-.8-1.4l-42.4-86.2c-1.1-1.4-3.9-11.1-4.8-15.1s-.3-1.8-.3-2.6l2-79.8c0-2.3-.4-4.6-1.4-6.7-4.2-9.1-8.8-15.6-17.7-25.5l-21.9-25.3c-1.1-1.3-2.5-2.3-4-2.8-8.7-3.1-20.1-.7-24.4,1.9"/>
      <path class="cls-4" d="M713.4,183.8l-232.3,144.2c-3.2,2-5.1,5.4-5.1,9.1v275.5c0,4.5,2.8,8.5,7.1,10.1l53.2,19.4c7,2.5,14.4-2.6,14.4-10.1v-34.3c0-3.5,1.7-6.8,4.6-8.8l227.1-156.6c3.6-2.5,8.3-2.5,11.9-.2,9.3,6,20.5-4.3,15.3-14.1l-42.2-79c-.8-1.6-1.3-3.3-1.3-5.1v-96.8c0-2.5-.9-4.9-2.4-6.8l-36.3-44.1c-3.4-4.2-9.4-5.1-13.9-2.3"/>
      <path class="cls-1" d="M584.6,521.3l-51.7-21.3,14.1-9.9,51.8,21.5-14.2,9.7ZM457,624v-303.5l61.2,42.3v141.5l62.2,25.7v153.2l-123.4-59.2ZM779.8,199.4l-256.6,155.2-62-42.9,263.9-155.7,54.8,43.5ZM761.3,339.9l4.8-3.4,20.3,8.2c.6.2,1.2.4,1.8.4,1.9,0,3.7-1.1,4.5-3,.1-.3.2-.7.3-1.1l33.1,14.9-11.4,7.8-53.4-23.9ZM754.7,360.4l5.9,2.4c.6.2,1.2.4,1.8.4,1.9,0,3.7-1.1,4.5-3,1-2.5-.2-5.3-2.6-6.3l-14.5-5.9,2.4-1.7,53.3,23.8-11.3,7.8-39.4-17.5ZM741.2,377.8c.7-2.4-.4-4.9-2.8-5.9l-14.4-5.9,7.7-5.4,53.1,23.6-11.3,7.7-32.3-14.2ZM699.8,383l11.3-7.9,53,23.4-11.3,7.7-53-23.2ZM679.3,397.3l5.7-4c.4.4,1,.8,1.6,1l22.3,9.1c.6.2,1.2.4,1.8.4,1.9,0,3.7-1.1,4.5-3,0-.2,0-.3.1-.5l28.1,12.3-11.3,7.7-52.8-23ZM658.9,411.7l4.2-3,20.1,8.2c.6.2,1.2.4,1.8.4,1.9,0,3.7-1.1,4.5-3,.3-.6.4-1.3.3-1.9l33,14.4-11.3,7.7-52.7-22.7ZM659.8,435.2c1.6-.2,3.1-1.3,3.8-2.9,1-2.5-.2-5.3-2.6-6.3l-14.3-5.8,2.9-2,52.5,22.7-11.3,7.7-31.1-13.3ZM638.1,449c.2-2.1-.9-4.1-2.9-4.9l-14.2-5.8,8.2-5.7,52.4,22.4-11.2,7.7-32.1-13.7ZM597.4,454.8l11.2-7.9,52.3,22.2-11.2,7.7-52.2-22ZM576.9,469.1l8.9-6.2,19.9,8.1c.6.2,1.2.4,1.8.4.9,0,1.8-.3,2.6-.8l30,12.7-11.2,7.7-52.1-21.8ZM560,480.9l19.9,8.1c.6.2,1.2.4,1.8.4,1.9,0,3.7-1.1,4.5-3,.4-.9.4-1.9.2-2.8l33.1,13.8-11.2,7.7-51.9-21.5,3.6-2.6ZM783.4,312.7l-226.6,158.8h0l-28.9,20.3v-128.8l255.6-154.5v104.2ZM835.4,349.7l-53.6-24.1,6.9-4.9,41.1,18.3,3.9-8.8-40.7-18.2v-114.4l-67.2-53.3-278.4,164.3v321.5l142.6,68.4v-169.2l251.7-172.3v136.1l-64.8-41.4-183.3,127.8,5.5,7.9,178-124.1,74.2,47.3v-171.9l-16,10.9Z"/>
    </g>
  </g>
  <text class="cls-5" transform="translate(101.6 850.2)"><tspan x="0" y="0">Atchley Music Studio</tspan></text>
</svg>