<?xml version="1.0" encoding="UTF-8"?>
<svg id="Layer_1" data-name="Layer 1" xmlns="http://www.w3.org/2000/svg" version="1.1" viewBox="0 0 1280 1024">
  <defs>
    <style>
      .cls-1 {
        fill: #000;
      }

      .cls-1, .cls-2, .cls-3, .cls-4 {
        stroke-width: 0px;
      }

      .cls-2 {
        display: none;
        fill: #f2f2f2;
      }

      .cls-3 {
        fill: #63cbe7;
      }

      .cls-4 {
        fill: #fff;
      }
    </style>
  </defs>
  <rect class="cls-2" width="1280" height="1024"/>
  <g id="logo-logo">
    <g>
      <path class="cls-3" d="M718.9,158.7l-304.7,185.2c-4.6,2.8-33.2,19.8-33.2,24.9v415.6c0,8.3,4.6,16.1,11.8,19.6l93.1,45.5c12.7,6.2,25.8-2.6,25.4-17l-1.8-65c-.2-6.5,2.7-12.4,7.7-15.7l318.5-209.7c6.2-4.1,18.2-3.3,25.9.9,19.5,10.4,33.8-21.6,21.8-38.6-.4-.6-.8-1.3-1.2-1.9l-60.2-122.3c-1.6-2-5.5-15.8-6.8-21.4s-.4-2.5-.4-3.7l2.8-113.3c0-3.3-.6-6.5-2-9.5-5.9-12.9-12.5-22.2-25.1-36.2l-31.1-35.9c-1.5-1.8-3.5-3.2-5.7-4-12.3-4.4-28.5-.9-34.7,2.7"/>
      <path class="cls-4" d="M730.9,174.9l-329.7,204.6c-4.5,2.8-7.2,7.7-7.2,12.9v391.1c0,6.4,4,12.1,10,14.3l75.5,27.5c9.9,3.6,20.4-3.7,20.4-14.3v-48.7c0-5,2.5-9.7,6.6-12.5l322.3-222.3c5.1-3.5,11.7-3.6,16.9-.3,13.2,8.5,29.1-6.1,21.7-20l-60-112.1c-1.2-2.2-1.8-4.7-1.8-7.2v-137.4c0-3.5-1.2-7-3.5-9.7l-51.5-62.6c-4.8-5.9-13.3-7.3-19.8-3.3"/>
      <path class="cls-1" d="M548.1,653.8l-73.4-30.3,20.1-14.1,73.5,30.5-20.2,13.8h0ZM367,799.6v-430.9l86.8,60.1v200.8l88.3,36.4v217.5l-175.1-84h0ZM825.1,197l-364.2,220.2-88.1-61,374.6-221,77.7,61.7h0ZM798.9,396.4l6.8-4.8,28.8,11.7c.8.3,1.7.5,2.6.5,2.7,0,5.2-1.6,6.3-4.3.2-.5.3-1,.4-1.5l47,21.2-16.1,11-75.8-33.9h0ZM789.5,425.5l8.4,3.4c.8.3,1.7.5,2.6.5,2.7,0,5.2-1.6,6.3-4.3,1.4-3.5-.3-7.5-3.7-8.9l-20.6-8.4,3.4-2.4,75.6,33.8-16.1,11-55.9-24.8h0ZM770.3,450.2c1-3.3-.6-7-3.9-8.3l-20.5-8.3,10.9-7.6,75.4,33.5-16.1,11-45.8-20.2h0ZM711.6,457.5l16-11.2,75.2,33.2-16,11-75.2-32.9h0ZM682.5,477.9l8.2-5.7c.6.6,1.4,1.1,2.2,1.5l31.7,12.9c.8.3,1.7.5,2.6.5,2.7,0,5.2-1.6,6.3-4.3,0-.2,0-.5.2-.7l39.9,17.4-16,11-75-32.6h-.1ZM653.4,498.3l6-4.2,28.5,11.6c.8.3,1.7.5,2.6.5,2.7,0,5.2-1.6,6.3-4.3.4-.9.5-1.8.5-2.7l46.9,20.4-16,11-74.8-32.2h0ZM654.8,531.7c2.3-.3,4.4-1.8,5.4-4.2,1.4-3.5-.3-7.5-3.7-8.9l-20.3-8.3,4.1-2.9,74.6,32.2-16,10.9-44.1-18.9h0ZM624,551.3c.3-2.9-1.3-5.9-4.2-7l-20.2-8.2,11.6-8.1,74.4,31.8-16,10.9-45.6-19.4ZM566.2,559.4l15.9-11.2,74.2,31.5-15.9,10.9-74.2-31.3h0ZM537.1,579.8l12.6-8.9,28.3,11.5c.8.3,1.7.5,2.6.5,1.3,0,2.6-.4,3.7-1.1l42.6,18-15.9,10.9-73.9-30.9h0ZM513.2,596.6l28.2,11.5c.8.3,1.7.5,2.6.5,2.7,0,5.2-1.6,6.3-4.3.5-1.3.6-2.7.3-4l47,19.6-15.9,10.9-73.7-30.6,5.2-3.6h0ZM830.2,357.7l-321.7,225.5h0l-41.1,28.8v-182.8l362.8-219.4v147.9h0ZM904,410.2l-76-34.3,9.8-6.9,58.3,26,5.6-12.5-57.8-25.8v-162.4l-95.3-75.7-395.2,233.2v456.4l202.4,97.1v-240.2l357.3-244.6v193.2l-92-58.7-260.1,181.4,7.8,11.2,252.7-176.2,105.3,67.2v-243.9l-22.7,15.5h0Z"/>
    </g>
  </g>
</svg>